<svg width="80" height="55" viewBox="0 0 80 55" fill="none" xmlns="http://www.w3.org/2000/svg">
<g clip-path="url(#clip0_180_1585)">
<rect width="80" height="55" fill="url(#paint0_linear_180_1585)"/>
<path d="M37.8559 51.4935C39.3702 51.2413 40.5795 50.2555 41.1842 48.9629L41.2036 48.9717C42.1291 46.949 44.0084 45.4077 46.3671 45.0126C47.0071 44.9051 47.6399 44.8945 48.2534 44.9615C48.2975 44.9721 48.3451 44.9791 48.3927 44.9791C48.4068 44.9791 48.4227 44.9809 48.4368 44.9809C49.0943 45.0691 49.7254 45.2542 50.3195 45.517C50.97 45.8979 51.5095 46.4658 51.8568 47.1729C52.2111 47.8942 52.2622 48.7089 52.0031 49.469C51.7439 50.2291 51.2045 50.8428 50.4835 51.1955C49.9793 51.4424 49.4046 51.4953 48.8651 51.3418C48.5143 51.2431 48.1512 51.4459 48.0507 51.7968C47.952 52.1478 48.1547 52.5111 48.5055 52.6116C48.8264 52.7033 49.156 52.7474 49.4839 52.7474C50.0269 52.7474 50.5681 52.6239 51.0652 52.3788C52.1018 51.8691 52.8792 50.9874 53.2512 49.894C53.6249 48.8006 53.5491 47.6279 53.0414 46.591C52.4685 45.4253 51.5077 44.5418 50.3565 44.0621C50.4324 41.8048 51.9625 39.9214 54.041 39.313C54.1679 42.3321 55.8726 45.0356 58.5716 46.4393C59.5659 46.956 60.6465 47.2188 61.736 47.2188C62.4324 47.2188 63.1322 47.1112 63.8145 46.896C65.565 46.3423 66.9965 45.1414 67.8444 43.5101C68.4861 42.2739 68.6483 40.8525 68.301 39.5052C68.2093 39.1525 67.8515 38.9409 67.4971 39.0308C67.1446 39.1225 66.933 39.4823 67.0229 39.835C67.2891 40.8666 67.164 41.9565 66.6721 42.9017C65.9863 44.219 64.8299 45.1907 63.416 45.6387C62.0004 46.0866 60.4967 45.9543 59.1798 45.2701C56.7964 44.0304 55.3279 41.5879 55.3491 38.8986C55.3491 38.8897 55.3473 38.8827 55.3473 38.8739C55.4689 33.4017 59.9396 29 65.4398 29C70.9401 29 75.5377 33.5234 75.5377 39.1014C75.5377 39.8085 75.4654 40.4981 75.3261 41.1647C76.4368 40.2988 77.833 39.7838 79.3508 39.7838C82.9718 39.7838 85.907 42.7201 85.907 46.3423C85.907 47.7214 87.0247 48.7565 88.405 48.7565C89.1366 48.7565 89.7642 48.4426 90.2525 47.9542H90.2684C90.9471 47.3898 91.8356 47.0706 92.7858 47.0706C93.6073 47.0706 94.3706 47.3246 95 47.7584L94.9418 47.7831C93.5756 48.4691 92.7858 49.8482 92.784 51.2801C92.784 54.9923 89.7766 58.0008 86.0657 58.0008C84.0225 58.0008 82.1926 57.0891 80.9603 55.6501L80.9427 55.6748C80.2728 56.4278 79.3508 56.9657 78.279 57.1438C76.7488 57.3995 75.2697 56.8616 74.2631 55.8335C74.2561 55.8264 74.2508 55.8159 74.2437 55.8088C74.182 55.7488 74.1238 55.6871 74.0674 55.6236C73.8171 55.3327 73.6003 55.0082 73.4275 54.6572C73.4257 54.6519 73.4222 54.6467 73.4204 54.6414C73.3905 54.5779 73.364 54.5126 73.3358 54.4491C73.0097 53.6291 72.9656 52.7103 73.2389 51.8321C73.4786 51.065 74.0004 50.4389 74.7126 50.0651C75.4231 49.693 76.2375 49.6189 77.0026 49.8587C77.5386 50.0263 77.9916 50.3843 78.279 50.8657C78.4658 51.1796 78.8695 51.2819 79.1833 51.095C79.4971 50.908 79.5994 50.5042 79.4125 50.1903C78.9595 49.4284 78.2437 48.8624 77.3958 48.5978C76.294 48.254 75.1216 48.3598 74.0992 48.8959C73.0767 49.432 72.3239 50.3349 71.9802 51.4371C71.543 52.8355 71.7122 54.3134 72.4033 55.5478C70.7973 57.7575 68.361 59.364 65.4557 59.8508C60.4632 60.6849 55.6999 57.9479 53.7748 53.5021C53.0573 55.8511 51.0652 57.7152 48.4791 58.149C45.8576 58.5863 43.3385 57.4348 41.9052 55.3979C38.8078 55.8564 35.885 53.9536 35 51.0191C35.8444 51.4723 36.8387 51.6593 37.8576 51.49L37.8559 51.4935Z" fill="white" fill-opacity="0.2"/>
<path d="M-9 27.2888C-7.66699 23.2015 -4.67435 19.9742 -0.906979 18.4995C-0.914576 18.4793 -0.922169 18.459 -0.929764 18.4387C-2.50393 17.0634 -3.47806 14.9498 -3.38882 12.613C-3.25589 9.15048 -0.840517 6.36543 2.24516 5.84413C2.20149 6.24576 2.1749 6.65144 2.173 7.0551C2.15211 11.8503 5.70681 15.7896 10.1559 15.9843C10.2584 15.9883 10.3591 15.9904 10.4616 15.9924C14.2138 16.0107 17.2805 12.7652 17.2976 8.75696C17.3109 5.46684 14.8195 2.78119 11.7377 2.76293C11.3465 2.76293 11.0256 3.09965 11.0237 3.51751C11.0237 3.9374 11.337 4.27615 11.7301 4.2802C14.0296 4.29034 15.8867 6.29647 15.8753 8.74885C15.862 11.9193 13.4353 14.4873 10.4673 14.4731C6.66005 14.4569 3.57438 11.1302 3.59146 7.06119C3.59146 6.64536 3.61995 6.2275 3.67311 5.81776C3.67881 5.77719 3.67691 5.73865 3.67691 5.70011C4.58078 1.14424 8.4469 -2.18848 12.9472 -1.99172C17.3488 -1.79902 20.8921 1.70409 21.5606 6.17882C22.0049 6.0632 22.4682 6.00843 22.9467 6.02872C25.7153 6.15042 27.8686 8.6454 27.7547 11.6029C27.7224 12.4548 27.5002 13.2499 27.1414 13.9498C28.3073 14.7571 29.0573 16.177 28.9966 17.7652C28.9054 20.1568 27.016 22.0169 24.7754 21.9195C24.4677 21.9053 24.1696 21.8525 23.8848 21.7694C23.5999 21.6903 23.3189 21.5787 23.0512 21.4387C21.3764 20.5645 20.6814 18.3961 21.4998 16.607C21.9441 15.6374 22.8822 15.035 23.8924 15.0735C24.2835 15.0877 24.614 14.7611 24.6272 14.3412C24.6405 13.9234 24.3424 13.5765 23.9417 13.5562C22.3733 13.4974 20.913 14.4325 20.2237 15.9397C19.5439 17.4224 19.6028 19.0878 20.2389 20.4651C19.4015 24.8749 15.6987 28.1184 11.3674 27.9967C9.26151 27.7817 7.29048 27.1021 5.53971 26.0616C5.07449 25.7979 4.58648 25.5747 4.08517 25.3841C2.6781 24.7187 1.13432 24.3171 -0.494923 24.2461C-3.70972 24.1061 -6.69286 25.2664 -9 27.2867V27.2888Z" fill="white" fill-opacity="0.2"/>
</g>
<defs>
<linearGradient id="paint0_linear_180_1585" x1="40" y1="0" x2="40" y2="55" gradientUnits="userSpaceOnUse">
<stop stop-color="#FF8686"/>
<stop offset="1" stop-color="#E61434"/>
</linearGradient>
<clipPath id="clip0_180_1585">
<rect width="80" height="55" fill="white"/>
</clipPath>
</defs>
</svg>
