<?xml version="1.0" standalone="no"?>
<!DOCTYPE svg PUBLIC "-//W3C//DTD SVG 1.1//EN" "http://www.w3.org/Graphics/SVG/1.1/DTD/svg11.dtd" >
<svg xmlns="http://www.w3.org/2000/svg" xmlns:xlink="http://www.w3.org/1999/xlink" version="1.1">
<metadata>
Created by FontForge 20201107 at Wed Jan 31 09:55:17 2024
 By 
</metadata>
<defs>
<font id="KoreanSWGI3-R" horiz-adv-x="2048" >
  <font-face 
    font-family="KoreanSWGI3-R"
    font-weight="500"
    font-stretch="normal"
    units-per-em="2048"
    panose-1="2 0 6 3 0 0 0 0 0 0"
    ascent="1638"
    descent="-410"
    x-height="1085"
    cap-height="1417"
    bbox="-356 -578 2099 1708"
    underline-thickness="102"
    underline-position="-204"
    unicode-range="U+0020-FFE6"
  />
<missing-glyph 
 />
    <glyph glyph-name=".notdef" 
 />
    <glyph glyph-name=".null" horiz-adv-x="0" 
 />
    <glyph glyph-name="nonmarkingreturn" horiz-adv-x="682" 
 />
    <glyph glyph-name="space" unicode=" " horiz-adv-x="614" 
 />
    <glyph glyph-name="exclam" unicode="!" horiz-adv-x="684" 
d="M522 1501l-37 -1249h-286l-35 1249h358zM518 90v-338h-348v338h348z" />
    <glyph glyph-name="quotedbl" unicode="&#x22;" horiz-adv-x="782" 
d="M326 1051h-185l-43 587h269zM633 1051h-184l-35 587h270z" />
    <glyph glyph-name="numbersign" unicode="#" horiz-adv-x="1417" 
d="M1288 279h-274l-84 -476h-291l88 476h-199l-86 -476h-290l88 476h-240l39 233h242l67 362h-260l39 232h266l66 369h286l-65 -369h201l63 369h289l-68 -369h250l-39 -232h-252l-65 -362h268zM637 874l-66 -362h199l66 362h-199z" />
    <glyph glyph-name="dollar" unicode="$" horiz-adv-x="1249" 
d="M743 1632v-200q180 -34 294.5 -155t111.5 -312h-283q-12 152 -123 215v-428q118 -42 195 -82t136.5 -93.5t86.5 -122t27 -159.5q0 -124 -63.5 -222.5t-162.5 -155t-219 -75.5v-192h-233v196q-195 37 -321.5 175.5t-125.5 349.5h287q3 -97 45 -170t115 -107v461
q-111 39 -188 79.5t-135 95t-85.5 125.5t-27.5 163q0 182 122.5 289.5t313.5 130.5v194h233zM889 293q0 60 -35 103t-111 79v-389q68 27 107 84t39 123zM377 1028q0 -64 31.5 -108t101.5 -80v358q-61 -19 -97 -63t-36 -107z" />
    <glyph glyph-name="percent" unicode="%" horiz-adv-x="1583" 
d="M381 1487q161 0 250.5 -125t89.5 -348q0 -226 -89.5 -350.5t-250.5 -124.5t-250.5 124.5t-89.5 350.5q0 223 89.5 348t250.5 125zM379 1249q-46 0 -71 -63.5t-25 -173.5q0 -114 24.5 -176t71.5 -62q46 0 73 63t27 175q0 108 -27 172.5t-73 64.5zM1200 717
q161 0 250.5 -125.5t89.5 -349.5q0 -223 -89.5 -348t-250.5 -125t-250.5 125t-89.5 348q0 224 89.5 349.5t250.5 125.5zM1198 477q-46 0 -71 -63.5t-25 -173.5q0 -112 24.5 -174t71.5 -62t73.5 62.5t26.5 173.5q0 108 -26.5 172.5t-73.5 64.5zM539 -209h-281l793 1677h276z
" />
    <glyph glyph-name="ampersand" unicode="&#x26;" horiz-adv-x="1519" 
d="M774 727l270 -328q32 70 52 169t20 184h285q0 -148 -49.5 -311.5t-114.5 -250.5l297 -356h-360l-113 137q-86 -85 -202 -134t-226 -54q-116 -5 -216 22.5t-175.5 83.5t-118 147.5t-41.5 207.5q2 137 76 273.5t219 246.5q-162 203 -172 346q-7 83 24 156.5t88 123.5
t134 78.5t161 28.5q185 0 299.5 -106.5t106.5 -257.5q-6 -103 -75 -210t-169 -196zM375 236q0 -101 68 -154t165 -53q71 0 146 38.5t135 110.5l-340 389q-174 -148 -174 -331zM492 1118q6 -54 32.5 -101t77.5 -106q64 55 93 105.5t34 109.5q5 57 -23.5 100.5t-93.5 43.5
q-60 0 -93 -46t-27 -106z" />
    <glyph glyph-name="quotesingle" unicode="'" horiz-adv-x="534" 
d="M365 1051h-220l-28 587h303z" />
    <glyph glyph-name="parenleft" unicode="(" horiz-adv-x="702" 
d="M127 608q0 131 26 288t93.5 345t165.5 326h237q-86 -143 -141.5 -278t-80 -259t-32.5 -216t-8 -206q0 -116 8 -211t32.5 -224t80 -267.5t141.5 -280.5h-237q-76 105 -133.5 239.5t-89.5 268t-47 253t-15 222.5z" />
    <glyph glyph-name="parenright" unicode=")" horiz-adv-x="702" 
d="M573 608q0 -143 -25 -304t-92 -351.5t-167 -327.5h-236q69 115 118.5 232t76 211t41.5 199.5t18.5 177t3.5 163.5q0 91 -3.5 161t-18.5 171t-41.5 192t-76 205.5t-118.5 229.5h238q98 -138 164.5 -326t92 -344.5t25.5 -288.5z" />
    <glyph glyph-name="asterisk" unicode="*" horiz-adv-x="1046" 
d="M702 1090l254 -281l-217 -158l-215 305l-219 -309l-219 168l264 270l-327 93l90 256l299 -140l-25 326h283l-27 -324l283 134l94 -244z" />
    <glyph glyph-name="plus" unicode="+" horiz-adv-x="1046" 
d="M676 1118v-338h297v-250h-297v-352h-309v352h-299v250h299v338h309z" />
    <glyph glyph-name="comma" unicode="," horiz-adv-x="555" 
d="M422 158v-166q0 -112 -61 -239.5t-130 -180.5l-112 43q51 49 87 133t38 137h-146v273h324z" />
    <glyph glyph-name="hyphen" unicode="-" horiz-adv-x="1046" 
d="M133 522v264h776v-264h-776z" />
    <glyph glyph-name="period" unicode="." horiz-adv-x="555" 
d="M442 72v-330h-331v330h331z" />
    <glyph glyph-name="slash" unicode="/" horiz-adv-x="1046" 
d="M336 -229h-305l680 1736h301z" />
    <glyph glyph-name="zero" unicode="0" horiz-adv-x="1218" 
d="M1143 633q0 -862 -539 -862q-264 0 -396 209.5t-132 652.5q0 442 132.5 652t395.5 210q539 0 539 -862zM393 633q0 -302 47 -450t164 -148q62 0 105 39t67.5 118.5t35.5 186t11 254.5t-11 254t-35.5 184.5t-67.5 117t-105 38.5q-61 0 -102 -38.5t-65 -117.5t-34 -184.5
t-10 -253.5z" />
    <glyph glyph-name="one" unicode="1" horiz-adv-x="1003" 
d="M702 1473v-1668h-323v1399h-281v221z" />
    <glyph glyph-name="two" unicode="2" horiz-adv-x="1259" 
d="M1182 68v-263h-1073v220l493 567q229 260 229 424q0 111 -53 166t-164 55q-104 0 -161 -85t-62 -218h-323q0 264 149 418.5t399 154.5q259 0 401 -125t142 -350q0 -51 -8.5 -100t-21 -88.5t-35.5 -83.5t-42 -74.5t-51.5 -72t-53.5 -66t-57.5 -67t-55.5 -64.5l-295 -348
h643z" />
    <glyph glyph-name="three" unicode="3" horiz-adv-x="1286" 
d="M487 547v237q152 -13 260.5 58t108.5 182q0 112 -55.5 164.5t-167.5 52.5q-99 0 -160 -68t-67 -196h-312q6 246 156 387t393 141q231 0 375.5 -117.5t144.5 -316.5q0 -108 -44 -211t-136 -166q234 -121 234 -422q0 -228 -160 -370t-420 -142q-253 0 -406 143.5
t-159 397.5h325q9 -268 246 -268q112 0 181 67.5t69 194.5q0 72 -35 124.5t-95 80t-129 39t-147 8.5z" />
    <glyph glyph-name="four" unicode="4" horiz-adv-x="1343" 
d="M66 324l690 1146h334v-1101h184v-263h-184v-303h-312v303h-712v218zM422 365h356v610z" />
    <glyph glyph-name="five" unicode="5" horiz-adv-x="1253" 
d="M389 541h-287l101 927h911v-258h-620l-43 -338q112 77 303 56q188 -21 300.5 -171.5t112.5 -406.5q0 -125 -38.5 -232.5t-109.5 -186.5t-179 -124t-240 -45q-143 0 -261.5 56.5t-192 169.5t-72.5 262h313q9 -215 217 -215q123 0 183.5 81t60.5 228q0 158 -60 245t-184 87
q-86 0 -135.5 -34t-79.5 -101z" />
    <glyph glyph-name="six" unicode="6" horiz-adv-x="1255" 
d="M1151 1063h-307q-9 83 -56.5 127.5t-119.5 44.5q-229 0 -256 -418q117 109 315 109q199 -2 332 -163.5t133 -408.5q0 -165 -64.5 -299.5t-186.5 -214.5t-279 -80q-286 0 -432 195t-146 620q0 247 38.5 424.5t116 288t187.5 162t258 51.5q190 0 315.5 -116.5t151.5 -321.5
zM651 27q115 0 176.5 81.5t61.5 231.5q0 161 -62 242.5t-178 81.5q-117 0 -182.5 -84.5t-65.5 -235.5q0 -136 66.5 -226.5t183.5 -90.5z" />
    <glyph glyph-name="seven" unicode="7" horiz-adv-x="1202" 
d="M63 1206v264h1072v-210q-64 -71 -127 -171t-125 -240t-110.5 -297t-80.5 -352.5t-37 -396.5h-336q5 224 46.5 439.5t108.5 392.5t137 314t151 257h-699z" />
    <glyph glyph-name="eight" unicode="8" horiz-adv-x="1300" 
d="M1161 1077q0 -101 -47 -201.5t-135 -166.5q114 -63 188 -176.5t74 -237.5q0 -241 -157.5 -389t-438.5 -148q-138 0 -250 40.5t-184 112t-111 166t-39 204.5q0 133 73.5 246.5t201.5 185.5q-95 63 -145 158.5t-50 193.5q0 200 133 320t375 120q232 0 372 -120t140 -308z
M651 16q125 0 198 73t73 196q0 113 -74.5 183.5t-196.5 70.5t-194 -68.5t-72 -185.5q0 -124 71 -196.5t195 -72.5zM651 842q96 0 155.5 59t59.5 152q0 96 -59 153.5t-156 57.5q-96 0 -155.5 -57.5t-59.5 -153.5q0 -93 60 -152t155 -59z" />
    <glyph glyph-name="nine" unicode="9" horiz-adv-x="1255" 
d="M104 199h308q11 -84 59 -128t129 -44q235 0 250 393q-116 -113 -328 -103q-200 11 -329.5 172t-129.5 408q0 263 146.5 433.5t384.5 170.5q143 0 248 -42.5t180.5 -135.5t113.5 -246.5t38 -369.5q0 -487 -145.5 -716t-446.5 -231q-186 -2 -318.5 115.5t-159.5 323.5z
M604 1235q-112 0 -175.5 -85.5t-63.5 -236.5q0 -161 62.5 -247t176.5 -86q116 0 182 87.5t66 239.5q0 142 -64 235t-184 93z" />
    <glyph glyph-name="colon" unicode=":" horiz-adv-x="657" 
d="M498 401v-340h-342v340h342zM498 1225v-342h-342v342h342z" />
    <glyph glyph-name="semicolon" unicode=";" horiz-adv-x="657" 
d="M492 414v-201q0 -111 -62.5 -241t-130.5 -183l-129 53q51 52 84.5 131.5t36.5 143.5h-137v297h338zM494 1225v-340h-342v340h342z" />
    <glyph glyph-name="less" unicode="&#x3c;" horiz-adv-x="884" 
d="M817 1145l-500 -508l500 -543v-375l-792 850v113l792 838v-375z" />
    <glyph glyph-name="equal" unicode="=" horiz-adv-x="1046" 
d="M113 756v250h817v-250h-817zM113 301v250h817v-250h-817z" />
    <glyph glyph-name="greater" unicode="&#x3e;" horiz-adv-x="884" 
d="M565 637l-499 508v375l792 -838v-113l-792 -850v375z" />
    <glyph glyph-name="question" unicode="?" horiz-adv-x="1175" 
d="M729 233h-317q0 105 6 191q5 67 20.5 118.5t46.5 95.5t63.5 76t88.5 79q69 59 106 124.5t37 151.5q0 105 -52 152t-138 47q-107 0 -160 -69.5t-59 -209.5h-308q-3 130 37 234.5t113 172t170.5 103t212.5 35.5q228 0 364 -114.5t136 -323.5q0 -274 -232 -473
q-74 -63 -101.5 -109t-31.5 -119q-2 -49 -2 -162zM745 90v-338h-348v338h348z" />
    <glyph glyph-name="at" unicode="@" horiz-adv-x="1656" 
d="M1583 793q0 -126 -39 -258t-108 -230h184q-69 -118 -151 -210t-162.5 -150t-168.5 -96t-167 -53t-160 -15q-358 0 -565 189.5t-207 541.5q0 138 39.5 272.5t115.5 249.5t178 203t236.5 138t282.5 50q317 0 504.5 -174t187.5 -458zM1038 1012l9 26h210q-58 79 -152 124.5
t-208 45.5q-104 0 -199 -38t-168.5 -105.5t-127.5 -155.5t-82.5 -192t-28.5 -211q0 -502 520 -502q212 0 377 129q-88 -25 -169 -6t-118 80q-90 -83 -227 -88q-160 -6 -234.5 84.5t-74.5 257.5q0 153 67 291.5t183 223.5t249 85q104 0 174 -49zM612 451q0 -47 19.5 -76
t60.5 -29q58 0 115.5 75.5t91 172.5t33.5 168q0 76 -60 76q-108 0 -184 -114.5t-76 -272.5zM1335 797q0 111 -51 202l-186 -583q0 -2 -2 -8t-2.5 -9t-2 -9t-2 -9.5t-0.5 -8.5t0.5 -8t2 -6.5t4 -5t6.5 -2.5q92 -15 162.5 115t70.5 332z" />
    <glyph glyph-name="A" unicode="A" horiz-adv-x="1523" 
d="M1169 -197l-118 371h-578l-121 -371h-338l590 1667h314l591 -1667h-340zM965 434l-203 619l-207 -619h410z" />
    <glyph glyph-name="B" unicode="B" horiz-adv-x="1419" 
d="M102 -197v1667h682q96 0 180 -25t149 -73t102.5 -125.5t37.5 -175.5q0 -94 -37 -185t-116 -153q128 -60 194 -170.5t66 -245.5q0 -98 -33 -188.5t-95 -164t-164 -117.5t-228 -44h-738zM424 63h346q142 0 209.5 75.5t67.5 205.5q0 68 -29.5 115.5t-85.5 73t-122.5 36.5
t-154.5 11h-231v-517zM424 842h311q95 0 149 50.5t54 147.5q0 53 -17.5 88t-52 51.5t-71 22.5t-88.5 6h-285v-366z" />
    <glyph glyph-name="C" unicode="C" horiz-adv-x="1386" 
d="M1024 307h311q-11 -161 -95.5 -285t-217.5 -189.5t-293 -65.5q-209 0 -360 107t-228.5 300.5t-77.5 452.5q0 418 164 647t484 229q173 0 308.5 -67.5t214 -192t85.5 -287.5h-311q-32 281 -291 281q-148 0 -241 -155t-93 -457q0 -149 27.5 -264.5t76 -186t110 -106
t132.5 -35.5q119 0 201 72t94 202z" />
    <glyph glyph-name="D" unicode="D" horiz-adv-x="1394" 
d="M102 1470h398q194 0 343.5 -45.5t259 -140.5t167 -249.5t57.5 -364.5q0 -410 -210.5 -638.5t-577.5 -228.5h-437v1667zM424 1208v-1145h143q219 0 333 162t114 443q0 126 -24 219.5t-68 154.5t-114 98.5t-153 52.5t-194 15h-37z" />
    <glyph glyph-name="E" unicode="E" horiz-adv-x="1271" 
d="M102 -197v1667h1051v-262h-723v-399h707v-264h-707v-482h744v-260h-1072z" />
    <glyph glyph-name="F" unicode="F" horiz-adv-x="1241" 
d="M102 -197v1667h1053v-262h-725v-422h709v-264h-709v-719h-328z" />
    <glyph glyph-name="G" unicode="G" horiz-adv-x="1474" 
d="M1364 729v-553q-60 -193 -229.5 -304t-397.5 -108q-116 1 -216.5 34t-185.5 102.5t-145 172t-93.5 250t-33.5 328.5q0 217 50 382.5t141.5 267t212 152t268.5 50.5q273 0 445 -146t172 -384h-312q-15 132 -89.5 201t-205.5 69q-74 1 -138.5 -36t-115 -109t-79.5 -189
t-29 -266q0 -284 97.5 -449t277.5 -165q118 0 192 48.5t99 127.5v262h-340v262h655z" />
    <glyph glyph-name="H" unicode="H" horiz-adv-x="1392" 
d="M1268 1470v-1667h-326v742h-514v-742h-326v1667h326v-661h514v661h326z" />
    <glyph glyph-name="I" unicode="I" horiz-adv-x="661" 
d="M494 1470v-1667h-330v1667h330z" />
    <glyph glyph-name="J" unicode="J" horiz-adv-x="1167" 
d="M981 1470v-1173q0 -127 -31 -230.5t-92.5 -180t-161.5 -118.5t-231 -42q-75 0 -144.5 19.5t-131.5 61.5t-108 102.5t-72.5 148t-26.5 192.5h323q6 -121 50.5 -181.5t117.5 -60.5q90 0 136 69.5t46 219.5v1173h326z" />
    <glyph glyph-name="K" unicode="K" horiz-adv-x="1398" 
d="M424 1470v-639l553 639h399l-614 -696l639 -971h-369l-487 729l-121 -137v-592h-322v1667h322z" />
    <glyph glyph-name="L" unicode="L" horiz-adv-x="1239" 
d="M102 -197v1667h332v-1402h746v-265h-1078z" />
    <glyph glyph-name="M" unicode="M" horiz-adv-x="1687" 
d="M1583 -197h-311v861l-342 -842h-176l-338 840v-859h-314v1667h279l463 -1204l459 1204h280v-1667z" />
    <glyph glyph-name="N" unicode="N" horiz-adv-x="1417" 
d="M1313 -197h-285l-606 1076v-1076h-320v1667h285l608 -1077v1077h318v-1667z" />
    <glyph glyph-name="O" unicode="O" horiz-adv-x="1357" 
d="M1294 635q0 -868 -622 -868q-302 0 -455.5 210.5t-153.5 657.5t153.5 657.5t455.5 210.5q622 0 622 -868zM381 635q0 -136 12.5 -237.5t43 -190t90.5 -135.5t147 -47q61 0 109 21.5t80 63.5t54 95t34 125t17 144t5 161q0 107 -7 191t-26.5 165.5t-52 135t-86.5 86
t-127 32.5q-71 0 -123.5 -32.5t-84.5 -86.5t-51.5 -134.5t-26.5 -165.5t-7 -191z" />
    <glyph glyph-name="P" unicode="P" horiz-adv-x="1335" 
d="M102 -197v1667h609q117 0 218.5 -36.5t180 -107.5t123.5 -184.5t45 -258.5q0 -144 -48 -264t-130 -197t-187 -119.5t-221 -42.5h-264v-457h-326zM649 1208h-223v-684h217q145 0 233.5 94t88.5 265q0 163 -84.5 244t-231.5 81z" />
    <glyph glyph-name="Q" unicode="Q" horiz-adv-x="1423" 
d="M1294 635q0 -345 -96 -551l223 -199l-192 -200l-207 182q-140 -98 -350 -98q-302 0 -455.5 210t-153.5 656q0 447 153.5 657.5t455.5 210.5q622 0 622 -868zM381 635q0 -106 7 -191t26.5 -165.5t51.5 -134.5t84.5 -86.5t123.5 -32.5q73 0 127 32.5t86.5 86t52 135
t26.5 165.5t7 191q0 89 -5 161t-17 144t-34 125t-54 95t-80 63.5t-109 21.5q-87 0 -147 -47t-90.5 -135.5t-43 -190t-12.5 -237.5z" />
    <glyph glyph-name="R" unicode="R" horiz-adv-x="1386" 
d="M102 -197v1667h674q235 0 374.5 -123t139.5 -343q0 -120 -60 -233.5t-163 -176.5q92 -59 126 -128t44 -183q28 -311 109 -480h-326q-47 119 -88 424q-8 63 -23.5 105t-46.5 72.5t-80.5 44.5t-122.5 14h-231v-660h-326zM702 1208h-278v-481h270q137 0 206 72.5t69 193.5
q0 215 -267 215z" />
    <glyph glyph-name="S" unicode="S" horiz-adv-x="1298" 
d="M918 256q0 90 -64 146.5t-227 107.5q-149 46 -247.5 91.5t-172.5 108.5t-107.5 145.5t-33.5 193.5q0 116 46 206t125.5 145t180.5 83t217 28q119 0 224 -33.5t187 -97.5t129 -167t46 -232h-314q-8 127 -80 201.5t-196 74.5q-117 0 -177.5 -56.5t-60.5 -147.5
q0 -84 68 -149t233 -116q152 -47 250 -92.5t169.5 -107t102.5 -142t31 -190.5q0 -119 -50 -216.5t-134 -158.5t-190 -93t-222 -30q-121 2 -229 43t-191 114.5t-131 185.5t-47 247h318q5 -149 78.5 -238t209.5 -92q125 -1 192 68t67 170z" />
    <glyph glyph-name="T" unicode="T" horiz-adv-x="1359" 
d="M1311 1470v-266h-465v-1401h-328v1401h-471v266h1264z" />
    <glyph glyph-name="U" unicode="U" horiz-adv-x="1351" 
d="M922 412v1058h325v-1097q0 -282 -150 -444t-425 -162q-274 0 -422 162.5t-148 445.5v1095h326v-1058q0 -93 11.5 -160.5t39 -118.5t75.5 -76.5t118 -25.5q135 0 192.5 98t57.5 283z" />
    <glyph glyph-name="V" unicode="V" horiz-adv-x="1417" 
d="M860 -197h-305l-537 1667h344l345 -1171l348 1171h344z" />
    <glyph glyph-name="W" unicode="W" horiz-adv-x="1703" 
d="M971 1466l192 -1046l197 1050h326l-349 -1667h-252l-235 922l-236 -922h-249l-349 1667h326l197 -1046l192 1042h240z" />
    <glyph glyph-name="X" unicode="X" horiz-adv-x="1323" 
d="M356 -197h-344l473 828l-485 839h354l305 -563l308 563h352l-483 -841l475 -826h-346l-306 549z" />
    <glyph glyph-name="Y" unicode="Y" horiz-adv-x="1437" 
d="M557 291l-551 1179h346l365 -854l364 854h349l-551 -1181v-486h-322v488z" />
    <glyph glyph-name="Z" unicode="Z" horiz-adv-x="1249" 
d="M1182 1251l-740 -1188h760v-260h-1147v207l742 1198h-711v262h1096v-219z" />
    <glyph glyph-name="bracketleft" unicode="[" horiz-adv-x="739" 
d="M166 -373v1938h518v-211h-248v-1516h248v-211h-518z" />
    <glyph glyph-name="backslash" unicode="\" horiz-adv-x="1046" 
d="M1014 -236h-301l-684 1749h299z" />
    <glyph glyph-name="bracketright" unicode="]" horiz-adv-x="739" 
d="M571 1565v-1938h-518v211h248v1516h-248v211h518z" />
    <glyph glyph-name="asciicircum" unicode="^" horiz-adv-x="1048" 
d="M625 1638l387 -819h-303l-187 447l-186 -447h-301l383 819h207z" />
    <glyph glyph-name="underscore" unicode="_" horiz-adv-x="1064" 
d="M965 78v-262h-867v262h867z" />
    <glyph glyph-name="grave" unicode="`" horiz-adv-x="534" 
d="M360 1638l142 -587h-207l-258 587h323z" />
    <glyph glyph-name="a" unicode="a" horiz-adv-x="1196" 
d="M1094 -195h-275l-12 74q-121 -113 -348 -110q-97 1 -173.5 31t-124.5 81t-73 116.5t-25 139.5q0 71 13.5 129.5t36.5 102t60.5 79t79 60t98.5 44.5t112 33t127 25q125 23 160.5 55t29.5 109q-5 56 -51.5 85.5t-130.5 25.5q-98 -6 -153 -58t-64 -145h-301q7 93 43 174
t99.5 145t162 101t221.5 37q253 0 370.5 -123.5t117.5 -368.5v-842zM793 309v121q-57 -43 -203 -70q-124 -25 -173.5 -72.5t-49.5 -121.5q0 -143 153 -143q135 0 204 74.5t69 211.5z" />
    <glyph glyph-name="b" unicode="b" horiz-adv-x="1236" 
d="M621 -231q-139 16 -230 104l-12 -70h-279v1686h324v-502q89 91 235 103q152 12 269 -66.5t180 -232.5t63 -359q0 -211 -73.5 -369.5t-198.5 -235t-278 -58.5zM643 825q-106 0 -166.5 -100.5t-60.5 -296.5q0 -190 60.5 -293.5t160.5 -103.5q112 0 167.5 97t55.5 302
q0 203 -54 299t-163 96z" />
    <glyph glyph-name="c" unicode="c" horiz-adv-x="1171" 
d="M623 27q83 0 131 52t59 146h297q-1 -106 -45 -195t-114.5 -146t-158 -88.5t-180.5 -31.5q-259 0 -402.5 180.5t-143.5 483.5q0 158 32.5 285.5t98 221t170 144.5t241.5 51q136 0 248.5 -58.5t181 -171.5t68.5 -259h-293q-6 103 -57 165t-138 62q-64 0 -111.5 -34.5
t-74.5 -96.5t-40 -139t-13 -170q0 -195 57 -298t187 -103z" />
    <glyph glyph-name="d" unicode="d" horiz-adv-x="1234" 
d="M610 -231q-247 -17 -397 162.5t-150 500.5q0 314 145.5 490.5t381.5 164.5q55 -2 119 -26.5t102 -67.5v496h324v-1686h-279l-8 64q-37 -42 -104 -67.5t-134 -30.5zM594 825q-109 0 -163 -96t-54 -299q0 -205 55.5 -302t167.5 -97q99 0 160 104t61 293q0 196 -60.5 296.5
t-166.5 100.5z" />
    <glyph glyph-name="e" unicode="e" horiz-adv-x="1181" 
d="M377 522h438q-4 185 -64 270t-157 85q-92 0 -150 -88.5t-67 -266.5zM1118 270h-723q3 -112 58 -181t168 -69q77 0 128 39.5t68 114.5h295q-37 -189 -167.5 -295t-311.5 -112q-266 0 -416.5 169t-150.5 498q0 341 139 518.5t397 177.5q134 0 234 -55.5t161.5 -161t91 -250
t29.5 -329.5v-64z" />
    <glyph glyph-name="f" unicode="f" horiz-adv-x="968" 
d="M920 1061v-266h-318v-992h-323v992h-250v266h250v186q0 158 78 237.5t218 84.5q186 9 367 -62l-55 -233q-111 49 -193 45q-49 -2 -70.5 -29.5t-21.5 -97.5v-131h318z" />
    <glyph glyph-name="g" unicode="g" horiz-adv-x="1234" 
d="M1133 1112v-1018q0 -114 -27 -206.5t-83.5 -164.5t-151 -112t-220.5 -41q-267 0 -471 74l43 264q151 -55 238 -73t178 -9q101 9 144.5 62.5t45.5 170.5q-51 -39 -113 -55t-161 -16q-100 0 -187.5 36t-156.5 106t-108.5 182.5t-39.5 254.5q0 133 39.5 244t107.5 186
t160.5 116.5t198.5 41.5q73 0 150 -23t131 -73v53h283zM606 897q-102 0 -167.5 -84t-65.5 -240t58.5 -244.5t156.5 -88.5q111 0 171 89.5t60 258.5q0 151 -58 230t-155 79z" />
    <glyph glyph-name="h" unicode="h" horiz-adv-x="1245" 
d="M100 -197v1686h324v-504q56 58 128 87t140 34q137 8 240 -47.5t157 -158t54 -236.5v-861h-322v797q0 115 -50 170t-138 53q-90 0 -149.5 -72t-59.5 -167v-781h-324z" />
    <glyph glyph-name="i" unicode="i" horiz-adv-x="653" 
d="M489 1020v-1217h-327v1217h327zM508 1505v-342h-365v342h365z" />
    <glyph glyph-name="j" unicode="j" horiz-adv-x="681" 
d="M193 1022h325v-1051q0 -204 -124 -302.5t-337 -98.5q-73 0 -125 6v242q44 -6 121 -2q75 5 107.5 39t32.5 114v1053zM537 1507v-342h-365v342h365z" />
    <glyph glyph-name="k" unicode="k" horiz-adv-x="1257" 
d="M424 1489v-836l430 449h416l-553 -563l540 -736h-370l-381 531l-82 -80v-451h-324v1686h324z" />
    <glyph glyph-name="l" unicode="l" horiz-adv-x="636" 
d="M483 1489v-1686h-329v1686h329z" />
    <glyph glyph-name="m" unicode="m" horiz-adv-x="1603" 
d="M645 -197v846q0 107 -32 147t-81 38q-53 -2 -85.5 -58.5t-32.5 -154.5v-818h-316v1282h314v-63q77 74 188 84q82 8 156 -25t112 -94q105 105 236 117q75 7 144 -12t126 -63.5t91 -124t34 -183.5v-918h-309v844q0 191 -113 187q-54 -2 -85 -56.5t-31 -150.5v-824h-316z
" />
    <glyph glyph-name="n" unicode="n" horiz-adv-x="1241" 
d="M100 -197v1282h320v-86q52 45 121 72.5t131 32.5q93 9 177.5 -15t149 -75t102.5 -131.5t38 -177.5v-902h-322v820q0 111 -48.5 160.5t-137.5 47.5q-76 -2 -141.5 -72.5t-65.5 -166.5v-789h-324z" />
    <glyph glyph-name="o" unicode="o" horiz-adv-x="1185" 
d="M588 1130q115 0 206.5 -37t151.5 -99.5t100 -150.5t57 -185.5t17 -208.5q0 -112 -17 -210t-57 -186t-100 -150.5t-151.5 -99t-206.5 -36.5q-114 0 -204 36.5t-149 99t-97.5 150.5t-55 185.5t-16.5 210.5q0 112 16.5 209t55 185t97.5 150.5t149 99.5t204 37zM807 449
q0 88 -10.5 160.5t-34.5 134t-68.5 96t-105.5 34.5q-60 0 -103 -34.5t-66 -96t-33.5 -134t-10.5 -160.5q0 -426 213 -426q61 0 105.5 34t68.5 95.5t34.5 134t10.5 162.5z" />
    <glyph glyph-name="p" unicode="p" horiz-adv-x="1224" 
d="M100 -430v1522h314v-56q94 91 237 99q234 18 371 -155.5t137 -469.5q0 -141 -35.5 -259.5t-100.5 -203.5t-164.5 -128.5t-221.5 -33.5q-127 13 -213 80v-395h-324zM623 877q-98 0 -152.5 -93.5t-54.5 -261.5q0 -191 51 -285t168 -94q211 0 211 373q0 361 -223 361z" />
    <glyph glyph-name="q" unicode="q" horiz-adv-x="1224" 
d="M1122 1092v-1522h-323v393q-83 -70 -213 -78q-162 -11 -282 68t-180.5 223.5t-60.5 333.5q0 292 135.5 459t374.5 166q63 0 127.5 -23.5t110.5 -73.5v54h311zM602 877q-225 0 -225 -361q0 -373 213 -373q116 0 166.5 94t50.5 285q0 167 -54 261t-151 94z" />
    <glyph glyph-name="r" unicode="r" horiz-adv-x="935" 
d="M121 -197v1282h328v-122q83 86 203 129.5t239 35.5v-268q-101 6 -204 -43t-170.5 -134t-67.5 -175v-705h-328z" />
    <glyph glyph-name="s" unicode="s" horiz-adv-x="1128" 
d="M754 152q0 62 -50.5 99t-189.5 68q-214 50 -324 146.5t-110 261.5q0 105 40.5 186t110 128.5t153.5 71.5t179 24q97 0 184 -28t156 -82t111 -141.5t45 -197.5h-309q-3 88 -51 140.5t-132 52.5q-82 0 -124 -34t-42 -97q0 -64 46 -103t184 -72q110 -27 188.5 -60.5
t137.5 -81.5t87.5 -113.5t28.5 -151.5q0 -87 -29.5 -157.5t-78.5 -117t-115.5 -78t-138 -45.5t-148.5 -14q-98 0 -186.5 31t-158.5 89t-115 148.5t-52 202.5h311q9 -107 62.5 -162t146.5 -55q95 0 139 38t44 104z" />
    <glyph glyph-name="t" unicode="t" horiz-adv-x="968" 
d="M596 821v-717q0 -63 24 -83.5t82 -20.5q98 0 195 25v-240q-110 -32 -291 -37q-334 -9 -334 328v745h-241v262h241v414h324v-414h317v-262h-317z" />
    <glyph glyph-name="u" unicode="u" horiz-adv-x="1208" 
d="M100 238v847h324v-813q0 -124 41.5 -178.5t130.5 -48.5q78 5 133 71t55 167v802h322v-1282h-293v80q-62 -58 -143 -84t-156 -24q-191 3 -302.5 131t-111.5 332z" />
    <glyph glyph-name="v" unicode="v" horiz-adv-x="1226" 
d="M743 -197h-258l-477 1282h342l262 -815l267 815h340z" />
    <glyph glyph-name="w" unicode="w" horiz-adv-x="1488" 
d="M551 -197h-223l-318 1282h324l153 -725l154 711h207l153 -715l154 729h324l-320 -1282h-221l-195 660z" />
    <glyph glyph-name="x" unicode="x" horiz-adv-x="1181" 
d="M373 -197h-361l400 641l-406 641h363l221 -385l221 385h365l-408 -643l397 -639h-348l-229 381z" />
    <glyph glyph-name="y" unicode="y" horiz-adv-x="1224" 
d="M356 1085l246 -755l277 755h340l-465 -1134q-33 -80 -63 -136t-70 -104t-87.5 -76.5t-111 -44.5t-143.5 -16h-203v246h145q92 0 134.5 29t72.5 90l8 18l-420 1128h340z" />
    <glyph glyph-name="z" unicode="z" horiz-adv-x="1083" 
d="M1022 874l-580 -806h596v-263h-985v218l576 806h-553v258h946v-213z" />
    <glyph glyph-name="braceleft" unicode="{" horiz-adv-x="784" 
d="M467 1151v-193q0 -48 -3 -77.5t-15.5 -67.5t-40.5 -73t-74 -72q33 -23 57 -47t38.5 -54t22.5 -50t11 -59.5t3.5 -56t0.5 -63.5v-297q0 -75 53 -128.5t129 -53.5h96v-234h-94q-219 0 -327.5 118t-108.5 343v156q0 122 -3 145q-11 103 -85 141q-40 21 -104 27v227
q41 5 71.5 14.5t51 20t34 31t20.5 35t10.5 46.5t4 50.5t0.5 60.5v15v96q0 202 119.5 310t343.5 108h67v-234h-92q-88 0 -137 -45t-49 -139z" />
    <glyph glyph-name="bar" unicode="|" horiz-adv-x="557" 
d="M422 1530v-1782h-289v1782h289z" />
    <glyph glyph-name="braceright" unicode="}" horiz-adv-x="784" 
d="M317 958v193q0 94 -49 139t-137 45h-92v234h67q224 0 343.5 -108t119.5 -310v-96v-13q0 -41 0.5 -60.5t4 -51t10.5 -47t21 -36t34.5 -31t51 -20t71.5 -14.5v-227q-48 -4 -82.5 -17t-55 -32.5t-33.5 -44.5t-16.5 -54t-5.5 -62t0 -67v-36v-156q0 -225 -108.5 -343
t-327.5 -118h-94v234h96q76 0 129 53.5t53 128.5v297q0 45 0.5 63.5t3.5 56.5t11.5 59t23 50.5t38.5 53.5t57 47q-87 70 -110.5 132.5t-23.5 157.5z" />
    <glyph glyph-name="asciitilde" unicode="~" horiz-adv-x="1046" 
d="M821 901l203 -123q-118 -295 -336 -295q-46 0 -98.5 24.5t-128.5 70.5q-48 28 -99 28q-40 0 -75.5 -38t-73.5 -113l-193 114q49 131 130 207t172 84q107 9 213 -67q3 -2 15 -10.5t15.5 -11t13.5 -9.5t14.5 -9t13 -7t14 -6.5t13 -4t14.5 -3.5t14 -1q87 0 159 170z" />
    <glyph glyph-name="uni20A9" unicode="&#x20a9;" 
d="M113 750v241h176l-101 479h326l84 -479h215l90 475h240l88 -475h217l84 479h326l-101 -479h178v-241h-229l-197 -947h-252l-231 947h-8l-232 -947h-249l-199 947h-225zM1278 750l65 -351l62 351h-127zM641 750l61 -347l66 347h-127z" />
    <glyph glyph-name="uni2010" unicode="&#x2010;" 
d="M434 522v264h1180v-264h-1180z" />
    <glyph glyph-name="copyright" unicode="&#xa9;" 
d="M1044 332q68 0 108 44.5t50 115.5h268q-3 -114 -67.5 -202t-160.5 -131.5t-204 -43.5q-228 0 -355.5 144t-127.5 376q0 160 50 281.5t159.5 194.5t267.5 73q120 0 217.5 -47.5t156.5 -139.5t60 -213h-264q-5 79 -47 130t-113 51q-52 0 -92.5 -27t-64 -74t-35.5 -104.5
t-12 -124.5q0 -142 50 -222.5t156 -80.5zM1026 -170q-154 0 -287 44.5t-227.5 122t-162 180.5t-100 220.5t-32.5 241.5q0 127 32 247t98.5 225.5t161 184.5t227.5 124.5t290 45.5q155 0 287 -45.5t226 -124.5t160 -184t98 -224.5t32 -246.5q0 -124 -32.5 -241.5t-99.5 -221
t-160.5 -181t-225.5 -122.5t-285 -45zM1026 1286q-150 0 -271.5 -54t-197 -144t-116 -202t-40.5 -233q0 -100 24 -193t75.5 -175.5t124 -144t176 -97t225.5 -35.5q121 0 223.5 36t174.5 97.5t122.5 144t74.5 175.5t24 192q0 121 -39.5 233t-114.5 202t-195.5 144t-269.5 54z
" />
    <glyph glyph-name="Korea1.99" unicode="&#xe4f5;" 
d="M1890 592h-225v401l-143 -389h-142l-143 391v-403h-227v1046h202l240 -665l236 665h202v-1046zM117 1432v206h829v-206h-289v-840h-247v840h-293z" />
    <glyph glyph-name="Korea1.100" unicode="&#xe4f6;" 
d="M1188 72v-330h-332v330h332zM512 72v-330h-332v330h332zM1866 72v-330h-332v330h332z" />
    <glyph glyph-name="uni3164" unicode="&#x3000;" 
 />
    <glyph glyph-name="uni3164" unicode="&#x3164;" 
 />
    <glyph glyph-name="uni3001" unicode="&#x3001;" horiz-adv-x="1024" 
d="M797 86q-61 -40 -119 -91.5t-117.5 -120.5t-95.5 -114t-98 -127l-140 125l8 15q8 15 24 41.5t38 62t53.5 80t67 91t81.5 100t95 102.5z" />
    <glyph glyph-name="uni3002" unicode="&#x3002;" horiz-adv-x="1024" 
d="M512 -367q-72 0 -125.5 34t-77.5 85t-24 110.5t24 110.5t77.5 85t125.5 34t125.5 -34t77.5 -85t24 -110.5t-24 -110.5t-77.5 -85t-125.5 -34zM512 -14q-57 0 -89 -38.5t-32 -84.5t32 -84.5t89 -38.5t89 38.5t32 84.5t-32 84.5t-89 38.5z" />
    <glyph glyph-name="uni30FB" unicode="&#x30fb;" horiz-adv-x="1024" 
d="M678 821v-329h-332v329h332z" />
    <glyph glyph-name="twodotenleader" unicode="&#x2025;" 
d="M676 821v-329h-332v329h332zM1702 821v-329h-332v329h332z" />
    <glyph glyph-name="uni22EF" unicode="&#x2026;" 
d="M1188 821v-329h-332v329h332zM512 821v-329h-332v329h332zM1866 821v-329h-332v329h332z" />
    <glyph glyph-name="uni22EF" unicode="&#x22ef;" 
d="M1188 821v-329h-332v329h332zM512 821v-329h-332v329h332zM1866 821v-329h-332v329h332z" />
    <glyph glyph-name="dieresis" unicode="&#xa8;" 
d="M676 1638v-331h-332v331h332zM1702 1638v-331h-332v331h332z" />
    <glyph glyph-name="uni3003" unicode="&#x3003;" 
d="M1239 1018l225 -158l-370 -512l-152 94zM856 1018l227 -158l-370 -512l-152 94z" />
    <glyph glyph-name="endash" unicode="&#x2013;" 
d="M512 522v264h1024v-264h-1024z" />
    <glyph glyph-name="emdash" unicode="&#x2014;" 
d="M295 522v264h1458v-264h-1458z" />
    <glyph glyph-name="uni2016" unicode="&#x2016;" 
d="M944 1530v-1782h-252v1782h252zM1354 1530v-1782h-252v1782h252z" />
    <glyph glyph-name="uniFF3C" unicode="&#xff3c;" 
d="M1659 -231h-301l-973 1740h299z" />
    <glyph glyph-name="uniFF5E" unicode="&#xff5e;" 
d="M1323 901l203 -123q-118 -295 -336 -295q-46 0 -98.5 24.5t-128.5 70.5q-48 28 -99 28q-40 0 -75.5 -38t-73.5 -113l-193 114q49 131 129.5 207t171.5 84q107 9 213 -67q3 -2 15 -10.5t15.5 -11t13.5 -9.5t14.5 -9t13 -7t14 -6.5t13 -4t14.5 -3.5t14 -1q88 0 160 170z
" />
    <glyph glyph-name="quoteleft" unicode="&#x2018;" horiz-adv-x="1024" 
d="M592 1001v185q0 118 74 268.5t143 204.5l115 -53q-58 -62 -96.5 -151t-39.5 -167h146v-287h-342z" />
    <glyph glyph-name="quoteright" unicode="&#x2019;" horiz-adv-x="1024" 
d="M430 1608v-187q0 -119 -71.5 -269.5t-139.5 -201.5l-115 54q56 61 93.5 148.5t38.5 166.5h-146v289h340z" />
    <glyph glyph-name="quotedblleft" unicode="&#x201c;" horiz-adv-x="1024" 
d="M633 1001v164q0 131 71 283t140 211l102 -53q-54 -63 -91 -153.5t-38 -168.5h129v-283h-313zM270 1001v164q0 130 70.5 282t138.5 212l103 -53q-54 -63 -91 -153.5t-38 -168.5h131v-283h-314z" />
    <glyph glyph-name="quotedblright" unicode="&#x201d;" horiz-adv-x="1024" 
d="M391 1608v-166q0 -129 -70.5 -281.5t-138.5 -210.5l-104 54q55 61 92.5 151.5t38.5 169.5h-131v283h313zM756 1608v-166q0 -129 -70.5 -281.5t-138.5 -210.5l-105 54q54 60 91 151t38 170h-129v283h314z" />
    <glyph glyph-name="uni3014" unicode="&#x3014;" horiz-adv-x="1024" 
d="M922 -348l-516 325v1274l516 326v-231l-308 -203v-1071l308 -189v-231z" />
    <glyph glyph-name="uni3015" unicode="&#x3015;" horiz-adv-x="1024" 
d="M618 -23l-516 -325v231l308 189v1071l-308 203v231l516 -326v-1274z" />
    <glyph glyph-name="uni3008" unicode="&#x3008;" horiz-adv-x="1024" 
d="M922 -219l-209 -121l-584 956l584 955l209 -121l-510 -836z" />
    <glyph glyph-name="uni3009" unicode="&#x3009;" horiz-adv-x="1024" 
d="M895 616l-584 -956l-209 121l510 833l-510 836l209 121z" />
    <glyph glyph-name="uni300A" unicode="&#x300a;" horiz-adv-x="1024" 
d="M922 -328h-105l-411 942l411 942h103l-412 -942zM678 -328h-105l-411 942l411 942h103l-412 -942z" />
    <glyph glyph-name="uni300B" unicode="&#x300b;" horiz-adv-x="1024" 
d="M862 614l-411 -942h-105l414 942l-412 942h103zM618 614l-411 -942h-105l414 942l-412 942h103z" />
    <glyph glyph-name="uni300C" unicode="&#x300c;" horiz-adv-x="1024" 
d="M922 1440h-457v-744h-158v901h615v-157z" />
    <glyph glyph-name="uni300D" unicode="&#x300d;" horiz-adv-x="1024" 
d="M717 -369h-615v158h457v743h158v-901z" />
    <glyph glyph-name="uni300E" unicode="&#x300e;" horiz-adv-x="1024" 
d="M922 1309h-326v-613h-289v901h615v-288zM825 1405v96h-422v-708h97v612h325z" />
    <glyph glyph-name="uni300F" unicode="&#x300f;" horiz-adv-x="1024" 
d="M717 -369h-615v289h326v612h289v-901zM621 -272v708h-97v-612h-327v-96h424z" />
    <glyph glyph-name="uni3010" unicode="&#x3010;" horiz-adv-x="1024" 
d="M922 -369h-768v1964h766q-174 -113 -295.5 -273.5t-178.5 -338t-56.5 -370.5t58 -370.5t179.5 -338t295 -273.5z" />
    <glyph glyph-name="uni3011" unicode="&#x3011;" horiz-adv-x="1024" 
d="M870 -367h-768q173 113 295 273.5t179.5 338t58 370.5t-56.5 370.5t-178.5 338t-295.5 273.5h766v-1964z" />
    <glyph glyph-name="plusminus" unicode="&#xb1;" 
d="M1176 1221v-260h297v-246h-297v-271h-304v271h-299v246h299v260h304zM559 102v246h928v-246h-928z" />
    <glyph glyph-name="multiply" unicode="&#xd7;" 
d="M856 160h-330l336 485l-344 492h334l174 -285l174 285h328l-340 -492l338 -485h-332l-168 280z" />
    <glyph glyph-name="divide" unicode="&#xf7;" 
d="M559 528v254h930v-254h-930zM1178 416v-299h-314v299h314zM1178 1184v-299h-314v299h314z" />
    <glyph glyph-name="notequal" unicode="&#x2260;" 
d="M553 729v250h489l101 233h264l-98 -233h184v-250h-289l-65 -154h354v-249h-459l-119 -287h-268l121 287h-215v249h319l66 154h-385z" />
    <glyph glyph-name="lessequal" unicode="&#x2264;" 
d="M596 918l848 348v-267l-471 -186l477 -121v-264l-854 268v222zM559 102v246h928v-246h-928z" />
    <glyph glyph-name="greaterequal" unicode="&#x2265;" 
d="M602 1266l848 -348v-222l-854 -268v264l477 121l-471 186v267zM1487 348v-246h-928v246h928z" />
    <glyph glyph-name="infinity" unicode="&#x221e;" 
d="M1403 244q-53 0 -102.5 15.5t-86.5 40t-69 54.5t-54 60t-37.5 54.5t-22.5 39.5l-7 16q-5 -11 -14 -30t-43.5 -67.5t-74 -85t-106.5 -67t-141 -30.5q-89 0 -161 32t-116 84t-68 118.5t-24 136t24 136t68 118.5t116 84t161 32q74 0 140 -29t108 -70t73 -82t44 -70l14 -29
q2 6 7 16t22.5 39t37.5 55.5t53 59t69.5 55.5t86.5 39t103 16q89 0 161 -32t116 -84t68 -118.5t24 -136t-24 -136t-68 -118.5t-116 -84t-161 -32zM1403 895q-61 0 -116 -29t-89.5 -70t-60 -82.5t-36.5 -70.5l-11 -29q2 -6 6 -16t18 -39t30.5 -55.5t43.5 -59t57 -55.5
t71.5 -39t86.5 -16q67 0 121 24t87 63.5t51 90t18 103t-18 103t-51 90t-87 63.5t-121 24zM958 614q-4 11 -11.5 30t-35.5 67.5t-61 85.5t-88.5 67.5t-116.5 30.5q-66 0 -120 -24t-87 -63.5t-51 -90t-18 -103t18 -103t51 -90t87 -63.5t120 -24q61 0 116 29t89.5 70t60 82
t36.5 70z" />
    <glyph glyph-name="therefore" unicode="&#x2234;" 
d="M1024 944q-40 0 -71.5 16.5t-48 42.5t-24 57.5t0 62.5t24 57t48 42.5t71.5 16.5t71.5 -16.5t48 -42.5t24 -57t0 -62.5t-24 -57.5t-48 -42.5t-71.5 -16.5zM1542 -35q-47 0 -81 22t-49.5 54.5t-15.5 71t15.5 71t49.5 54.5t81 22q40 0 71.5 -16.5t48 -42.5t24 -57t0 -62.5
t-24 -57.5t-48 -42.5t-71.5 -16.5zM506 -35q-47 0 -81 22t-49.5 54.5t-15.5 71t15.5 71t49.5 54.5t81 22q40 0 71.5 -16.5t48 -42.5t24 -57t0 -62.5t-24 -57.5t-48 -42.5t-71.5 -16.5z" />
    <glyph glyph-name="degree" unicode="&#xb0;" horiz-adv-x="1024" 
d="M512 1106q-77 0 -134 36.5t-82.5 91t-25.5 118t25.5 118t82.5 91t134 36.5t134 -36.5t82.5 -91t25.5 -118t-25.5 -118t-82.5 -91t-134 -36.5zM512 1485q-50 0 -84.5 -27.5t-42.5 -66.5t0 -78t42.5 -66.5t84.5 -27.5t84.5 27.5t42.5 66.5t0 78t-42.5 66.5t-84.5 27.5z" />
    <glyph glyph-name="minute" unicode="&#x2032;" horiz-adv-x="1024" 
d="M586 1597l-445 -573l-39 33l211 540h273z" />
    <glyph glyph-name="second" unicode="&#x2033;" horiz-adv-x="1024" 
d="M920 1597l-437 -573l-39 33l209 540h267zM578 1597l-439 -573l-37 33l209 540h267z" />
    <glyph glyph-name="uni2103" unicode="&#x2103;" 
d="M285 1274q0 -54 28 -91.5t80 -37.5q54 0 82.5 37.5t28.5 91.5q0 51 -28.5 86t-82.5 35q-52 0 -80 -35t-28 -86zM96 1276q0 126 81 208.5t216 82.5q134 0 215.5 -82.5t81.5 -208.5q0 -132 -80.5 -217.5t-216.5 -85.5q-43 0 -84 10t-80 33.5t-68 58t-47 86.5t-18 115z
M1620 307h311q-11 -161 -95.5 -285t-217.5 -189.5t-293 -65.5q-209 0 -360 107t-228.5 300.5t-77.5 452.5q0 418 164 647t484 229q173 0 308.5 -67.5t214 -192t85.5 -287.5h-311q-32 281 -291 281q-148 0 -241 -155t-93 -457q0 -149 27.5 -264.5t76 -186t110 -106
t132.5 -35.5q119 0 201 72t94 202z" />
    <glyph glyph-name="uni212B" unicode="&#x212b;" 
d="M698 1376q0 119 91 201t235 82q142 0 234 -82t92 -201q0 -144 -113 -227l547 -1335h-340l-125 327h-596l-121 -327h-342l545 1341q-107 82 -107 221zM1022 946l-207 -547h412zM915 1374q0 -47 28 -80.5t81 -33.5t81 33.5t28 80.5t-27.5 79t-81.5 32t-81.5 -32t-27.5 -79z
" />
    <glyph glyph-name="uniFFE0" unicode="&#xffe0;" 
d="M1143 1632v-198q219 -28 354.5 -162t144.5 -338h-311q-26 200 -188 242v-1084q85 21 140 81.5t65 156.5h311q-15 -204 -159 -337.5t-357 -158.5v-184h-234v192q-255 47 -401 257t-146 528q0 346 141.5 555.5t405.5 249.5v200h234zM682 625q0 -200 62.5 -327.5
t164.5 -180.5v1038q-103 -53 -165 -185.5t-62 -344.5z" />
    <glyph glyph-name="uniFFE1" unicode="&#xffe1;" 
d="M301 543v262h209v186q0 226 153.5 369t403.5 143q236 0 390 -148.5t157 -396.5h-314q-6 133 -67 206t-168 73q-111 0 -170 -71t-59 -169v-192h518v-262h-518v-480h448q84 0 123 37t39 119v152h309v-148q0 -209 -117.5 -316.5t-308.5 -107.5h-1055v264h236v480h-209z" />
    <glyph glyph-name="uniFFE5" unicode="&#xffe5;" 
d="M471 379v242h236l-396 849h346l363 -849h4l362 849h349l-398 -849h240v-242h-352l-35 -76h387v-242h-393v-258h-322v258h-391v242h385l-37 76h-348z" />
    <glyph glyph-name="male" unicode="&#x2642;" 
d="M1571 905l-113 -114l-348 440v-789q81 -19 142.5 -63.5t97 -101.5t50.5 -124.5t7.5 -134.5t-36.5 -129t-75.5 -110t-117 -76.5t-154.5 -28.5t-154.5 28.5t-117 76.5t-75.5 110t-36.5 129t7.5 134.5t50.5 124.5t97 101.5t142.5 63.5v789l-346 -436l-113 114l545 660z
M1024 293q-56 0 -100.5 -20t-72.5 -52.5t-43 -74t-15 -85t15 -85t43 -74t72.5 -52.5t100.5 -20t100.5 20t72.5 52.5t43 74t15 85t-15 85t-43 74t-72.5 52.5t-100.5 20z" />
    <glyph glyph-name="female" unicode="&#x2640;" 
d="M1679 385h-569v-723h-172v723h-569v172h569v231q-81 18 -143 61.5t-97 100.5t-50 125t-8 135t36 129.5t76 110.5t117.5 77t154.5 29t154.5 -29t117.5 -77t76 -110.5t36 -129.5t-8 -135t-50 -125t-97 -100.5t-143 -61.5v-231h569v-172zM1024 1399q-73 0 -127 -34.5
t-78.5 -85.5t-24.5 -111.5t24.5 -111.5t78.5 -85.5t127 -34.5t127 34.5t78.5 85.5t24.5 111.5t-24.5 111.5t-78.5 85.5t-127 34.5z" />
    <glyph glyph-name="angle" unicode="&#x2220;" 
d="M1761 -41h-1413q-82 0 0 82l1225 1237l67 -64l-1167 -1173h1288v-82z" />
    <glyph glyph-name="perpendicular" unicode="&#x22a5;" 
d="M1720 -41h-1392v82h649v1188h94v-1188h649v-82z" />
    <glyph glyph-name="uni2312" unicode="&#x2312;" 
d="M1761 655h-96q-22 130 -84.5 234.5t-148 169.5t-191 100t-213 35.5t-213 -34t-192.5 -99.5t-150.5 -170t-87.5 -236h-96q23 152 95 273.5t171.5 197t222 116t247.5 40.5t247.5 -40.5t222 -116t171.5 -197.5t95 -273z" />
    <glyph glyph-name="partialdiff" unicode="&#x2202;" horiz-adv-x="1024" 
d="M834 537q-52 -177 -205 -292q-128 -95 -258 -102q-126 -6 -178 77q-22 33 -27 79q-8 68 18 128t75 101.5t113 74.5t131.5 47.5t130.5 20.5t111 -7q3 28 2 56t-7 60t-18.5 58.5t-33 51t-51 37.5t-71.5 19.5t-95 -4.5q-41 -7 -78.5 -25t-62 -37.5t-44 -38.5t-31 -29
t-15.5 -7q-7 5 2.5 28.5t36.5 55t65.5 61.5t100 49.5t130.5 16.5q108 -4 181.5 -68.5t94 -169.5t-16.5 -241zM743 618q-214 0 -350 -98q-111 -80 -126 -180q-11 -77 38 -118q58 -47 152 -6q58 26 118 85q67 65 111.5 155.5t56.5 161.5z" />
    <glyph glyph-name="gradient" unicode="&#x2207;" 
d="M1798 1229l-774 -1321l-778 1321h1552zM1503 1063h-962l483 -819z" />
    <glyph glyph-name="equivalence" unicode="&#x2261;" 
d="M1761 901h-1474v82h1474v-82zM1761 573h-1474v82h1474v-82zM1761 246h-1474v82h1474v-82z" />
    <glyph glyph-name="uni2252" unicode="&#x2252;" 
d="M1761 741h-1474v95h1474v-95zM608 1053q-51 0 -79.5 34t-28.5 74.5t28.5 74.5t79.5 34t79.5 -34t28.5 -74.5t-28.5 -74.5t-79.5 -34zM1442 -39q-50 0 -78.5 34t-28.5 74.5t28.5 74.5t78.5 34t78.5 -34t28.5 -74.5t-28.5 -74.5t-78.5 -34zM1761 393h-1474v94h1474v-94z
" />
    <glyph glyph-name="section" unicode="&#xa7;" horiz-adv-x="1024" 
d="M664 346q49 -48 83 -111t48.5 -128.5t6 -129t-38.5 -113t-91 -80t-146 -30.5q-65 0 -121.5 18.5t-92 47.5t-56.5 62.5t-19.5 65.5t23.5 54q25 25 52.5 30.5t48 -6t37 -31.5t19 -46.5t-6.5 -50.5q-13 -31 31 -53q53 -27 114 -9q84 24 98 118q2 16 2 34q0 72 -26.5 132
t-72.5 105t-94 82.5t-104.5 84.5t-91.5 91q-49 61 -71.5 134t-16 134.5t53 99.5t126.5 32q-53 46 -88 109t-47.5 128t-1.5 129.5t43 114t91.5 80.5t138.5 31q65 0 121.5 -18.5t91.5 -47.5t55 -62t19 -65.5t-23 -54.5q-20 -21 -42 -28.5t-40.5 -2t-35 18t-25 32.5t-11.5 41
t6 43q12 32 -32 54q-54 27 -116 8q-84 -25 -95 -123q-2 -14 -2 -29q0 -72 27 -131.5t73 -104.5t94.5 -82.5t105 -85t91.5 -92.5q29 -38 53 -90.5t32.5 -110t-1 -104.5t-54.5 -74.5t-122 -19.5zM403 813q-93 0 -90 -75q2 -76 87 -181q80 -99 159 -131q21 -9 39 -10
q107 -7 107 73q0 74 -81 176q-80 100 -164 135q-31 13 -57 13z" />
    <glyph glyph-name="uni203B" unicode="&#x203b;" 
d="M1024 963q-64 0 -100 42.5t-36 93.5t36 93.5t100 42.5t100 -42.5t36 -93.5t-36 -93.5t-100 -42.5zM1507 477q-64 0 -100 42.5t-36 94t36 94t100 42.5t100 -42.5t36 -94t-36 -94t-100 -42.5zM1663 86l-111 -111l-528 531l-528 -531l-111 111l530 528l-530 529l111 110
l528 -530l528 530l111 -110l-530 -529zM541 477q-64 0 -100 42.5t-36 94t36 94t100 42.5t100 -42.5t36 -94t-36 -94t-100 -42.5zM1024 -6q-64 0 -100 42.5t-36 93.5t36 93.5t100 42.5t100 -42.5t36 -93.5t-36 -93.5t-100 -42.5z" />
    <glyph glyph-name="uni2606" unicode="&#x2606;" 
d="M1839 877l-502 -365l191 -590l-502 365l-502 -365l189 594l-500 361h621l190 591l195 -591h620zM1460 754h-332l-104 317l-100 -317h-334l266 -193l-98 -317l268 194l268 -194l-102 315z" />
    <glyph glyph-name="uni2605" unicode="&#x2605;" 
d="M1839 877l-502 -365l191 -590l-502 365l-502 -365l189 594l-500 361h621l190 591l195 -591h620z" />
    <glyph glyph-name="circle" unicode="&#x25cb;" 
d="M1024 -86q-167 0 -302.5 60t-218.5 158.5t-128 224.5t-45 257.5t45 257.5t128 224.5t218.5 158.5t302.5 60t302.5 -60t218.5 -158.5t128 -224.5t45 -257.5t-45 -257.5t-128 -224.5t-218.5 -158.5t-302.5 -60zM1024 1110q-118 0 -213.5 -42.5t-154.5 -112.5t-90.5 -159
t-31.5 -181.5t31.5 -181.5t90.5 -159t154.5 -112.5t213.5 -42.5t213.5 42.5t154.5 112.5t90.5 159t31.5 181.5t-31.5 181.5t-90.5 159t-154.5 112.5t-213.5 42.5z" />
    <glyph glyph-name="H18533" unicode="&#x25cf;" 
d="M1024 -86q-167 0 -302.5 60t-218.5 158.5t-128 224.5t-45 257.5t45 257.5t128 224.5t218.5 158.5t302.5 60t302.5 -60t218.5 -158.5t128 -224.5t45 -257.5t-45 -257.5t-128 -224.5t-218.5 -158.5t-302.5 -60z" />
    <glyph glyph-name="uni25CE" unicode="&#x25ce;" 
d="M1024 -225q-200 0 -362.5 72t-262 190t-153.5 269t-54 308.5t54 308.5t153.5 269t262 190t362.5 72t362.5 -72t262 -190t153.5 -269t54 -308.5t-54 -308.5t-153.5 -269t-262 -190t-362.5 -72zM1024 1372q-181 0 -327 -65t-236 -171.5t-138.5 -242.5t-48.5 -278.5
t48.5 -278.5t138.5 -242.5t236 -171.5t327 -65t327 65t236 171.5t138.5 242.5t48.5 278.5t-48.5 278.5t-138.5 242.5t-236 171.5t-327 65zM1024 76q-129 0 -233 46.5t-168 122t-98.5 172.5t-34.5 197.5t34.5 197.5t98.5 172.5t168 122t233 46.5t233 -46.5t168 -122
t98.5 -172.5t34.5 -197.5t-34.5 -197.5t-98.5 -172.5t-168 -122t-233 -46.5zM1024 1071q-109 0 -197 -39t-142 -103.5t-83.5 -146.5t-29.5 -167.5t29.5 -167.5t83.5 -146.5t142 -103.5t197 -39t197 39t142 103.5t83.5 146.5t29.5 167.5t-29.5 167.5t-83.5 146.5t-142 103.5
t-197 39z" />
    <glyph glyph-name="uni25C7" unicode="&#x25c7;" 
d="M1825 614l-801 -800l-799 800l799 801zM1524 614l-500 500l-500 -500l500 -499z" />
    <glyph glyph-name="uni25C6" unicode="&#x25c6;" 
d="M1825 614l-801 -800l-799 800l799 801z" />
    <glyph glyph-name="H22073" unicode="&#x25a1;" 
d="M1642 -4h-1236v1237h1236v-1237zM1446 193v843h-844v-843h844z" />
    <glyph glyph-name="filledbox" unicode="&#x25a0;" 
d="M1642 -4h-1236v1237h1236v-1237z" />
    <glyph glyph-name="uni25B3" unicode="&#x25b3;" 
d="M1808 -6h-1570l786 1335zM1440 201l-416 714l-422 -714h838z" />
    <glyph glyph-name="triagup" unicode="&#x25b2;" 
d="M1808 -6h-1570l786 1335z" />
    <glyph glyph-name="uni25BD" unicode="&#x25bd;" 
d="M1806 1212l-782 -1335l-786 1335h1568zM1440 1008h-838l420 -717z" />
    <glyph glyph-name="triagdn" unicode="&#x25bc;" 
d="M1806 1212l-782 -1335l-786 1335h1568z" />
    <glyph glyph-name="arrowright" unicode="&#x2192;" 
d="M1997 614l-725 -338l241 240h-1482v197h1487l-246 241z" />
    <glyph glyph-name="arrowleft" unicode="&#x2190;" 
d="M2003 516h-1485l242 -240l-725 338l725 340l-246 -241h1489v-197z" />
    <glyph glyph-name="arrowup" unicode="&#x2191;" 
d="M1354 864l-226 256v-1485h-210v1485l-230 -260l336 739z" />
    <glyph glyph-name="arrowdown" unicode="&#x2193;" 
d="M1354 338l-330 -709l-336 711l230 -231v1486h210v-1484z" />
    <glyph glyph-name="arrowboth" unicode="&#x2194;" 
d="M2025 614l-661 -323l219 225h-1120l219 -225l-659 323l659 326l-219 -225h1120l-219 225z" />
    <glyph glyph-name="uni3013" unicode="&#x3013;" 
d="M1761 799h-1433v92h1433v-92zM1761 338h-1433v92h1433v-92z" />
    <glyph glyph-name="guillemotleft" 
d="M1829 -63l-51 -62l-1000 698q-40 28 -40.5 40t40.5 42l1000 699l47 -66l-973 -674zM1337 -63l-51 -62l-999 698q-40 28 -40.5 40t40.5 42l999 699l47 -66l-973 -674z" />
    <glyph glyph-name="guillemotright" 
d="M1761 573l-999 -698l-51 62l977 677l-973 674l47 66l999 -699q41 -30 40.5 -42t-40.5 -40zM1270 573l-1000 -698l-51 62l977 677l-973 674l47 66l1000 -699q41 -30 40.5 -42t-40.5 -40z" />
    <glyph glyph-name="radical" unicode="&#x221a;" 
d="M1823 1124h-996l-223 -1228q-3 -13 -14.5 -14.5t-18.5 9.5l-231 441l-107 -78l-40 70l178 129l190 -359l197 1114h1065v-84z" />
    <glyph glyph-name="uni223D" unicode="&#x223d;" 
d="M1485 244q-69 0 -131 18t-90 36l-27 17l41 78q11 -7 30 -17.5t76 -28t111 -17.5q67 0 122.5 22t91.5 59t61 85.5t30 102t-0.5 107.5t-31.5 103.5t-63 88.5t-93.5 63.5t-124.5 27.5q-75 4 -136.5 -20t-106 -68t-83 -101.5t-72.5 -121t-69 -127.5t-78.5 -120.5t-94.5 -99.5
t-123 -65.5t-159 -17.5q-99 6 -177.5 45t-126 98.5t-72.5 133.5t-23.5 150t28.5 148.5t76 128.5t127 90.5t174 34.5q69 0 131 -17.5t90 -35.5l27 -18l-39 -70q-10 7 -28.5 16.5t-75.5 26t-113 16.5q-67 0 -124 -22t-93.5 -59.5t-62.5 -86.5t-31.5 -103t0 -108.5t31.5 -105
t63.5 -90t96 -65t128.5 -29.5q71 -4 130.5 19.5t104 66.5t84 99.5t75 120t72.5 127.5t81.5 121.5t95.5 101t122 68.5t155 23q97 -3 175.5 -40t127 -95.5t74.5 -133t25.5 -151.5t-27 -150.5t-75.5 -131t-128.5 -92.5t-177.5 -35z" />
    <glyph glyph-name="proportional" unicode="&#x221d;" 
d="M1804 256q-57 -37 -111.5 -54.5t-127.5 -17.5q-65 0 -124 18t-102 47t-79.5 64t-60.5 70t-41 64t-24 47l-8 18q-3 -7 -8 -18.5t-25 -46t-43 -65.5t-61 -68.5t-80 -65t-100 -46t-121 -18.5q-103 0 -185.5 37t-133.5 97.5t-79 137.5t-28 158t28 158t79 137.5t133.5 97.5
t185.5 37q62 0 120 -18t100.5 -47t79.5 -64t62 -69.5t42.5 -63.5t25.5 -47l8 -18q3 7 8.5 18.5t25 45.5t42.5 65t61.5 69t80.5 65t100 45.5t121 18.5q145 0 237 -71l-45 -68q-69 53 -192 53q-61 0 -115.5 -19t-93 -49.5t-70.5 -67t-52.5 -73t-34.5 -67t-19 -49.5l-6 -19
q2 -7 6 -19.5t19.5 -48t34.5 -68t52 -72.5t71 -68.5t92.5 -48t115.5 -19.5q113 0 190 54zM1079 614q-2 7 -7 19.5t-22.5 48t-37.5 68t-54 72.5t-71.5 68.5t-90 48t-108.5 19.5q-83 0 -149.5 -29.5t-108 -78t-63.5 -110.5t-22 -126t22 -126t63.5 -110.5t108 -78t149.5 -29.5
q56 0 108 19t90.5 49.5t71.5 67t54.5 73t37 67t22.5 49.5z" />
    <glyph glyph-name="uni2235" unicode="&#x2235;" 
d="M1694 1114q0 -48 -22.5 -83.5t-56 -51t-73 -15.5t-73 15.5t-56 51t-22.5 83.5t22.5 83.5t56 51t73 15.5t73 -15.5t56 -51t22.5 -83.5zM657 1114q0 -41 -16.5 -73.5t-43.5 -49.5t-59 -25t-64.5 0t-59.5 25t-43.5 49.5t-16.5 73.5t16.5 73.5t43.5 49.5t59 25t64.5 0
t59.5 -25t43.5 -49.5t16.5 -73.5zM1176 135q0 -57 -31.5 -96.5t-76 -48.5t-89 0t-76 48.5t-31.5 96.5t31.5 96.5t76 48.5t89 0t76 -48.5t31.5 -96.5z" />
    <glyph glyph-name="integral" unicode="&#x222b;" 
d="M1370 1346q-17 -27 -39.5 -32.5t-40.5 3t-39.5 15.5t-33.5 3q-39 -14 -65 -73t-37 -149.5t-15.5 -169t-6 -175t-3.5 -125.5q-41 -818 -306 -879q-63 -14 -98.5 29.5t-7.5 85.5q19 28 43 34t42.5 -2.5t38.5 -17t29 -4.5q40 16 67 82t38 166t15.5 187t6 192.5t3.5 136.5
q4 55 6.5 86.5t9.5 99.5t14 113t20.5 112t28.5 113.5t38 99.5t49 87.5t61.5 61t75.5 34.5q62 13 96.5 -30.5t9.5 -83.5z" />
    <glyph glyph-name="uni222C" unicode="&#x222c;" 
d="M1090 1346q-22 -34 -51 -33.5t-59 14t-44 8.5q-39 -14 -65 -73t-37 -149.5t-15.5 -169t-6 -175t-3.5 -125.5q-4 -69 -7.5 -121.5t-13.5 -145t-23 -162.5t-36.5 -153t-53 -140t-74 -101t-97.5 -56q-31 -7 -58.5 2t-41 28t-18 42t10.5 43q19 28 43 34t43 -2.5t39 -17
t29 -4.5q40 16 67 82t38 165.5t15 187.5t5.5 193t3.5 136q4 55 6.5 86.5t9.5 99.5t14 113t20.5 112t28.5 113.5t38 99.5t49 87.5t61.5 61t75.5 34.5q31 6 58 -3.5t40 -28.5t17.5 -41t-8.5 -41zM1645 1346q-22 -34 -51 -33.5t-59 14t-44 8.5q-39 -14 -65 -73t-37 -149.5
t-15.5 -169t-6 -175t-3.5 -125.5q-4 -69 -7.5 -121.5t-13.5 -145t-23 -162.5t-36.5 -153t-53 -140t-74 -101t-97.5 -56q-31 -7 -58.5 2t-41 28t-18 42t10.5 43q19 28 43 34t43 -2.5t39 -17t29 -4.5q40 16 67 82t38 165.5t15 187.5t5.5 193t3.5 136q4 55 6.5 86.5t9.5 99.5
t14 113t20.5 112t28.5 113.5t38 99.5t49 87.5t61.5 61t75.5 34.5q31 6 58 -3.5t40 -28.5t17.5 -41t-8.5 -41z" />
    <glyph glyph-name="element" unicode="&#x2208;" 
d="M1741 41h-852q-151 0 -273 49.5t-196.5 130t-115 183.5t-40.5 210.5t40.5 210.5t115.5 183.5t197 130t272 49.5h852v-82h-875q-123 0 -222 -41.5t-158.5 -108.5t-92 -144t-37.5 -157h1383v-82h-1383q5 -81 37.5 -157.5t92 -143.5t158.5 -108t222 -41h875v-82z" />
    <glyph glyph-name="suchthat" unicode="&#x220b;" 
d="M1159 41h-852v82h875q123 0 222 41t158.5 108t92 143.5t37.5 157.5h-1383v82h1383q-5 80 -37.5 157t-92 144t-158.5 108.5t-222 41.5h-875v82h852q150 0 272 -49.5t197 -130t115.5 -183.5t40.5 -210.5t-40.5 -210.5t-115 -183.5t-196.5 -130t-273 -49.5z" />
    <glyph glyph-name="reflexsubset" unicode="&#x2286;" 
d="M1741 287h-852q-152 0 -275 42t-198.5 111.5t-116.5 157.5t-41 180.5t41.5 180.5t117 157.5t198 111.5t274.5 42h852v-82h-877q-124 0 -225 -35t-163 -93t-95.5 -131.5t-34 -150t33.5 -150t95.5 -131.5t162.5 -93t226 -35h877v-82zM1782 -41h-1516v82h1516v-82z" />
    <glyph glyph-name="reflexsuperset" unicode="&#x2287;" 
d="M1159 287h-852v82h877q125 0 226 35t163 93t95.5 131.5t33.5 150t-33.5 150t-95.5 131.5t-163 93t-226 35h-877v82h852q152 0 274.5 -42t198 -111.5t117 -157.5t41.5 -180.5t-41 -180.5t-116.5 -157.5t-198.5 -111.5t-275 -42zM1782 -41h-1516v82h1516v-82z" />
    <glyph glyph-name="propersubset" unicode="&#x2282;" 
d="M1741 41h-852q-151 0 -273 49.5t-196.5 130t-115 183.5t-40.5 210.5t40.5 210.5t115.5 183.5t197 130t272 49.5h852v-82h-875q-123 0 -223 -42t-161.5 -111.5t-95 -157.5t-33.5 -180.5t33 -180.5t94.5 -157.5t161.5 -111.5t224 -42h875v-82z" />
    <glyph glyph-name="propersuperset" unicode="&#x2283;" 
d="M1159 41h-852v82h875q124 0 224 42t161.5 111.5t94.5 157.5t33 180.5t-33.5 180.5t-95 157.5t-161.5 111.5t-223 42h-875v82h852q150 0 272 -49.5t197 -130t115.5 -183.5t40.5 -210.5t-40.5 -210.5t-115 -183.5t-196.5 -130t-273 -49.5z" />
    <glyph glyph-name="union" unicode="&#x222a;" 
d="M1569 479q0 -150 -49.5 -272t-130 -197t-183.5 -115.5t-210.5 -40.5t-210.5 40.5t-183.5 115t-130 196.5t-49.5 273v852h82v-874q0 -124 42 -224t111.5 -161.5t157.5 -94.5t180.5 -33t180.5 33.5t157.5 95t111.5 161.5t42 223v874h82v-852z" />
    <glyph glyph-name="intersection" unicode="&#x2229;" 
d="M1597 -102h-81v874q0 123 -42.5 223t-111.5 161.5t-157.5 95t-180.5 33.5t-180.5 -33t-157.5 -94.5t-111.5 -161.5t-42.5 -224v-874h-81v852q0 151 49 273t130 196.5t184 115t210 40.5t210 -40.5t184 -115.5t130 -197t49 -272v-852z" />
    <glyph glyph-name="logicaland" unicode="&#x2227;" 
d="M1708 -41l-72 -39l-612 1254l-612 -1254l-72 39l643 1315q41 80 82 0z" />
    <glyph glyph-name="logicalor" unicode="&#x2228;" 
d="M1708 1274l-643 -1315q-41 -80 -82 0l-643 1315l72 39l612 -1254l612 1254z" />
    <glyph glyph-name="uniFFE2" unicode="&#xffe2;" 
d="M2007 -369h-82v635h-1884v82h1966v-717z" />
    <glyph glyph-name="arrowdblright" unicode="&#x21d2;" 
d="M2050 612l-713 -489l-90 110l230 156h-1477v123h1659l147 100l-153 105h-1653v123h1470l-223 151l90 111z" />
    <glyph glyph-name="arrowdblboth" unicode="&#x21d4;" 
d="M2050 612l-713 -489l-90 110l230 156h-904l228 -153l-90 -111l-713 489l713 490l90 -111l-228 -153h897l-223 151l90 111zM1806 612l-153 105h-1260l-151 -103l151 -102h1266z" />
    <glyph glyph-name="universal" unicode="&#x2200;" 
d="M616 1470l119 -370h578l121 370h338l-590 -1667h-314l-592 1667h340zM821 840l203 -619l207 619h-410z" />
    <glyph glyph-name="existential" unicode="&#x2203;" 
d="M1559 1470v-1667h-1051v263h723v399h-707v264h707v481h-744v260h1072z" />
    <glyph glyph-name="acute" unicode="&#xb4;" 
d="M1042 1358q-78 -98 -151.5 -178t-106.5 -105q7 47 37.5 152t73.5 215q49 123 123 157q52 24 83 -11q37 -41 5 -124q-20 -51 -64 -106z" />
    <glyph glyph-name="tilde" unicode="&#x2dc;" 
d="M1503 1618q0 -110 -81 -177t-214 -55q-77 7 -144 37.5t-123 62t-101 38.5q-67 11 -120.5 -20.5t-53.5 -90.5h-113q0 103 83.5 168t207.5 55q61 -5 115.5 -25t88 -41t77 -41t83.5 -26q91 -13 138 18.5t47 96.5h110z" />
    <glyph glyph-name="caron" unicode="&#x2c7;" 
d="M1440 1532l-416 -234l-416 234l62 100l354 -200l354 200z" />
    <glyph glyph-name="breve" unicode="&#x2d8;" 
d="M1475 1569q-110 -148 -280 -201t-340.5 1t-281.5 200l93 63q90 -119 224.5 -162.5t269 0t224.5 162.5z" />
    <glyph glyph-name="hungarumlaut" unicode="&#x2dd;" 
d="M1247 1358q-78 -98 -151.5 -178t-106.5 -105q7 47 37.5 152t73.5 215q49 123 123 157q52 24 83 -11q37 -41 5 -124q-20 -51 -64 -106zM936 1358q-78 -98 -151.5 -178t-106.5 -105q8 48 38 153t72 214q49 122 122 157q54 25 85 -11q37 -42 4 -125q-19 -51 -63 -105z" />
    <glyph glyph-name="ring" unicode="&#x2da;" 
d="M1024 1126q-64 0 -113.5 26t-75.5 67.5t-38 92t0 100.5t38 91.5t75.5 67.5t113.5 26t113.5 -26t75.5 -67.5t38 -91.5t0 -100.5t-38 -92t-75.5 -67.5t-113.5 -26zM1024 1493q-42 0 -72.5 -19.5t-44 -48.5t-13.5 -63t13.5 -63t44 -48.5t72.5 -19.5t72.5 19.5t44 48.5
t13.5 63t-13.5 63t-44 48.5t-72.5 19.5z" />
    <glyph glyph-name="dotaccent" unicode="&#x2d9;" 
d="M1022 1167q-57 0 -99.5 26.5t-61 66.5t-18.5 86.5t18.5 86.5t61 66.5t99.5 26.5t99.5 -26.5t61 -66.5t18.5 -86.5t-18.5 -86.5t-61 -66.5t-99.5 -26.5z" />
    <glyph glyph-name="cedilla" unicode="&#xb8;" horiz-adv-x="1024" 
d="M659 0l-297 -295v137l152 158l-152 145v136z" />
    <glyph glyph-name="ogonek" unicode="&#x2db;" horiz-adv-x="1024" 
d="M659 -295l-297 295l297 281v-136l-151 -145l151 -158v-137z" />
    <glyph glyph-name="exclamdown" unicode="&#xa1;" 
d="M844 -248l37 1249h286l35 -1249h-358zM848 1163v338h348v-338h-348z" />
    <glyph glyph-name="questiondown" unicode="&#xbf;" 
d="M866 1020h318q0 -105 -6 -191q-5 -67 -20.5 -118.5t-47 -95t-63.5 -75.5t-89 -79q-69 -59 -106 -124.5t-37 -152.5q0 -105 52.5 -151.5t138.5 -46.5q107 0 160 69t59 209h307q3 -130 -37 -234.5t-113 -172t-170.5 -103t-212.5 -35.5q-228 0 -363.5 114.5t-135.5 324.5
q0 275 231 473q74 63 101.5 108.5t31.5 118.5q2 49 2 162zM850 1163v338h348v-338h-348z" />
    <glyph glyph-name="uni2236" unicode="&#x2236;" horiz-adv-x="1024" 
d="M711 1106l-199 -342l-199 342h398zM711 123h-398l199 342z" />
    <glyph glyph-name="uni222E" unicode="&#x222e;" 
d="M1491 1081q-31 -15 -63 -6t-54 39q-11 15 -16 46.5t-17 35.5q-16 6 -33 -8.5t-33 -45t-30.5 -65.5t-28.5 -78.5t-23.5 -74.5t-18.5 -64.5t-11 -38.5q60 -34 97 -89t46 -114.5t-6.5 -120.5t-52.5 -108.5t-100.5 -76t-142.5 -25.5q-6 -17 -17.5 -53t-19 -59.5t-21.5 -60
t-25 -61.5t-28.5 -56.5t-34.5 -52.5t-40.5 -42.5t-47.5 -33t-54.5 -17.5t-64.5 -3q-46 5 -80 23.5t-48.5 44t-17.5 52.5t10.5 50.5t39.5 36.5q30 15 63 6.5t54 -38.5q11 -15 16 -46.5t17 -35.5q74 -26 177 372q2 8 3 11q-72 44 -112 105.5t-45 122t16 119.5t63 102.5
t105.5 67t134.5 15.5q3 10 16 52.5t19 60t20.5 58.5t24.5 61t28.5 54.5t34.5 52.5t39.5 41t47.5 33t54.5 16t63.5 3q46 -5 80 -23.5t48.5 -44t17.5 -52.5t-10.5 -50.5t-39.5 -36.5zM1128 702q-33 -122 -88 -296q73 7 115.5 61t36 122.5t-63.5 112.5zM1010 739
q-73 -7 -116 -61.5t-37 -124t63 -113.5q40 125 90 299z" />
    <glyph glyph-name="summation" unicode="&#x2211;" 
d="M1628 -82h-1184q-36 0 -48.5 15.5t-3.5 38t24.5 43.5t32.5 36l542 563l-555 519v178h1176v-465h-205v260h-657l524 -490l-477 -493h626v262h205v-467z" />
    <glyph glyph-name="product" unicode="&#x220f;" 
d="M1720 1106h-307v-1188h-205v1188h-368v-1188h-205v1188h-307v205h1392v-205z" />
    <glyph glyph-name="currency" unicode="&#xa4;" 
d="M1819 -35l-146 -145q-250 250 -252 250q-177 -133 -401.5 -132.5t-401.5 132.5l-249 -250l-146 143l42 42t81.5 81t92 91.5t36.5 35.5q-131 181 -131 402.5t133 400.5l-252 252l146 145l252 -254q179 129 397 129t397 -129l256 254l146 -145l-256 -254
q131 -175 132.5 -397t-128.5 -400zM1020 1073q-110 0 -198.5 -39.5t-143 -104.5t-84 -147.5t-29.5 -169t29.5 -169t84 -147.5t143 -104.5t198.5 -39.5t198.5 39.5t143 104.5t84 147.5t29.5 169t-29.5 169t-84 147.5t-143 104.5t-198.5 39.5z" />
    <glyph glyph-name="uni2109" unicode="&#x2109;" 
d="M301 1274q0 -54 28.5 -91.5t82.5 -37.5q52 0 80 37.5t28 91.5q0 51 -28 86t-80 35q-54 0 -82.5 -35t-28.5 -86zM115 1276q0 126 80.5 208.5t216.5 82.5q134 0 215.5 -82.5t81.5 -208.5q0 -132 -81 -217.5t-216 -85.5q-43 0 -84 10t-80 33.5t-68 58t-47 86.5t-18 115z
M813 -197v1667h1053v-262h-727v-422h710v-266h-710v-717h-326z" />
    <glyph glyph-name="perthousand" unicode="&#x2030;" 
d="M1788 473q44 -31 66.5 -77.5t22 -98t-16 -109t-47 -110t-70.5 -100.5t-88 -82t-97.5 -52.5t-100 -13t-95.5 36.5t-66.5 77.5t-22 98t16 109t47 110t70.5 100.5t88 82t97.5 52.5t100 13t95.5 -36.5zM659 1288q56 -39 77 -103.5t6.5 -133t-49.5 -141.5t-90.5 -129
t-116.5 -95t-128 -40t-125 36q-44 31 -66 78t-21.5 99t16 109t47 109.5t70.5 100.5t87.5 81.5t97 52t100 13t95.5 -36.5zM1411 1403l-1178 -1581h-161l1177 1581h162zM1186 475q44 -31 66.5 -77.5t22 -98t-16 -109t-47 -110t-70.5 -100.5t-88 -82t-97.5 -52.5t-100 -13
t-95.5 36.5t-66.5 77.5t-22 98t16 109t47 110t70.5 100.5t88 82t97.5 52.5t100 13t95.5 -36.5zM1716 373q-24 16 -53.5 16.5t-59 -14.5t-59.5 -39t-55.5 -56.5t-47 -67t-34 -71.5t-15.5 -69t7.5 -60t34.5 -45q24 -16 53.5 -16.5t59 14.5t59.5 39t55.5 56.5t47 67t34 71.5
t15.5 69t-7.5 60t-34.5 45zM588 1188q-31 20 -69.5 15.5t-76.5 -32.5t-73.5 -66.5t-60.5 -86t-37.5 -91.5t-4.5 -83.5t39 -61.5q31 -20 70 -15t77 33t74 66.5t61 86t37.5 91.5t3.5 83.5t-40 60.5zM1114 375q-31 20 -70 15t-77 -33t-73.5 -66.5t-60.5 -86t-37.5 -91.5
t-4 -83.5t39.5 -60.5q31 -20 70 -15t77 33t73.5 66.5t60.5 86t37.5 91.5t4 83.5t-39.5 60.5z" />
    <glyph glyph-name="uni25C1" unicode="&#x25c1;" 
d="M1624 -174l-1337 788l1337 785v-1573zM1415 193v835l-715 -416z" />
    <glyph glyph-name="uni25C0" unicode="&#x25c0;" 
d="M1624 -174l-1337 788l1337 785v-1573z" />
    <glyph glyph-name="uni25B7" unicode="&#x25b7;" 
d="M1747 614l-1337 -788v1573zM1333 612l-715 416v-835z" />
    <glyph glyph-name="uni25B6" unicode="&#x25b6;" 
d="M1761 614l-1337 -788v1573z" />
    <glyph glyph-name="uni2664" unicode="&#x2664;" 
d="M1690 453q0 -104 -49.5 -179t-126 -105.5t-173.5 -17t-186 75.5q0 -66 4 -117t14.5 -92t24 -70.5t38 -51.5t49.5 -36.5t65 -25t79 -16t97 -11.5l10 -28h-1024l10 28q58 6 97 11.5t79 16t65 25t49.5 36.5t38 51.5t24 70.5t14.5 92t4 117q-63 -45 -137 -63t-143.5 -5.5
t-127 47t-92.5 99.5t-35 148q0 65 20 124.5t59 112t80.5 94t98.5 88.5q152 125 265 290t143 343q30 -178 143 -343t265 -290q57 -47 98.5 -88.5t80.5 -94t59 -112t20 -124.5zM1587 420q0 69 -15.5 123.5t-50.5 102t-69.5 81t-95.5 82.5q-117 95 -211 207.5t-121 195.5
q-24 -81 -118.5 -194t-211.5 -209q-92 -78 -123 -111q-108 -119 -108 -278q0 -60 26 -100.5t69 -55.5t95.5 -16.5t106.5 14t101.5 38.5t82 55t45.5 65q0 -2 0.5 -64t0 -91t-3 -93.5t-10 -104t-18.5 -88t-30.5 -80.5t-44.5 -49h284q-25 17 -44.5 49t-30.5 80.5t-18.5 88
t-10 104t-3 93.5t0 91t0.5 64q11 -33 45.5 -65t82 -55t101.5 -38.5t106.5 -14t95.5 16.5t69 55.5t26 100.5z" />
    <glyph glyph-name="spade" unicode="&#x2660;" 
d="M1690 453q0 -80 -33 -142t-85.5 -97t-118 -52.5t-129.5 -14t-121.5 24t-92.5 55.5q0 -65 6 -117t20 -92t31 -69.5t46 -51.5t57.5 -37t72 -25t84.5 -16t99 -12l10 -28h-1024l10 28q58 6 99 12t84.5 16t72 25t57.5 37t46 51.5t31 69.5t20 92t6 117q-35 -35 -92.5 -55.5
t-121.5 -24t-129.5 14t-118 52.5t-85.5 97t-33 142q0 85 38 165t90 136.5t130 119.5q153 126 265.5 290t142.5 341q30 -177 142.5 -341t265.5 -290q78 -63 130 -119.5t90 -136.5t38 -165z" />
    <glyph glyph-name="uni2661" unicode="&#x2661;" 
d="M1726 1022q1 -75 -21.5 -153t-66.5 -153t-86 -132.5t-100 -126.5q-33 -39 -89 -102.5t-89.5 -102.5t-79 -96.5t-74 -103.5t-55 -103.5t-41.5 -114.5q-15 56 -42 113.5t-55 103t-73.5 104t-79 97t-90 103t-88.5 102.5q-58 69 -100 126.5t-86 132.5t-66.5 153t-21.5 153
q2 96 46 169.5t111 111t149 46t158.5 -14t141.5 -81t96 -143.5q37 87 104.5 145.5t144 80t157 12t145 -48t107 -111t44.5 -166.5zM1599 981q0 170 -103 231q-87 53 -205 7q-120 -47 -199 -170q-48 -75 -68 -166q-44 193 -175 292q-106 78 -216 62q-105 -15 -153 -112
q-31 -61 -31 -144q0 -60 19.5 -121.5t60 -125t71 -104t82.5 -102.5q38 -45 102 -116.5t99.5 -113t76 -100t64.5 -112.5q27 54 68.5 112.5t74.5 98t99 115t100 116.5q52 62 82.5 102.5t71 104t60 125t19.5 121.5z" />
    <glyph glyph-name="heart" unicode="&#x2665;" 
d="M1726 1022q0 -75 -23 -153t-66 -152.5t-85.5 -133t-99.5 -126.5q-33 -39 -89 -102.5t-89.5 -102.5t-79 -96.5t-74 -103.5t-55 -103.5t-41.5 -114.5q-15 56 -41.5 113.5t-55 102.5t-74 103t-79 97t-89.5 102.5t-89 102.5q-57 68 -99.5 126.5t-85.5 133t-66 152.5t-23 153
q0 73 26 134t69 101.5t99.5 64t117.5 27.5t122.5 -14.5t114 -55.5t93.5 -101.5t60 -147.5q19 84 60 149t93.5 102.5t114 55.5t122.5 14.5t117.5 -27.5t99.5 -64.5t69 -101.5t26 -134z" />
    <glyph glyph-name="uni2667" unicode="&#x2667;" 
d="M1778 528q0 -143 -104 -247.5t-255 -104.5q-78 0 -149.5 34.5t-122.5 96.5q0 -146 18.5 -237.5t66.5 -147.5t115.5 -80t178.5 -35l10 -28h-1024l10 28q74 7 126 19.5t97 36t72.5 59t47.5 90t28 126.5t8 171q-48 -61 -115 -94t-136 -35.5t-137.5 20.5t-121.5 67.5
t-86 112.5t-33 148q0 78 32 150.5t91.5 124t142.5 71t185 -7.5q-36 55 -48 117.5t-0.5 120.5t43 112.5t76.5 94.5t105.5 64t126.5 24q79 0 149.5 -34t117 -91t71 -125.5t14.5 -144.5t-55 -140q91 29 174 10t145 -67.5t99 -122.5t37 -156zM1671 528q0 74 -40.5 134t-99.5 89
t-129.5 24t-127.5 -50l-98 125q53 41 77 100.5t16.5 117.5t-36.5 109t-84.5 83t-124.5 32q-56 0 -104 -22.5t-79 -58.5t-48 -83.5t-16 -95t23.5 -94.5t65.5 -82l-94 -125q-57 43 -127.5 46.5t-128.5 -25.5t-97.5 -88.5t-39.5 -133.5q0 -75 37.5 -133t95 -83.5t121 -27.5
t123 34t92.5 102h145v-24q0 -64 -0.5 -106t-6 -122t-16 -133.5t-33 -106t-54.5 -73.5h284q-32 21 -54.5 74t-33 105.5t-16 134.5t-6 121t-0.5 106v24h143q30 -62 90 -100.5t133 -38.5q102 0 175 72t73 173z" />
    <glyph glyph-name="club" unicode="&#x2663;" 
d="M1778 528q0 -143 -104 -247.5t-255 -104.5q-78 0 -149.5 34.5t-122.5 96.5q0 -146 18.5 -237.5t66.5 -147.5t115.5 -80t178.5 -35l10 -28h-1024l10 28q74 7 126 19.5t97 36t72.5 59t47.5 90t28 126.5t8 171q-48 -61 -115 -94t-136 -35.5t-137.5 20.5t-121.5 67.5
t-86 112.5t-33 148q0 78 32 150.5t91.5 124t142.5 71t185 -7.5q-36 55 -48 117.5t-0.5 120.5t43 112.5t76.5 94.5t105.5 64t126.5 24q79 0 149.5 -34t117 -91t71 -125.5t14.5 -144.5t-55 -140q91 29 174 10t145 -67.5t99 -122.5t37 -156z" />
    <glyph glyph-name="uni25C9" unicode="&#x25c9;" 
d="M1026 -219q-200 0 -362.5 71.5t-262 189t-153.5 267t-54 306t54 306t153.5 267t262 189t362.5 71.5q199 0 360.5 -71.5t260 -189t152 -267t53.5 -306t-54 -306t-153 -267t-259.5 -189t-359.5 -71.5zM1026 1319q-170 0 -307.5 -60.5t-221.5 -160t-130 -226t-45.5 -259
t46.5 -259t130 -226t221.5 -160t306.5 -60.5q168 0 304.5 60.5t220 160t129.5 226t46 259t-45.5 259t-129 226t-220 160t-305.5 60.5zM1026 293q-77 0 -139 27.5t-100 73t-58.5 103t-20.5 118t20.5 118t58.5 103t100 73t139 27.5t139 -27.5t100 -73t58.5 -103t20.5 -118
t-21 -118t-59 -103t-100 -73t-138 -27.5z" />
    <glyph glyph-name="uni25C8" unicode="&#x25c8;" 
d="M1966 614l-946 -944l-946 942l946 949zM1782 612l-762 764l-762 -764l762 -759zM1509 612l-489 -489l-490 489l490 488z" />
    <glyph glyph-name="uni25A3" unicode="&#x25a3;" 
d="M1782 -143h-1516v1515h1516v-1515zM1653 -16v1261h-1258v-1261h1258zM1411 227h-774v774h774v-774z" />
    <glyph glyph-name="uni25D0" unicode="&#x25d0;" 
d="M1026 -223q-201 0 -364 72t-263 189.5t-154 268t-54 308t54 308t154 268t263 189.5t364 72q200 0 361.5 -72t260.5 -189.5t152.5 -268t53.5 -308t-54 -308t-153 -268t-260.5 -189.5t-360.5 -72zM1026 1317v-1413q168 0 304 60.5t219.5 160t129 226.5t45.5 259.5
t-45.5 259.5t-129 226.5t-219.5 160t-304 60.5z" />
    <glyph glyph-name="uni25D1" unicode="&#x25d1;" 
d="M1024 -223q-199 0 -360.5 72t-260.5 189.5t-153 268t-54 308t53.5 308t152.5 268t260.5 189.5t361.5 72q201 0 364 -72t263 -189.5t154 -268t54 -308t-54 -308t-154 -268t-263 -189.5t-364 -72zM1024 -90v1407q-135 0 -250.5 -39.5t-196.5 -107t-138.5 -157.5t-84 -191.5
t-26.5 -208t27 -208t84.5 -191.5t138.5 -157.5t196 -107t250 -39.5z" />
    <glyph glyph-name="shade" unicode="&#x2592;" 
d="M1782 -143h-1516v1515h1516v-1515z" />
    <glyph glyph-name="uni25A4" unicode="&#x25a4;" 
d="M1782 -143h-1516v1515h1516v-1515zM1720 1128v181h-1392v-181h1392zM1720 887v180h-1392v-180h1392zM1720 645v180h-1392v-180h1392zM1720 403v181h-1392v-181h1392zM1720 162v180h-1392v-180h1392zM1720 -80v180h-1392v-180h1392z" />
    <glyph glyph-name="uni25A5" unicode="&#x25a5;" 
d="M1782 -143h-1516v1515h1516v-1515zM1718 -82v1393h-180v-1393h180zM1477 -82v1393h-181v-1393h181zM1235 -82v1393h-180v-1393h180zM993 -82v1393h-180v-1393h180zM752 -82v1393h-181v-1393h181zM510 -82v1393h-180v-1393h180z" />
    <glyph glyph-name="uni25A8" unicode="&#x25a8;" 
d="M1782 -143h-1516v1515h1516v-1515zM565 1311h-237v-236zM842 1311h-195l-319 -318v-194zM1118 1311h-194l-596 -594v-195zM1395 1311h-195l-872 -871v-194zM1681 1311h-204l-1149 -1147v-205zM1720 788v195l-1065 -1065h195zM1720 236v194l-512 -512h195zM1720 1065v205
l-1353 -1352h206zM1720 512v195l-788 -789h194zM1720 -82v236l-235 -236h235z" />
    <glyph glyph-name="uni25A7" unicode="&#x25a7;" 
d="M1782 -143h-1516v1515h1516v-1515zM1720 1075v236h-235zM1720 799v194l-317 318h-195zM1720 522v195l-594 594h-194zM1720 246v194l-870 871h-195zM1720 -41v205l-1147 1147h-206zM1681 -82l-1353 1352v-205l1149 -1147h204zM1395 -82l-1067 1065v-195l872 -870h195z
M1118 -82l-790 789v-195l596 -594h194zM842 -82l-514 512v-194l319 -318h195zM565 -82l-237 236v-236h237z" />
    <glyph glyph-name="uni25A6" unicode="&#x25a6;" 
d="M1782 -143h-1516v1515h1516v-1515zM1718 1128v181h-180v-181h180zM1477 1128v181h-181v-181h181zM1718 887v180h-180v-180h180zM1235 1128v181h-180v-181h180zM1477 887v180h-181v-180h181zM1718 645v180h-180v-180h180zM993 1128v181h-180v-181h180zM1235 887v180h-180
v-180h180zM1477 645v180h-181v-180h181zM1718 403v181h-180v-181h180zM752 1128v181h-181v-181h181zM993 887v180h-180v-180h180zM1235 645v180h-180v-180h180zM1477 403v181h-181v-181h181zM1718 162v180h-180v-180h180zM510 1128v181h-180v-181h180zM752 887v180h-181
v-180h181zM993 645v180h-180v-180h180zM1235 403v181h-180v-181h180zM1477 162v180h-181v-180h181zM1718 -80v180h-180v-180h180zM510 887v180h-180v-180h180zM752 645v180h-181v-180h181zM993 403v181h-180v-181h180zM1235 162v180h-180v-180h180zM1477 -80v180h-181v-180
h181zM510 645v180h-180v-180h180zM752 403v181h-181v-181h181zM993 162v180h-180v-180h180zM1235 -80v180h-180v-180h180zM510 403v181h-180v-181h180zM752 162v180h-181v-180h181zM993 -80v180h-180v-180h180zM510 162v180h-180v-180h180zM752 -80v180h-181v-180h181z
M510 -80v180h-180v-180h180z" />
    <glyph glyph-name="uni25A9" unicode="&#x25a9;" 
d="M1782 -143h-1516v1515h1516v-1515zM1681 1311h-206l102 -105zM1720 1065v205l-102 -103zM1679 1024l-102 102l-98 -96l102 -102zM1536 1165l-102 103l-97 -97l101 -102zM1395 1311h-197l98 -99zM1720 788v195l-98 -96zM1542 887l-102 102l-99 -98l103 -103zM1679 748
l-98 98l-96 -98l96 -97zM1255 1171l-96 99l-98 -99l96 -98zM1399 1028l-103 102l-96 -98l103 -102zM1118 1311h-196l98 -99zM1720 512v195l-98 -97zM1118 1034l-98 96l-98 -96l98 -98zM1403 748l-103 102l-96 -98l101 -101zM1540 610l-96 97l-96 -99l96 -96zM1679 471
l-96 98l-98 -98l96 -96zM979 1171l-96 99l-99 -99l97 -98zM1260 889l-101 104l-98 -98l102 -102zM842 1311h-197l98 -99zM1720 236v194l-98 -96zM1266 610l-103 103l-98 -99l102 -102zM1403 471l-96 98l-99 -98l97 -96zM702 1171l-96 99l-98 -101l96 -96zM842 1034l-99 96
l-98 -98l98 -98zM979 895l-98 96l-99 -96l99 -98zM1122 752l-102 102l-98 -98l102 -103zM1540 332l-96 98l-98 -96l98 -98zM1679 195l-96 96l-98 -98l96 -95zM1720 -41v195l-98 -97zM565 1311h-198l98 -101zM426 1171l-98 99v-195zM1681 -82l-98 98l-100 -98h198zM983 614
l-102 103l-97 -99l103 -100zM1128 473l-104 102l-98 -98l104 -102zM1266 334l-97 96l-98 -96l96 -96zM1403 197l-96 96l-99 -98l99 -97zM1542 57l-98 97l-96 -99l98 -96zM563 1032l-96 98l-98 -96l98 -98zM702 895l-98 98l-96 -98l96 -98zM840 756l-97 98l-98 -96l98 -99z
M426 895l-98 98v-194zM1403 -82l-96 96l-99 -96h195zM702 621l-98 96l-96 -99l96 -96zM846 477l-103 101l-98 -97l103 -102zM989 334l-104 102l-97 -96l103 -104zM1126 195l-98 98l-96 -98l96 -97zM563 756l-96 98l-98 -96l98 -99zM1264 57l-97 97l-98 -97l98 -98zM426 618
l-98 99v-195zM1126 -82l-96 96l-100 -96h196zM850 197l-102 100l-97 -96l101 -103zM563 481l-96 97l-98 -97l98 -96zM707 338l-103 102l-96 -98l102 -102zM987 55l-96 101l-98 -99l98 -98zM426 342l-98 98v-194zM850 -82l-96 96l-99 -96h195zM569 199l-102 102l-98 -96
l102 -103zM713 57l-105 103l-98 -97l104 -104zM430 61l-102 103v-205zM573 -82l-104 102l-102 -102h206z" />
    <glyph glyph-name="uni2668" unicode="&#x2668;" 
d="M1413 588q6 -58 -21.5 -143t-78.5 -160q-21 -30 -32 -57.5t-12 -41t-5.5 -23t-16.5 -11.5q-9 -1 -20 27.5t-13 72t19 96.5q19 47 30 103.5t7 139t-35 152.5q-89 205 41 463q11 23 16.5 55.5t8.5 52t10 21.5q15 3 27.5 -27t12.5 -102t-22 -164q-12 -52 5.5 -128.5
t45.5 -169.5t33 -156zM1153 631q12 -75 -23 -177.5t-77 -164.5q-30 -45 -45 -83.5t-20 -53.5t-17 -19t-22 22q-22 59 -1 151q8 37 23 71q30 67 40.5 128.5t2 113t-19 85t-29.5 72.5q-24 51 -34.5 101.5t-11 85.5t12.5 81t21 66.5t30 64.5l27 54q20 42 26 93t7.5 77.5
t11.5 27.5q17 1 33.5 -48t18.5 -122t-24 -157q-17 -48 -19 -93.5t8.5 -89t24.5 -83t30.5 -95.5t25.5 -108zM870 588q6 -59 -21.5 -144.5t-78.5 -160.5q-21 -30 -31.5 -57t-11.5 -40.5t-5.5 -22.5t-16.5 -11q-9 -1 -20.5 27.5t-13.5 72t19 96.5q18 46 29 103t6.5 139.5
t-33.5 152.5q-96 220 49 463q14 22 24.5 54.5t16.5 52.5t13 22q13 3 19 -27.5t-1 -101.5t-29 -164q-12 -52 6 -128.5t46.5 -169.5t33.5 -156zM1819 246q0 -107 -89 -190.5t-231.5 -126t-314.5 -62.5t-344 0t-314.5 61.5t-231.5 121t-89 179.5q0 53 23 100t62.5 81t84 61
t96 46t89.5 30t73 18q21 4 26 -11q6 -17 -20 -27q-2 0 -4 -1q-20 -6 -44.5 -16t-69.5 -33t-79.5 -49t-61 -65t-26.5 -80q0 -55 46 -101t123 -75t177.5 -49.5t211.5 -24.5t222 1t211.5 26t177.5 50.5t123 75t46 99.5q0 51 -26.5 95t-68 72.5t-73.5 45t-62 26.5
q-23 7 -18 22.5t26 12.5q36 -7 76.5 -20.5t90.5 -40t89.5 -60t66 -84t26.5 -108.5z" />
    <glyph glyph-name="uni260F" unicode="&#x260f;" 
d="M1851 821q5 -40 -1 -64.5t-25 -35t-37 -13t-49 -1.5l-158 6q-60 2 -88 26.5t-41 104.5q-9 52 -42 83t-99 48v-101q0 -38 13 -65t33.5 -44.5t42 -33.5t43 -41t32.5 -57l151 -438q0 -16 -5.5 -55.5t-10.5 -71.5l-6 -31h-1155q-23 121 -23 158l152 438q11 32 32.5 57t43 41
t41.5 33.5t33 44.5t13 65v101q-66 -17 -99 -48t-42 -83q-13 -80 -41 -104.5t-88 -26.5l-158 -6q-31 -1 -49.5 1.5t-37.5 13t-25.5 35t-1.5 64.5q18 135 64.5 200t156.5 95q290 82 606 82t606 -82q110 -30 155.5 -94.5t63.5 -200.5zM1169 1004q-145 15 -290 0l18 -99
q46 6 127 6t127 -6zM1786 862q-14 97 -68.5 142.5t-175.5 78.5q-223 60 -516 60t-516 -60q-121 -33 -176.5 -78.5t-69.5 -142.5q-11 -66 2 -86.5t62 -19.5l127 4q42 2 60.5 25t31.5 96q22 123 244 159q104 19 235.5 19t235.5 -19q221 -36 243 -159q12 -73 30.5 -96t61.5 -25
l127 -4q49 -1 61 19.5t1 86.5zM1569 180l-139 408q-16 49 -41.5 79.5t-48 44t-43.5 30t-33.5 50.5t-12.5 91v108q-4 0 -13 1t-13 1l-27 -139q-169 17 -348 -2l-23 143l-26 -4v-108q0 -57 -12.5 -91t-33 -51t-43 -31t-48 -44t-41.5 -78l-140 -408l15 -88h1056zM1020 256
q-51 0 -94.5 17.5t-72 47t-49 67.5t-25 80.5t-1 85t23.5 80.5t49 67.5t74.5 47t100.5 17.5q53 0 97.5 -17.5t73.5 -47t49 -67.5t24.5 -80.5t0 -85t-25 -80.5t-50 -67.5t-75 -47t-100.5 -17.5zM1026 711q-56 0 -99 -22t-64.5 -57.5t-31 -78t1 -85t32.5 -78t63 -57.5t92 -22
q75 0 126.5 41t63.5 100t0.5 118t-61.5 100t-123 41z" />
    <glyph glyph-name="uni260E" unicode="&#x260e;" 
d="M1858 782q0 -48 -29.5 -62.5t-89.5 -12.5l-158 6q-110 3 -123 92q78 -26 199 -34.5t201 11.5zM1851 821q-96 -20 -200 -11.5t-199 34.5q-3 45 -45.5 83.5t-95.5 47.5v-101q0 -13 1 -23t1.5 -17t4 -14.5t5 -11.5t8 -12t10 -11.5t14.5 -15t17 -17.5q16 -17 41 -36.5
t38.5 -36t23.5 -46.5l151 -438q0 -16 -5.5 -56.5t-10.5 -72.5l-6 -33h-1155q-23 125 -23 162l152 438q10 30 23 46.5t38 36.5t41 36q7 7 21 22t17 18.5t10.5 14t8.5 18t2.5 20t1.5 29.5v101q-53 -9 -95.5 -47.5t-45.5 -83.5q-96 -27 -200 -35.5t-201 12.5q6 50 11 80.5
t15 63.5t24.5 53t37.5 40.5t55.5 34.5t77.5 27q278 78 606 78t606 -78q54 -15 90.5 -34.5t59 -41t36.5 -57.5t20.5 -71t12.5 -95zM594 805q-13 -89 -123 -92l-158 -6q-59 -2 -88.5 12.5t-29.5 62.5q80 -20 200.5 -11.5t198.5 34.5zM1225 991q-189 15 -402 -2l27 -147
q158 9 174 9t174 -7zM1026 766q-55 0 -100.5 -17.5t-74.5 -47t-49 -67.5t-23.5 -80.5t1 -85t25 -80.5t49 -67.5t72 -47t94.5 -17.5q55 0 100.5 17.5t75 47t50 67.5t25 80.5t0 85t-24.5 80.5t-49 67.5t-73.5 47t-97.5 17.5z" />
    <glyph glyph-name="uni261C" unicode="&#x261c;" 
d="M1810 244h-264v94h-20h-23t-21 -0.5t-24.5 -2.5t-23 -4.5t-26.5 -7t-26 -10.5q-41 -19 -82.5 -31.5t-69 -19t-73 -8.5t-62.5 -2.5t-71.5 2t-67.5 2.5q-34 -49 -125 -49q-47 0 -102 14.5t-101 50.5t-46 84q0 24 14 46.5t35 33.5q-33 31 -16.5 81t61.5 69q-17 14 -18.5 36
t7.5 41.5t23 34.5l-295 13q-120 4 -172 28q-67 31 -67 97q0 26 16.5 45t39 29t58.5 16t62.5 7.5t62.5 2.5q343 7 397 7.5t193 -1.5q35 22 80.5 27.5t83 0t92.5 -26t84.5 -35t85 -44.5t70.5 -37q3 -1 10 -4.5l8 -4t6.5 -2t7.5 -1.5t8 -1t12 -1h15v86h264v-655zM1681 299v545
h-79v-545h79zM1546 387v375q-11 0 -24.5 -0.5t-18 -0.5t-11.5 1.5t-15 5.5q-33 14 -94.5 49t-108 57t-102.5 39t-107 5.5t-94 -54.5l-30 -28q-30 -28 -53.5 -51.5t-46 -51.5t-22.5 -41q0 -67 90 -47q66 15 116 53q3 2 5 4l90 74l23 -26l-86 -95q46 -28 76 -73q11 -2 29 -4.5
t64.5 -6t82.5 -0.5q32 3 133 31q12 -15 13 -17t1 -12q-92 -35 -141 -41q-41 -4 -84.5 -4t-66.5 2l-23 2q-16 -54 -36 -76t-71 -30q0 -85 -65 -96v-31q250 -16 403 59q13 7 25.5 12t28 8t24 5t26.5 3t22.5 1h25.5h22zM1001 625q-3 0 -39 -12.5t-67 -12.5q-86 0 -150 78
q-30 -19 -31 -41t21.5 -41.5t45 -33t44.5 -23.5q34 -15 101 -38.5t90 -23.5q61 0 69 46q7 40 -27 75q-25 27 -57 27zM940 895q-101 0 -543 -4q-190 0 -190 -60q0 -26 22 -44t46 -24t49 -7q385 -11 469 -11zM942 446q-40 10 -96.5 35t-87.5 45q-62 31 -85 -1q-20 -26 5 -64
q21 -32 63 -49q34 -13 95.5 -28t91.5 -15q19 0 33.5 10t19.5 22.5t-4.5 25.5t-34.5 19zM887 328q-148 22 -219 73q-8 5 -16 -1.5t-12.5 -20.5t-2.5 -29q5 -44 75 -75t119 -31q68 0 87 36q14 26 -10 41q-9 5 -21 7z" />
    <glyph glyph-name="uni261E" unicode="&#x261e;" 
d="M238 244h264v94h20h23t21 -0.5t24.5 -2.5t23 -4.5t26.5 -7t26 -10.5q41 -19 82.5 -31.5t69 -19t73 -8.5t62.5 -2.5t71.5 2t67.5 2.5q34 -49 125 -49q47 0 102 14.5t101 50.5t46 84q0 24 -14 46.5t-35 33.5q33 31 16.5 81t-61.5 69q16 13 17 35.5t-7.5 42t-21.5 34.5
l295 13q120 4 172 28q67 31 67 97q0 26 -16.5 45t-39 29t-58.5 16t-62.5 7.5t-62.5 2.5q-343 7 -397.5 7.5t-192.5 -1.5q-35 22 -80.5 27.5t-83 0t-92.5 -26t-84.5 -35t-85 -44.5t-70.5 -37q-3 -1 -10 -4.5l-8 -4t-6.5 -2t-7.5 -1.5t-8 -1t-12 -1h-15v86h-264v-655zM367 299
v545h79v-545h-79zM502 387v375q11 0 24.5 -0.5t18 -0.5t11.5 1.5t15 5.5q33 14 94.5 49t107.5 57t102 39t107.5 5.5t94.5 -54.5q1 -1 43.5 -41t75.5 -77.5t33 -53.5q0 -66 -88 -47q-65 13 -116 51q-4 3 -7 6l-90 74l-23 -26l86 -95q-46 -28 -76 -73q-11 -2 -29.5 -4.5
t-65 -6t-81.5 -0.5q-32 3 -133 31q-14 -24 -14 -29q92 -35 141 -41q41 -4 84.5 -4t66.5 2l23 2q16 -54 36 -76t71 -30q0 -85 65 -96v-31q-252 -16 -403 59q-14 7 -27 12t-28 8t-23.5 5t-26.5 3t-22 1h-25h-22zM1047 625q3 0 39 -12.5t67 -12.5q86 0 150 78
q20 -13 26.5 -27.5t0.5 -28t-17.5 -26.5t-29 -24t-32 -19t-28.5 -14q-146 -62 -191 -62q-62 0 -70 46q-6 40 27 75q26 27 58 27zM1108 895q99 0 543 -4q190 0 190 -60q0 -26 -22 -44t-46 -24t-49 -7q-387 -11 -469 -11zM1106 446q40 10 96.5 35t87.5 45q62 31 85 -1
q20 -26 -5 -64q-21 -32 -63 -49q-34 -13 -95.5 -28t-91.5 -15q-19 0 -33.5 10t-19.5 22.5t4.5 25.5t34.5 19zM1161 328q144 21 219 73q7 5 14.5 -1.5t12.5 -20.5t4 -29q-7 -44 -76 -75t-118 -31q-69 0 -89 36q-13 26 12 41q8 5 21 7z" />
    <glyph glyph-name="paragraph" unicode="&#xb6;" 
d="M1372 -307h-123v1761h-205v-1761h-122v1044q-167 0 -277 82.5t-133 199.5t3.5 234.5t130.5 200t249 82.5h477v-1843z" />
    <glyph glyph-name="dagger" unicode="&#x2020;" 
d="M1255 1001q-18 5 -61 19.5t-67.5 20.5t-43.5 6q0 -90 66 -175q10 -12 21.5 -25t16 -17t8.5 -12t4 -9.5t-4 -11t-8.5 -15t-16 -22.5t-21.5 -33q-44 -72 -61 -271t-18.5 -443.5t-2.5 -264.5q-4 -65 -23.5 -91t-39 0t-23.5 91q-2 35 -3.5 191.5t-5 297t-22 287.5t-51.5 203
q-10 17 -20.5 33.5t-15.5 22.5t-8.5 15t-3.5 10.5t3.5 9.5t8.5 12t15.5 16.5t20.5 25.5q64 82 64 172q-14 0 -35.5 -4.5t-39 -10t-48 -15.5t-47.5 -15q-125 -38 -188 22q-45 42 -33 101q13 60 74 84t147 -2q19 -5 60.5 -18t67 -19t44.5 -6q1 17 -3.5 41.5t-9 42t-15.5 54
t-15 51.5q-37 134 22 205q40 48 97 38q59 -10 84 -73q27 -68 -1 -170q-4 -13 -12 -41.5t-12 -43.5t-9.5 -36.5t-7.5 -37t-2 -28.5q19 0 46 7t65 18.5t63 17.5q117 40 181 -18q46 -41 38 -101q-8 -62 -68.5 -87.5t-150.5 1.5z" />
    <glyph glyph-name="daggerdbl" unicode="&#x2021;" 
d="M1253 713q-18 5 -60.5 19t-66.5 20t-43 6q0 -89 66 -170q10 -12 20.5 -25t15.5 -17t8.5 -12.5t4 -10t-3.5 -11t-8 -15t-15.5 -22t-21.5 -31.5q-35 -55 -53.5 -156.5t-21 -190t-3 -200t-2.5 -147.5q-4 -65 -23.5 -91t-39 0t-23.5 91q-1 19 -2 194t-17.5 302t-60.5 198
q-10 16 -20.5 32t-15 22t-8.5 15t-4 10.5t4 9.5t8.5 12t15 17t20.5 26q64 83 64 168q-18 0 -44 -7t-65 -19.5t-61 -18.5q-127 -37 -187 24q-42 42 -27 100q14 59 74 81q59 22 140 -5q22 -5 83.5 -23t86.5 -18v187q-18 0 -44.5 -7.5t-64.5 -20.5t-61 -19q-127 -37 -187 24
q-42 42 -27 100q14 59 74 81q59 22 140 -5q22 -5 83.5 -23t86.5 -18q1 16 -3.5 40.5t-9 40.5t-15.5 54t-15 50q-38 133 21 202q41 48 98 37q58 -11 82 -74q25 -67 -3 -165l-12 -40t-12.5 -43.5t-9 -35.5t-7.5 -37t-2 -27q24 0 86 18t86 23q114 40 178 -17q45 -41 37 -101
q-9 -61 -70 -84q-58 -23 -145 2q-18 5 -60.5 19t-66.5 20t-43 6v-185q24 0 86 18t86 23q114 40 178 -17q45 -41 37 -101q-9 -61 -70 -84q-58 -23 -145 2z" />
    <glyph glyph-name="arrowupdn" unicode="&#x2195;" 
d="M1362 287l-338 -678l-340 678l234 -234v1123l-234 -234l340 678l338 -678l-234 234v-1123z" />
    <glyph glyph-name="uni2197" unicode="&#x2197;" 
d="M1982 1579l-321 -872l-4 395l-1446 -1450l-152 143l1450 1452h-407z" />
    <glyph glyph-name="uni2199" unicode="&#x2199;" 
d="M1989 1432l-1448 -1452h401l-879 -328l324 870l2 -397l1448 1450z" />
    <glyph glyph-name="uni2196" unicode="&#x2196;" 
d="M1978 -205l-151 -143l-1446 1450l-4 -395l-322 872l881 -332h-408z" />
    <glyph glyph-name="uni2198" unicode="&#x2198;" 
d="M1978 -348l-876 330h397l-1446 1452l152 141l1448 -1452l4 403z" />
    <glyph glyph-name="uni266D" unicode="&#x266d;" 
d="M1262 399q-1 -42 -18.5 -84.5t-38.5 -73.5t-60 -69t-62.5 -57.5t-66.5 -53.5q-93 -74 -240 -233v1563h74v-879q42 46 98.5 70.5t111 21.5t101.5 -24.5t75 -69t26 -111.5zM1110 377q0 110 -79 129q-60 14 -124 -27q-57 -35 -57 -78v-409q17 20 57 62t70.5 76.5t63 77.5
t51 86.5t18.5 82.5z" />
    <glyph glyph-name="uni2669" unicode="&#x2669;" horiz-adv-x="1024" 
d="M784 10q0 -59 -31 -113.5t-85 -95.5q-132 -99 -263 -84q-98 12 -142 80q-49 78 6 174q31 53 93 103q40 32 94 54t125.5 30t137.5 -19v1377h65v-1506z" />
    <glyph glyph-name="musicalnote" unicode="&#x266a;" 
d="M1354 150h-29q27 61 43 100t36.5 99.5t28.5 104t12.5 100.5t-5 103t-32 97.5t-60.5 97.5q-56 68 -134.5 115t-152.5 53v-1024q0 -118 -119 -209q-124 -96 -253 -84q-99 9 -145 76q-53 76 2 172q31 56 95 108q161 133 354 68v1374h66q1 -6 7.5 -53.5t11 -66.5t15.5 -58.5
t29.5 -72.5t44.5 -66q36 -43 108 -121t101 -113q75 -93 105.5 -194.5t17.5 -205t-49 -199.5t-98 -201z" />
    <glyph glyph-name="uni266C" unicode="&#x266c;" 
d="M1679 285q0 -59 -31 -113.5t-85 -95.5q-132 -99 -263 -84q-98 11 -142 79q-49 77 6 173q31 54 93 104q48 38 108 63.5t127 31t122 -26.5v463l-805 -172v-609q0 -60 -30.5 -115t-84.5 -96q-133 -100 -264 -84q-97 12 -140 81q-50 77 7 174q31 53 92 102q31 25 71 45t88 34
t100.5 11t96.5 -25v961l934 198v-1099zM1614 1083v84l-805 -174v-82z" />
    <glyph glyph-name="uni327F" unicode="&#x327f;" 
d="M1024 -180q288 0 494 178h-175l-380 559l-97 -102v-457h-245v1268h245v-486l437 486h190q-100 84 -221 129t-248 45q-190 0 -349 -80t-261 -225t-125 -330h227v-172h-453q8 195 63 357.5t144 277t208 194t256.5 117t289.5 37.5q137 0 266.5 -37.5t243.5 -111t205.5 -176
t156 -238.5t91.5 -293h-211q-45 260 -217 444l-437 -471l463 -667q144 163 174 389h-229v172h452q-11 -242 -91.5 -432.5t-211.5 -309t-297.5 -180t-357.5 -61.5q-172 0 -331.5 60t-288 168.5t-219.5 270.5t-124 357h211q26 -153 98 -282t173 -215.5t225 -134.5t256 -48z
" />
    <glyph glyph-name="uni321C" unicode="&#x321c;" 
d="M1610 1440v-244h-418q42 -141 180.5 -247t341.5 -158l-133 -211q-129 17 -301.5 123t-257.5 245q-53 -92 -159 -175.5t-211 -131.5t-187 -61l-133 211q204 50 341.5 156.5t180.5 248.5h-420v244h1176zM877 -242v426h-517v244h1326v-244h-517v-426h-292zM2011 629
q0 -493 -227 -910h-182q124 254 167 467t43 443q0 228 -43 440t-167 467h182q227 -415 227 -907zM35 629q0 487 227 907h182q-123 -257 -167 -469.5t-44 -437.5q0 -227 44 -441t167 -469h-182q-227 423 -227 910z" />
    <glyph glyph-name="afii61352" unicode="&#x2116;" 
d="M928 -197h-213l-400 1041v-1041h-247v1667h211l401 -1040v1040h248v-1667zM1399 1128q84 0 151 -37t110.5 -99.5t72.5 -151t41 -186t12 -208.5q0 -142 -20.5 -260t-64 -215t-120.5 -152t-182 -55q-83 0 -148.5 37t-108 99t-70.5 150.5t-40 186t-12 209.5t12 209t40 185.5
t70.5 151t108 99.5t148.5 37zM1544 446q0 91 -6 162t-21 136t-45 100t-73 35q-142 0 -142 -433q0 -92 6 -163.5t21 -135t44 -97.5t71 -34q44 0 73.5 34t44.5 98t21 134.5t6 163.5zM2023 23v-285h-237v285h237z" />
    <glyph glyph-name="uni33C7" unicode="&#x33c7;" 
d="M1399 1128q84 0 151 -37t110.5 -99.5t72.5 -151t41 -186t12 -208.5q0 -142 -20.5 -260t-64 -215t-120.5 -152t-182 -55q-83 0 -148.5 37t-108 99t-70.5 150.5t-40 186t-12 209.5t12 209t40 185.5t70.5 151t108 99.5t148.5 37zM1544 446q0 91 -6 162t-21 136t-45 100
t-73 35q-142 0 -142 -433q0 -92 6 -163.5t21 -135t44 -97.5t71 -34q44 0 73.5 34t44.5 98t21 134.5t6 163.5zM737 307h252q-10 -244 -134.5 -392t-309.5 -148q-160 0 -275.5 107t-175 300.5t-59.5 452.5q0 419 124.5 647.5t370.5 228.5q200 0 320.5 -149t126.5 -398h-252
q-12 152 -54 216.5t-134 64.5q-112 0 -173 -151.5t-61 -460.5q0 -297 65 -444.5t177 -147.5q174 0 192 274zM2023 23v-285h-237v285h237z" />
    <glyph glyph-name="trademark" unicode="&#x2122;" 
d="M1798 700h-203v377l-137 -364h-86l-137 366v-379h-207v926h182l207 -563l203 563h178v-926zM233 1448v178h734v-178h-248v-748h-238v748h-248z" />
    <glyph glyph-name="uni33C2" unicode="&#x33c2;" 
d="M2028 25v-285h-195v285h195zM901 25v-283h-194v283h194zM446 256v174q-225 -87 -225 -287q0 -133 90 -133q74 0 104.5 60.5t30.5 185.5zM662 -193h-183l-8 48q-71 -78 -217 -78q-116 0 -183 97.5t-67 242.5q0 53 7.5 100.5t19.5 85t32 72.5t38.5 60t46.5 50t48.5 40.5
t52.5 33.5t50.5 27.5t48.5 23.5q63 29 82 66t19 108q0 55 -22.5 82t-74.5 27q-58 0 -83.5 -53t-30.5 -156h-218q3 194 94.5 322.5t243.5 128.5q159 0 231.5 -96.5t72.5 -329.5v-902zM944 -195v1278h215v-47q20 25 66.5 39.5t100 3t79.5 -56.5q64 72 164 72
q104 0 162.5 -90.5t58.5 -274.5v-924h-217v850q0 185 -47 185q-56 0 -56 -170v-865h-206v873q0 55 -4 90t-12 49.5t-15 18.5t-19 4q-53 0 -53 -174v-861h-217z" />
    <glyph glyph-name="uni33D8" unicode="&#x33d8;" 
d="M41 -430v1522h217v-7q74 45 152 45q173 0 264.5 -162t91.5 -444q0 -275 -95.5 -442.5t-260.5 -167.5q-71 0 -140 39v-383h-229zM393 893q-65 0 -102 -96.5t-37 -259.5q0 -375 149 -375q70 0 106 97t36 271q0 171 -39 267t-113 96zM895 25v-283h-195v283h195zM2028 25
v-285h-195v285h195zM944 -195v1278h215v-47q20 25 66.5 39.5t100 3t79.5 -56.5q64 72 164 72q104 0 162.5 -90.5t58.5 -274.5v-924h-217v850q0 185 -47 185q-56 0 -56 -170v-865h-206v873q0 55 -4 90t-12 49.5t-15 18.5t-19 4q-53 0 -53 -174v-861h-217z" />
    <glyph glyph-name="uni2121" unicode="&#x2121;" 
d="M913 1470v-264h-327v-1403h-277v1403h-293v264h897zM1987 1481v-1678h-269v1678h269zM1008 522h323q-8 355 -166 355q-143 0 -157 -355zM1591 270h-567q7 -250 162 -250q129 0 157 154h250q-28 -194 -143 -300.5t-272 -106.5q-206 0 -321.5 174t-115.5 493q0 342 111 519
t319 177q112 0 198 -68.5t136.5 -187t72.5 -273t13 -331.5z" />
    <glyph glyph-name="uniFF01" unicode="&#xff01;" 
d="M1202 1501l-37 -1249h-286l-35 1249h358zM1198 90v-338h-348v338h348z" />
    <glyph glyph-name="uniFF02" unicode="&#xff02;" 
d="M958 1051h-184l-43 587h268zM1266 1051h-185l-34 587h270z" />
    <glyph glyph-name="uniFF03" unicode="&#xff03;" 
d="M1604 279h-275l-84 -476h-291l88 476h-198l-86 -476h-291l88 476h-240l39 233h242l68 362h-261l39 232h267l65 369h287l-66 -369h201l64 369h288l-67 -369h250l-39 -232h-252l-66 -362h268zM952 874l-65 -362h198l66 362h-199z" />
    <glyph glyph-name="uniFF04" unicode="&#xff04;" 
d="M1143 1632v-200q180 -34 294 -155t111 -312h-282q-12 152 -123 215v-428q118 -42 195 -82t136.5 -93.5t86 -122t26.5 -159.5q0 -94 -36.5 -174t-98.5 -136t-141 -92.5t-168 -50.5v-192h-234v196q-195 37 -321 175.5t-125 349.5h287q3 -97 44.5 -170t114.5 -107v461
q-111 39 -188 79.5t-135 95t-85.5 125.5t-27.5 163q0 182 122.5 289.5t313.5 130.5v194h234zM1288 293q0 60 -35 103.5t-110 78.5v-389q68 27 106.5 84t38.5 123zM776 1028q0 -64 31.5 -108t101.5 -80v358q-61 -19 -97 -63t-36 -107z" />
    <glyph glyph-name="uniFF05" unicode="&#xff05;" 
d="M614 1487q161 0 250.5 -125t89.5 -348q0 -226 -89.5 -350.5t-250.5 -124.5t-250.5 124.5t-89.5 350.5q0 223 89.5 348t250.5 125zM612 1249q-46 0 -71 -63.5t-25 -173.5q0 -114 24.5 -176t71.5 -62q46 0 73.5 63.5t27.5 174.5q0 107 -27.5 172t-73.5 65zM1434 717
q161 0 250.5 -125.5t89.5 -349.5q0 -223 -89.5 -348t-250.5 -125t-250.5 125t-89.5 348q0 224 89.5 349.5t250.5 125.5zM1432 477q-46 0 -71.5 -64t-25.5 -173q0 -111 25 -173.5t72 -62.5t73.5 62.5t26.5 173.5q0 108 -26.5 172.5t-73.5 64.5zM772 -209h-280l792 1677h277z
" />
    <glyph glyph-name="uniFF06" unicode="&#xff06;" 
d="M991 727l271 -328q32 70 51.5 168.5t19.5 184.5h285q0 -148 -49.5 -311.5t-114.5 -250.5l297 -356h-360l-113 137q-86 -85 -202 -134t-226 -54q-116 -5 -216 22.5t-175.5 83.5t-118 147.5t-41.5 207.5q2 137 76 273.5t219 246.5q-162 203 -172 346q-7 83 24 156.5
t88 123.5t134 78.5t161 28.5q185 0 299.5 -106.5t106.5 -257.5q-6 -103 -75 -210t-169 -196zM592 236q0 -101 68 -154t165 -53q71 0 146 38.5t135 110.5l-340 389q-174 -148 -174 -331zM709 1118q6 -54 32.5 -101t77.5 -106q64 55 93 105.5t34 109.5q5 57 -23.5 100.5
t-93.5 43.5q-60 0 -93 -46t-27 -106z" />
    <glyph glyph-name="uniFF07" unicode="&#xff07;" 
d="M1120 1051h-219l-29 587h304z" />
    <glyph glyph-name="uniFF08" unicode="&#xff08;" horiz-adv-x="1024" 
d="M418 608q0 131 26 288t93 345t165 326h238q-86 -143 -141.5 -278t-80 -259t-32.5 -216t-8 -206q0 -116 8 -211t32.5 -224t80 -267.5t141.5 -280.5h-238q-100 138 -167 328t-92 351t-25 304z" />
    <glyph glyph-name="uniFF09" unicode="&#xff09;" horiz-adv-x="1024" 
d="M602 608q0 -104 -15 -223.5t-47 -253t-89.5 -267.5t-133.5 -239h-235q69 115 118.5 232t76 211t41.5 199.5t18.5 177t3.5 163.5q0 91 -3.5 161t-18.5 171t-41.5 192t-76 205.5t-118.5 229.5h237q75 -105 132 -239t88.5 -264t47 -245.5t15.5 -210.5z" />
    <glyph glyph-name="uniFF0A" unicode="&#xff0a;" 
d="M1204 1090l254 -281l-217 -158l-215 305l-219 -309l-219 168l264 270l-328 93l90 256l299 -140l-24 326h282l-26 -324l282 134l95 -244z" />
    <glyph glyph-name="uniFF0B" unicode="&#xff0b;" 
d="M1180 1118v-338h297v-250h-297v-352h-310v352h-299v250h299v338h310z" />
    <glyph glyph-name="uniFF0C" unicode="&#xff0c;" 
d="M1186 158v-166q0 -112 -61 -239.5t-130 -180.5l-112 43q51 49 87 133t38 137h-146v273h324z" />
    <glyph glyph-name="uniFF0D" unicode="&#xff0d;" 
d="M635 522v264h776v-264h-776z" />
    <glyph glyph-name="uniFF0E" unicode="&#xff0e;" 
d="M1190 72v-330h-332v330h332z" />
    <glyph glyph-name="uniFF0F" unicode="&#xff0f;" 
d="M838 -229h-306l680 1736h301z" />
    <glyph glyph-name="uniFF10" unicode="&#xff10;" 
d="M1556 633q0 -442 -136.5 -652t-401.5 -210q-264 0 -396.5 209.5t-132.5 652.5q0 442 132.5 652t396.5 210q538 0 538 -862zM807 633q0 -302 47 -450t164 -148q62 0 105 39t67.5 118.5t35.5 186t11 254.5t-11 254t-35.5 184.5t-67.5 117t-105 38.5q-61 0 -102 -38.5
t-65 -117.5t-34 -184.5t-10 -253.5z" />
    <glyph glyph-name="uniFF11" unicode="&#xff11;" 
d="M1325 1473v-1668h-324v1399h-280v221z" />
    <glyph glyph-name="uniFF12" unicode="&#xff12;" 
d="M1581 68v-263h-1073v220l493 567q230 262 230 424q0 111 -53 166t-164 55q-104 0 -161 -85t-62 -218h-324q0 264 149.5 418.5t399.5 154.5q259 0 401 -125t142 -350q0 -51 -8.5 -100t-21 -89t-35.5 -83.5t-42.5 -74t-51.5 -72t-53.5 -66.5t-58 -67t-55.5 -64l-295 -348
h643z" />
    <glyph glyph-name="uniFF13" unicode="&#xff13;" 
d="M866 547v237q152 -13 260.5 58t108.5 182q0 112 -55.5 164.5t-167.5 52.5q-99 0 -160.5 -68t-67.5 -196h-311q6 246 156 387t393 141q231 0 375.5 -117.5t144.5 -316.5q0 -108 -44 -211t-136 -166q233 -121 233 -422q0 -228 -159.5 -370t-419.5 -142q-253 0 -406 143.5
t-159 397.5h325q9 -268 246 -268q112 0 181 67.5t69 194.5q0 72 -35 124.5t-95 80t-129 39t-147 8.5z" />
    <glyph glyph-name="uniFF14" unicode="&#xff14;" 
d="M420 324l690 1146h334v-1101h184v-263h-184v-303h-311v303h-713v218zM776 365h357v610z" />
    <glyph glyph-name="uniFF15" unicode="&#xff15;" 
d="M793 541h-287l100 927h912v-258h-621l-43 -338q112 77 303 56q188 -21 301 -171.5t113 -406.5q0 -125 -38.5 -232.5t-109.5 -186.5t-179 -124t-240 -45q-143 0 -261.5 56.5t-192.5 169.5t-73 262h314q9 -215 217 -215q123 0 183 81t60 228q0 158 -59.5 245t-183.5 87
q-86 0 -135.5 -34t-79.5 -101z" />
    <glyph glyph-name="uniFF16" unicode="&#xff16;" 
d="M1536 1063h-307q-9 83 -56.5 127.5t-119.5 44.5q-229 0 -256 -418q117 109 315 109q199 -2 332 -163.5t133 -408.5q0 -165 -64.5 -299.5t-186.5 -214.5t-279 -80q-286 0 -432 195t-146 620q0 247 38.5 424.5t116 288t187.5 162t258 51.5q190 0 315.5 -116.5t151.5 -321.5
zM1036 27q115 0 176.5 81.5t61.5 231.5q0 161 -62 242.5t-178 81.5q-117 0 -182.5 -84.5t-65.5 -235.5q0 -136 66.5 -226.5t183.5 -90.5z" />
    <glyph glyph-name="uniFF17" unicode="&#xff17;" 
d="M487 1206v264h1072v-210q-64 -71 -127 -171t-125 -240t-110.5 -297t-80.5 -352.5t-37 -396.5h-336q5 224 46.5 439.5t108.5 392.5t137 314t151 257h-699z" />
    <glyph glyph-name="uniFF18" unicode="&#xff18;" 
d="M1534 1077q0 -101 -47 -201.5t-135 -166.5q114 -63 188 -176.5t74 -237.5q0 -241 -157.5 -389t-438.5 -148q-138 0 -250 40.5t-184 112t-111 166t-39 204.5q0 133 73.5 246.5t201.5 185.5q-95 63 -145 158.5t-50 193.5q0 200 133 320t375 120q232 0 372 -120t140 -308z
M1024 16q125 0 197.5 72.5t72.5 196.5q0 113 -74 183.5t-196 70.5t-194 -68.5t-72 -185.5q0 -124 71 -196.5t195 -72.5zM1024 842q96 0 155.5 59t59.5 152q0 96 -59 153.5t-156 57.5q-96 0 -155.5 -57.5t-59.5 -153.5q0 -93 60 -152t155 -59z" />
    <glyph glyph-name="uniFF19" unicode="&#xff19;" 
d="M510 199h307q11 -83 59 -127.5t130 -44.5q234 0 249 393q-116 -113 -327 -103q-200 11 -329.5 172t-129.5 408q0 263 146 433.5t384 170.5q143 0 248 -42.5t180.5 -135.5t113.5 -246.5t38 -369.5q0 -487 -145.5 -716t-446.5 -231q-186 -2 -318 115.5t-159 323.5z
M1010 1235q-112 0 -176 -85.5t-64 -236.5q0 -161 63 -247t177 -86q116 0 181.5 87.5t65.5 239.5q0 142 -63.5 235t-183.5 93z" />
    <glyph glyph-name="uniFF1A" unicode="&#xff1a;" 
d="M1194 401v-340h-342v340h342zM1194 1225v-342h-342v342h342z" />
    <glyph glyph-name="uniFF1B" unicode="&#xff1b;" 
d="M1192 414v-201q0 -111 -62.5 -241t-130.5 -183l-129 53q51 52 84.5 131.5t36.5 143.5h-137v297h338zM1194 1225v-340h-342v340h342z" />
    <glyph glyph-name="uniFF1C" unicode="&#xff1c;" 
d="M1985 1145l-500 -508l500 -543v-375l-793 850v113l793 838v-375z" />
    <glyph glyph-name="uniFF1D" unicode="&#xff1d;" 
d="M614 756v250h818v-250h-818zM614 301v250h818v-250h-818z" />
    <glyph glyph-name="uniFF1E" unicode="&#xff1e;" 
d="M561 637l-500 508v375l793 -838v-113l-793 -850v375z" />
    <glyph glyph-name="uniFF1F" unicode="&#xff1f;" 
d="M1174 233h-318q0 105 6 191q5 67 20.5 118.5t46.5 95.5t63.5 76t88.5 79q70 60 107 125t37 151q0 105 -52.5 152t-138.5 47q-107 0 -160 -69.5t-59 -209.5h-307q-3 130 37 234.5t112.5 172t170 103t212.5 35.5q228 0 364 -114.5t136 -323.5q0 -275 -231 -473
q-74 -63 -101.5 -109t-31.5 -119q-2 -49 -2 -162zM1190 90v-338h-348v338h348z" />
    <glyph glyph-name="uniFF20" unicode="&#xff20;" 
d="M1778 793q0 -125 -39.5 -257.5t-108.5 -230.5h185q-69 -118 -151 -210t-162.5 -150t-168.5 -96t-167 -53t-160 -15q-358 0 -565.5 189.5t-207.5 541.5q0 138 39.5 272.5t115.5 249.5t178 203t236.5 138t282.5 50q317 0 505 -174t188 -458zM1233 1012l8 26h211
q-58 79 -152 124.5t-208 45.5q-130 0 -244.5 -59t-193 -156.5t-124 -225t-45.5 -261.5q0 -502 521 -502q211 0 376 129q-88 -25 -168.5 -6t-117.5 80q-90 -83 -228 -88q-160 -6 -234.5 84.5t-74.5 257.5q0 114 40 223.5t107 192.5t160 133.5t193 50.5q104 0 174 -49z
M807 451q0 -47 19.5 -76t60.5 -29q58 0 115.5 75.5t90.5 172.5t33 168q0 76 -59 76q-108 0 -184 -114.5t-76 -272.5zM1530 797q0 111 -51 202l-187 -583q0 -2 -2 -8t-2.5 -9t-2 -9t-2 -9.5t-0.5 -8.5t0.5 -8t2 -6.5t4 -5t6.5 -2.5q92 -15 163 115t71 332z" />
    <glyph glyph-name="uniFF21" unicode="&#xff21;" 
d="M1432 -197l-119 371h-578l-121 -371h-338l590 1667h314l592 -1667h-340zM1227 434l-203 619l-207 -619h410z" />
    <glyph glyph-name="uniFF22" unicode="&#xff22;" 
d="M395 -197v1667h682q96 0 180 -25t149 -73t102.5 -125.5t37.5 -175.5q0 -94 -37 -185t-116 -153q128 -60 194 -170.5t66 -245.5q0 -98 -33 -188.5t-95 -164t-164 -117.5t-228 -44h-738zM717 63h346q141 0 208.5 75.5t67.5 205.5q0 68 -29.5 115.5t-85 73t-122 36.5
t-154.5 11h-231v-517zM717 842h311q95 0 149 50.5t54 147.5q0 43 -12.5 74t-32.5 49t-51.5 28.5t-62 13.5t-71.5 3h-284v-366z" />
    <glyph glyph-name="uniFF23" unicode="&#xff23;" 
d="M1348 307h311q-11 -161 -95.5 -285t-217.5 -189.5t-293 -65.5q-209 0 -360 107t-228.5 300.5t-77.5 452.5q0 418 163.5 647t483.5 229q173 0 308.5 -67.5t214 -192t85.5 -287.5h-311q-32 281 -291 281q-148 0 -240.5 -154.5t-92.5 -457.5q0 -149 27.5 -264.5t76 -186
t110 -106t132.5 -35.5q119 0 201 72t94 202z" />
    <glyph glyph-name="uniFF24" unicode="&#xff24;" 
d="M412 1470h397q194 0 343.5 -45.5t259 -140.5t167 -249.5t57.5 -364.5q0 -410 -210.5 -638.5t-577.5 -228.5h-436v1667zM733 1208v-1145h144q219 0 332.5 162t113.5 443q0 126 -24 219.5t-68 154.5t-114 98.5t-153 52.5t-194 15h-37z" />
    <glyph glyph-name="uniFF25" unicode="&#xff25;" 
d="M487 -197v1667h1051v-262h-723v-399h707v-264h-707v-482h744v-260h-1072z" />
    <glyph glyph-name="uniFF26" unicode="&#xff26;" 
d="M498 -197v1667h1052v-262h-725v-422h709v-264h-709v-719h-327z" />
    <glyph glyph-name="uniFF27" unicode="&#xff27;" 
d="M1673 729v-553q-60 -193 -229 -304t-397 -108q-116 1 -216.5 34t-185.5 102.5t-145 172t-93.5 250t-33.5 328.5q0 217 50 382.5t141 267t211.5 152t268.5 50.5q273 0 445 -146t172 -384h-311q-15 132 -89.5 201t-205.5 69q-74 1 -138.5 -36t-115 -109t-80 -189
t-29.5 -266q0 -284 97.5 -449t277.5 -165q118 0 192 48.5t99 127.5v262h-340v262h655z" />
    <glyph glyph-name="uniFF28" unicode="&#xff28;" 
d="M1606 1470v-1667h-326v742h-514v-742h-326v1667h326v-661h514v661h326z" />
    <glyph glyph-name="uniFF29" unicode="&#xff29;" 
d="M1188 1470v-1667h-330v1667h330z" />
    <glyph glyph-name="uniFF2A" unicode="&#xff2a;" 
d="M1524 1470v-1173q0 -127 -31 -230.5t-92.5 -180t-161.5 -118.5t-231 -42q-75 0 -145 19.5t-132 61.5t-107.5 102.5t-72.5 148t-27 192.5h324q6 -121 50.5 -181.5t117.5 -60.5q90 0 136 69.5t46 219.5v1173h326z" />
    <glyph glyph-name="uniFF2B" unicode="&#xff2b;" 
d="M696 1470v-639l553 639h400l-615 -696l639 -971h-368l-488 729l-121 -137v-592h-321v1667h321z" />
    <glyph glyph-name="uniFF2C" unicode="&#xff2c;" 
d="M485 -197v1667h332v-1402h746v-265h-1078z" />
    <glyph glyph-name="uniFF2D" unicode="&#xff2d;" 
d="M1763 -197h-311v861l-342 -842h-176l-338 840v-859h-313v1667h278l463 -1204l459 1204h280v-1667z" />
    <glyph glyph-name="uniFF2E" unicode="&#xff2e;" 
d="M1628 -197h-285l-606 1076v-1076h-319v1667h284l609 -1077v1077h317v-1667z" />
    <glyph glyph-name="uniFF2F" unicode="&#xff2f;" 
d="M1638 635q0 -868 -622 -868q-302 0 -455 210.5t-153 657.5t153 657.5t455 210.5q622 0 622 -868zM725 635q0 -136 12.5 -237.5t43 -190t90.5 -135.5t147 -47q61 0 109 21.5t80 63.5t54 95t34 125t17 144t5 161q0 107 -7 191t-26.5 165.5t-52 135t-86.5 86t-127 32.5
q-71 0 -123.5 -32.5t-84.5 -86.5t-51.5 -134.5t-26.5 -165.5t-7 -191z" />
    <glyph glyph-name="uniFF30" unicode="&#xff30;" 
d="M436 -197v1667h608q117 0 218.5 -36.5t180.5 -107.5t124 -184.5t45 -258.5q0 -144 -48 -264t-130 -197t-187 -119.5t-221 -42.5h-264v-457h-326zM983 1208h-223v-684h217q145 0 233 94t88 265q0 163 -84 244t-231 81z" />
    <glyph glyph-name="uniFF31" unicode="&#xff31;" 
d="M1575 635q0 -345 -96 -551l223 -199l-193 -200l-206 182q-140 -98 -351 -98q-302 0 -455 210t-153 656q0 447 153 657.5t455 210.5q623 0 623 -868zM662 635q0 -107 7 -191t26.5 -165t51 -135t84 -86.5t123.5 -32.5q73 0 127 32.5t86.5 86t52 135t26.5 165.5t7 191
q0 89 -5 161t-17 144t-34 125t-54 95t-80 63.5t-109 21.5q-71 0 -123.5 -32.5t-84 -86t-51 -134.5t-26.5 -165.5t-7 -191.5z" />
    <glyph glyph-name="uniFF32" unicode="&#xff32;" 
d="M401 -197v1667h674q235 0 374.5 -123t139.5 -343q0 -120 -60 -233.5t-163 -176.5q92 -59 126 -128t44 -183q28 -311 109 -480h-326q-47 119 -88 424q-8 63 -23.5 105t-46.5 72.5t-80.5 44.5t-122.5 14h-231v-660h-326zM1001 1208h-278v-481h270q137 0 206 72.5t69 193.5
q0 215 -267 215z" />
    <glyph glyph-name="uniFF33" unicode="&#xff33;" 
d="M1292 256q0 90 -64 146.5t-227 107.5q-149 46 -247.5 91.5t-172.5 108.5t-107.5 145.5t-33.5 193.5q0 116 46 206t126 145t181 83t217 28q119 0 223.5 -33.5t186.5 -97.5t129 -167t46 -232h-313q-8 127 -80 201.5t-196 74.5q-117 0 -177.5 -56.5t-60.5 -147.5
q0 -84 68 -149t233 -116q152 -47 250 -92.5t169.5 -107t102.5 -142t31 -190.5q0 -119 -50 -216.5t-134 -158.5t-190 -93t-222 -30q-121 2 -229 43t-191 114.5t-131 185.5t-47 247h317q5 -149 79 -238t210 -92q125 -1 191.5 68t66.5 170z" />
    <glyph glyph-name="uniFF34" unicode="&#xff34;" 
d="M1655 1470v-266h-465v-1401h-328v1401h-471v266h1264z" />
    <glyph glyph-name="uniFF35" unicode="&#xff35;" 
d="M1270 412v1058h325v-1097q0 -282 -150 -444t-425 -162q-274 0 -421.5 162.5t-147.5 445.5v1095h325v-1058q0 -93 11.5 -160.5t39 -118.5t75.5 -76.5t118 -25.5q135 0 192.5 98t57.5 283z" />
    <glyph glyph-name="uniFF36" unicode="&#xff36;" 
d="M1176 -197h-306l-536 1667h344l344 -1171l348 1171h344z" />
    <glyph glyph-name="uniFF37" unicode="&#xff37;" 
d="M1143 1466l192 -1046l197 1050h326l-349 -1667h-252l-235 922l-236 -922h-249l-349 1667h326l197 -1046l192 1042h240z" />
    <glyph glyph-name="uniFF38" unicode="&#xff38;" 
d="M721 -197h-344l473 828l-485 839h354l305 -563l307 563h352l-483 -841l475 -826h-346l-305 549z" />
    <glyph glyph-name="uniFF39" unicode="&#xff39;" 
d="M862 291l-551 1179h346l365 -854l364 854h349l-551 -1181v-486h-322v488z" />
    <glyph glyph-name="uniFF3A" unicode="&#xff3a;" 
d="M1577 1251l-739 -1188h759v-260h-1146v207l741 1198h-711v262h1096v-219z" />
    <glyph glyph-name="uniFF3B" unicode="&#xff3b;" horiz-adv-x="1024" 
d="M442 -373v1938h519v-211h-248v-1516h248v-211h-519z" />
    <glyph glyph-name="uniFFE6" unicode="&#xffe6;" 
d="M1516 -236h-302l-684 1749h299z" />
    <glyph glyph-name="uniFF3D" unicode="&#xff3d;" horiz-adv-x="1024" 
d="M580 1565v-1938h-519v211h248v1516h-248v211h519z" />
    <glyph glyph-name="uniFF3E" unicode="&#xff3e;" 
d="M1124 1638l387 -819h-303l-186 447l-186 -447h-301l383 819h206z" />
    <glyph glyph-name="uniFF3F" unicode="&#xff3f;" 
d="M1456 78v-262h-866v262h866z" />
    <glyph glyph-name="uniFF40" unicode="&#xff40;" 
d="M1114 1638l141 -587h-206l-258 587h323z" />
    <glyph glyph-name="uniFF41" unicode="&#xff41;" 
d="M1538 -195h-274l-13 74q-121 -113 -348 -110q-128 1 -219.5 53t-133.5 133.5t-42 181.5q0 98 26 173t69 123.5t113.5 84t143 55t174.5 37.5q125 23 161 55t30 109q-5 55 -52 85t-131 26q-98 -6 -153 -58t-64 -145h-301q7 93 43 174t99.5 145t162.5 101t222 37
q253 0 370 -123.5t117 -368.5v-842zM1237 309v121q-57 -43 -203 -70q-124 -25 -173.5 -72.5t-49.5 -121.5q0 -71 39.5 -107t114.5 -36q135 0 203.5 74.5t68.5 211.5z" />
    <glyph glyph-name="uniFF42" unicode="&#xff42;" 
d="M1008 -231q-139 16 -230 104l-12 -70h-279v1686h324v-502q89 91 236 103q152 12 269 -66.5t180 -232.5t63 -359q0 -211 -73.5 -369.5t-199 -235t-278.5 -58.5zM1030 825q-106 0 -166.5 -100.5t-60.5 -296.5q0 -190 60.5 -293.5t160.5 -103.5q112 0 167.5 97t55.5 302
q0 203 -54 299t-163 96z" />
    <glyph glyph-name="uniFF43" unicode="&#xff43;" 
d="M1059 27q83 0 131 52t59 146h297q-1 -106 -44.5 -195t-114 -146t-158.5 -88.5t-180 -31.5q-260 0 -403.5 180.5t-143.5 483.5q0 158 32.5 285.5t98 221t170 144.5t241.5 51q136 0 248.5 -58.5t181 -171.5t68.5 -259h-293q-6 103 -56.5 165t-137.5 62q-64 0 -111.5 -34.5
t-75 -96.5t-40.5 -139t-13 -170q0 -195 57 -298t187 -103z" />
    <glyph glyph-name="uniFF44" unicode="&#xff44;" 
d="M1034 -231q-247 -17 -397 162.5t-150 500.5q0 314 145.5 490.5t381.5 164.5q55 -2 119 -26.5t102 -67.5v496h324v-1686h-279l-8 64q-37 -42 -104 -67.5t-134 -30.5zM1018 825q-109 0 -163 -96t-54 -299q0 -205 55.5 -302t167.5 -97q99 0 160 104t61 293
q0 196 -60.5 296.5t-166.5 100.5z" />
    <glyph glyph-name="uniFF45" unicode="&#xff45;" 
d="M809 522h438q-4 185 -64 270t-157 85q-92 0 -150 -88.5t-67 -266.5zM1550 270h-723q3 -112 58 -181t168 -69q77 0 128 39.5t68 114.5h295q-37 -189 -167.5 -295t-311.5 -112q-266 0 -416.5 169t-150.5 498q0 341 139 518.5t397 177.5q134 0 234 -55.5t161.5 -161t91 -250
t29.5 -329.5v-64z" />
    <glyph glyph-name="uniFF46" unicode="&#xff46;" 
d="M1458 1061v-266h-317v-992h-324v992h-250v266h250v186q0 158 78.5 237.5t218.5 84.5q186 9 367 -62l-56 -233q-111 49 -192 45q-49 -2 -70.5 -29.5t-21.5 -97.5v-131h317z" />
    <glyph glyph-name="uniFF47" unicode="&#xff47;" 
d="M1559 1112v-1018q0 -114 -27 -206.5t-83.5 -164.5t-151 -112t-220.5 -41q-267 0 -471 74l43 264q151 -55 238 -73t178 -9q101 9 144.5 62.5t45.5 170.5q-51 -39 -113 -55t-161 -16q-100 0 -187.5 36t-156.5 106t-108.5 182.5t-39.5 254.5q0 133 39.5 244t107.5 186
t160.5 116.5t198.5 41.5q73 0 150 -23t131 -73v53h283zM1032 897q-102 0 -167.5 -84t-65.5 -240t58.5 -244.5t156.5 -88.5q111 0 171 89.5t60 258.5q0 151 -58 230t-155 79z" />
    <glyph glyph-name="uniFF48" unicode="&#xff48;" 
d="M502 -197v1686h323v-504q106 108 269 121q137 8 240 -47.5t156.5 -158t53.5 -236.5v-861h-321v797q0 114 -50.5 169.5t-138.5 53.5q-90 0 -149.5 -72t-59.5 -167v-781h-323z" />
    <glyph glyph-name="uniFF49" unicode="&#xff49;" 
d="M1188 1020v-1217h-328v1217h328zM1206 1505v-342h-364v342h364z" />
    <glyph glyph-name="uniFF4A" unicode="&#xff4a;" 
d="M981 1022h326v-1051q0 -204 -124 -302.5t-337 -98.5q-72 0 -125 6v242q44 -6 121 -2q75 5 107 39t32 114v1053zM1325 1507v-342h-364v342h364z" />
    <glyph glyph-name="uniFF4B" unicode="&#xff4b;" 
d="M762 1489v-836l430 449h416l-553 -563l540 -736h-370l-381 531l-82 -80v-451h-324v1686h324z" />
    <glyph glyph-name="uniFF4C" unicode="&#xff4c;" 
d="M1188 1489v-1686h-330v1686h330z" />
    <glyph glyph-name="uniFF4D" unicode="&#xff4d;" 
d="M870 -197v846q0 107 -32 147t-80 38q-54 -2 -86.5 -58.5t-32.5 -154.5v-818h-315v1282h313v-63q77 74 188 84q82 8 156.5 -25t112.5 -94q105 105 235 117q75 7 144 -12t126 -63.5t91 -124t34 -183.5v-918h-309v844q0 191 -112 187q-54 -2 -85.5 -56.5t-31.5 -150.5v-824
h-316z" />
    <glyph glyph-name="uniFF4E" unicode="&#xff4e;" 
d="M504 -197v1282h319v-86q52 45 121 72.5t131 32.5q93 9 177.5 -15t149 -75t102.5 -131.5t38 -177.5v-902h-321v820q0 111 -49 160.5t-138 47.5q-76 -2 -141.5 -72.5t-65.5 -166.5v-789h-323z" />
    <glyph glyph-name="uniFF4F" unicode="&#xff4f;" 
d="M1018 1130q115 0 206.5 -37t151.5 -99.5t100 -150.5t57 -185.5t17 -208.5q0 -112 -17 -210t-57 -186t-100 -150.5t-151.5 -99t-206.5 -36.5q-114 0 -204 36.5t-149 99t-97.5 150.5t-55 185.5t-16.5 210.5q0 112 16.5 209t55 185t97.5 150.5t149 99.5t204 37zM1237 449
q0 88 -10.5 160.5t-34.5 134t-68.5 96t-105.5 34.5q-60 0 -103 -34.5t-66 -96t-33.5 -134t-10.5 -160.5q0 -426 213 -426q61 0 105.5 34t68.5 95.5t34.5 134t10.5 162.5z" />
    <glyph glyph-name="uniFF50" unicode="&#xff50;" 
d="M494 -430v1522h313v-56q94 91 237 99q234 18 371 -155.5t137 -469.5q0 -141 -35.5 -259.5t-100.5 -203.5t-164.5 -128.5t-221.5 -33.5q-127 13 -213 80v-395h-323zM1016 877q-98 0 -152.5 -93.5t-54.5 -261.5q0 -191 51 -285t168 -94q211 0 211 373q0 361 -223 361z" />
    <glyph glyph-name="uniFF51" unicode="&#xff51;" 
d="M1552 1092v-1522h-323v393q-83 -70 -213 -78q-162 -11 -281.5 68t-180 223.5t-60.5 333.5q0 292 135.5 459t374.5 166q63 0 127 -23.5t110 -73.5v54h311zM1032 877q-225 0 -225 -361q0 -373 213 -373q116 0 166.5 94t50.5 285q0 167 -54 261t-151 94z" />
    <glyph glyph-name="uniFF52" unicode="&#xff52;" 
d="M639 -197v1282h328v-122q83 86 203 129.5t239 35.5v-268q-101 6 -204 -43t-170.5 -134t-67.5 -175v-705h-328z" />
    <glyph glyph-name="uniFF53" unicode="&#xff53;" 
d="M1214 152q0 62 -50 99t-189 68q-214 50 -324 146.5t-110 261.5q0 105 40.5 186t110 128.5t153.5 71.5t179 24q97 0 184 -28t156 -82t111 -141.5t45 -197.5h-310q-3 88 -50.5 140.5t-131.5 52.5q-82 0 -124 -34t-42 -97q0 -64 46 -103t184 -72q110 -27 188.5 -60.5
t137.5 -81.5t87.5 -113.5t28.5 -151.5q0 -87 -29.5 -157.5t-78.5 -117t-115.5 -78t-138 -45.5t-148.5 -14q-98 0 -186.5 31t-158.5 89t-115 148.5t-52 202.5h311q9 -107 62.5 -162t146.5 -55q182 0 182 142z" />
    <glyph glyph-name="uniFF54" unicode="&#xff54;" 
d="M1147 821v-717q0 -63 24 -83.5t82 -20.5q98 0 195 25v-240q-110 -32 -291 -37q-334 -9 -334 328v745h-241v262h241v414h324v-414h317v-262h-317z" />
    <glyph glyph-name="uniFF55" unicode="&#xff55;" 
d="M520 238v847h324v-813q0 -124 41.5 -178.5t130.5 -48.5q78 5 133 71t55 167v802h322v-1282h-293v80q-62 -58 -143 -84t-156 -24q-191 3 -302.5 131t-111.5 332z" />
    <glyph glyph-name="uniFF56" unicode="&#xff56;" 
d="M1153 -197h-258l-477 1282h342l262 -815l266 815h340z" />
    <glyph glyph-name="uniFF57" unicode="&#xff57;" 
d="M829 -197h-223l-317 1282h323l154 -725l154 711h206l154 -715l154 729h323l-319 -1282h-221l-195 660z" />
    <glyph glyph-name="uniFF58" unicode="&#xff58;" 
d="M805 -197h-361l400 641l-406 641h363l221 -385l221 385h365l-408 -643l397 -639h-348l-229 381z" />
    <glyph glyph-name="uniFF59" unicode="&#xff59;" 
d="M768 1085l236 -766l282 766h340l-465 -1134q-33 -80 -63 -136t-70 -104t-87.5 -76.5t-111 -44.5t-143.5 -16h-207v246h150q39 0 68.5 6t48.5 15t35 26.5t24.5 32t21.5 39.5l11 20l-416 1126h346z" />
    <glyph glyph-name="uniFF5A" unicode="&#xff5a;" 
d="M1499 874l-579 -806h596v-263h-986v218l576 806h-553v258h946v-213z" />
    <glyph glyph-name="uniFF5B" unicode="&#xff5b;" horiz-adv-x="1024" 
d="M702 1151v-193q0 -48 -3 -77.5t-15.5 -67.5t-40.5 -73t-74 -72q33 -23 57 -47t38.5 -54t22.5 -50t11 -59.5t3.5 -56t0.5 -63.5v-297q0 -75 53.5 -128.5t129.5 -53.5h96v-234h-94q-219 0 -327.5 118t-108.5 343v156v36q0 30 0.5 58t-3.5 54t-10.5 49t-20.5 42.5
t-34.5 34.5t-52 25t-72.5 14v227q36 4 64 11t48 19t34 22.5t23 31t14 34t7 42.5t2.5 46t0.5 54v13v96q0 203 119 310.5t343 107.5h68v-234h-92q-88 0 -137.5 -45t-49.5 -139z" />
    <glyph glyph-name="uniFF5C" unicode="&#xff5c;" 
d="M1167 1530v-1782h-288v1782h288z" />
    <glyph glyph-name="uniFF5D" unicode="&#xff5d;" horiz-adv-x="1024" 
d="M319 958v193q0 94 -49 139t-137 45h-92v234h68q224 0 343 -107.5t119 -310.5v-96v-13q0 -41 0.5 -60.5t4 -51t10.5 -47t21 -36t34.5 -31t51 -20t71.5 -14.5v-227q-48 -4 -82.5 -17t-55 -32.5t-33.5 -44.5t-16.5 -54t-5.5 -62t0 -67v-36v-156q0 -225 -108.5 -343
t-327.5 -118h-94v234h96q76 0 129 53.5t53 128.5v297q0 45 0.5 63.5t3.5 56.5t11.5 59t23 50.5t38.5 53.5t57 47q-87 70 -110.5 132.5t-23.5 157.5z" />
    <glyph glyph-name="uniFFE3" unicode="&#xffe3;" 
d="M154 1376v262h1740v-262h-1740z" />
    <glyph glyph-name="uni3131" unicode="&#x3131;" 
d="M287 969v268h1456v-1079h-336v811h-1120z" />
    <glyph glyph-name="uni3132" unicode="&#x3132;" 
d="M1065 973v264h799v-1083h-328v819h-471zM180 973v264h776v-213l-139 -870h-332l131 819h-436z" />
    <glyph glyph-name="uni3133" unicode="&#x3133;" 
d="M66 973v264h858v-1083h-330v819h-528zM2032 307l-230 -157q-71 62 -167.5 190.5t-145.5 234.5q-61 -129 -152.5 -260.5t-167.5 -199.5l-241 149q190 180 283.5 407.5t93.5 440.5v139h327v-133q0 -184 117.5 -420.5t282.5 -390.5z" />
    <glyph glyph-name="uni3134" unicode="&#x3134;" 
d="M307 178v1059h328v-797h1145v-262h-1473z" />
    <glyph glyph-name="uni3135" unicode="&#x3135;" 
d="M92 178v1059h322v-797h551v-131q152 129 253 308t101 333h-340v269h1006v-269h-347q0 -134 127 -318t279 -300l-217 -172q-71 46 -169 153t-163 211q-65 -117 -160.5 -228t-169.5 -163l-200 127v-82h-873z" />
    <glyph glyph-name="uni3136" unicode="&#x3136;" 
d="M956 473q0 121 66.5 208.5t178.5 131t255 43.5t255 -43.5t178.5 -131t66.5 -208.5q0 -122 -67 -210.5t-179 -132.5t-254 -44q-143 0 -255 44t-178.5 132.5t-66.5 210.5zM2003 1171v-264h-1118v264h403v183h328v-183h387zM1272 473q0 -64 47 -99.5t137 -35.5t138 35.5
t48 99.5q0 63 -48.5 99t-137.5 36t-136.5 -36t-47.5 -99zM92 178v1059h322v-797h510v-262h-832z" />
    <glyph glyph-name="uni3137" unicode="&#x3137;" 
d="M307 178v1059h1430v-266h-1102v-527h1124v-266h-1452z" />
    <glyph glyph-name="uni3138" unicode="&#x3138;" 
d="M143 164v1073h809v-264h-491v-545h518v-264h-836zM1067 164v1073h823v-264h-508v-545h529v-264h-844z" />
    <glyph glyph-name="uni3139" unicode="&#x3139;" 
d="M287 90v737h1126v181h-1126v264h1454v-709h-1125v-209h1160v-264h-1489z" />
    <glyph glyph-name="uni313A" unicode="&#x313a;" 
d="M1120 1004v268h828v-1182h-324v914h-504zM78 90v737h645v181h-645v264h950v-709h-645v-209h676v-264h-981z" />
    <glyph glyph-name="uni313B" unicode="&#x313b;" 
d="M1087 90v1180h883v-1180h-883zM78 90v737h592v181h-592v264h897v-709h-592v-209h606v-264h-911zM1393 1008v-654h272v654h-272z" />
    <glyph glyph-name="uni313C" unicode="&#x313c;" 
d="M1970 1272v-1182h-883v1182h306v-352h272v352h305zM78 90v737h592v181h-592v264h897v-709h-592v-209h606v-264h-911zM1393 354h272v295h-272v-295z" />
    <glyph glyph-name="uni313D" unicode="&#x313d;" 
d="M78 90v737h627v181h-627v264h932v-709h-627v-209h633v-61q152 185 231.5 412.5t79.5 424.5v146h326v-139q0 -195 116.5 -454.5t276.5 -418.5l-236 -162q-70 67 -162 203.5t-139 243.5q-58 -133 -150 -275.5t-165 -210.5l-178 107v-80h-938z" />
    <glyph glyph-name="uni313E" unicode="&#x313e;" 
d="M78 90v737h612v181h-612v264h917v-709h-612v-209h629v-264h-934zM1116 90v1182h846v-262h-530v-185h530v-264h-530v-207h553v-264h-869z" />
    <glyph glyph-name="uni313F" unicode="&#x313f;" 
d="M1051 90v262h120l-26 656h-119v262h969v-262h-109l-26 -654h145v-264h-954zM1444 1008l20 -654h105l20 654h-145zM78 90v737h592v181h-592v264h897v-709h-592v-209h606v-264h-911z" />
    <glyph glyph-name="uni3140" unicode="&#x3140;" 
d="M1047 465q0 182 131.5 290.5t339.5 108.5q210 0 340.5 -108.5t130.5 -290.5q0 -184 -131.5 -294t-339.5 -110t-339.5 110t-131.5 294zM1346 465q0 -67 46.5 -111.5t125.5 -44.5q82 0 129 44.5t47 111.5q0 66 -47 111t-129 45q-79 0 -125.5 -45t-46.5 -111zM2030 1176
v-265h-1020v265h342v161h327v-161h351zM68 90v737h591v181h-591v264h897v-709h-592v-209h606v-264h-911z" />
    <glyph glyph-name="uni3141" unicode="&#x3141;" 
d="M287 154v1083h1472v-1083h-1472zM614 973v-555h818v555h-818z" />
    <glyph glyph-name="uni3142" unicode="&#x3142;" 
d="M1759 1260v-1106h-1472v1106h327v-283h818v283h327zM614 418h818v289h-818v-289z" />
    <glyph glyph-name="uni3143" unicode="&#x3143;" 
d="M1821 1257v-1103h-1594v1103h330v-288h303v288h328v-288h303v288h330zM1188 420h303v282h-303v-282zM557 702v-282h303v282h-303z" />
    <glyph glyph-name="uni3144" unicode="&#x3144;" 
d="M2048 307l-229 -157q-72 62 -168.5 191t-145.5 234q-61 -130 -152 -261t-167 -199l-158 96v-57h-950v1106h305v-287h340v287h305v-908q148 171 220.5 372t72.5 388v160h328v-154q0 -184 117.5 -420.5t281.5 -390.5zM383 420h340v287h-340v-287z" />
    <glyph glyph-name="uni3145" unicode="&#x3145;" 
d="M1198 1266v-68q0 -247 189.5 -477t500.5 -352l-192 -219q-109 40 -233 121.5t-245.5 200t-195.5 241.5q-71 -122 -193.5 -239.5t-246.5 -198.5t-234 -125l-186 219q309 122 497.5 352t188.5 477v68h350z" />
    <glyph glyph-name="uni3146" unicode="&#x3146;" 
d="M1550 1249v-108q0 -225 93 -448t294 -396l-235 -166q-79 60 -171 167t-147 220q-71 -141 -170.5 -241t-189.5 -138q-88 37 -187.5 137.5t-172.5 245.5q-53 -117 -142.5 -222.5t-173.5 -166.5l-237 166q90 72 159 157.5t111.5 169t70 176t38 173.5t10.5 166v108h329v-139
q0 -241 52 -385t143 -233q60 56 100 126.5t67.5 196t27.5 295.5v139h331z" />
    <glyph glyph-name="uni3147" unicode="&#x3147;" 
d="M1829 692q0 -123 -45.5 -223t-122 -166t-181 -110.5t-218.5 -64t-238 -19.5q-104 0 -202 15t-189 45t-166.5 78t-131.5 111t-87 148.5t-31 185.5q0 118 44.5 216t120.5 165t180 113t220 67t242 21q123 0 238 -21t218.5 -67.5t180.5 -113t122.5 -164.5t45.5 -216z
M1497 692q0 63 -21.5 114t-59.5 84.5t-84.5 58t-101.5 37.5t-105 18.5t-101 5.5t-101.5 -5.5t-106 -18.5t-102 -37.5t-84.5 -58t-59.5 -84.5t-21.5 -114q0 -64 21 -115.5t59 -85.5t84 -58t101.5 -36.5t106 -18t103.5 -5.5q63 0 122 7.5t125 29t114 55t80 92.5t32 135z" />
    <glyph glyph-name="uni3148" unicode="&#x3148;" 
d="M1763 1237v-270h-559q37 -213 229 -387t457 -261l-194 -219q-74 24 -163.5 70.5t-183 110t-181.5 149t-146 174.5q-53 -88 -141 -174t-182.5 -150t-185 -110.5t-163.5 -69.5l-192 219q266 87 456 260.5t226 387.5h-555v270h1478z" />
    <glyph glyph-name="uni3149" unicode="&#x3149;" 
d="M1808 1237v-270h-264q6 -198 98 -380t259 -337l-228 -150q-73 51 -159.5 154t-133.5 205q-56 -119 -161 -219.5t-195 -133.5q-82 29 -186.5 131t-169.5 226q-44 -104 -125.5 -203t-161.5 -162l-236 148q336 285 359 721h-266v270h1570zM1024 412q91 82 142 208t55 347
h-392q3 -152 31 -264.5t66.5 -175t97.5 -115.5z" />
    <glyph glyph-name="uni314A" unicode="&#x314a;" 
d="M1767 1165v-270h-550q36 -131 137 -248t237.5 -201t298.5 -137l-198 -219q-101 32 -220.5 98t-246.5 173t-203 223q-70 -114 -198 -221.5t-249 -174t-221 -98.5l-196 219q250 81 433.5 236t237.5 350h-550v270h569v258h350v-258h569z" />
    <glyph glyph-name="uni314B" unicode="&#x314b;" 
d="M287 969v268h1472v-1079h-336v319h-1136v268h1136v224h-1136z" />
    <glyph glyph-name="uni314C" unicode="&#x314c;" 
d="M289 84v1188h1456v-264h-1129v-183h1129v-264h-1129v-213h1151v-264h-1478z" />
    <glyph glyph-name="uni314D" unicode="&#x314d;" 
d="M1808 422v-268h-1570v268h272l-33 549h-225v268h1542v-268h-225l-31 -549h270zM801 971l30 -549h386l28 549h-444z" />
    <glyph glyph-name="uni314E" unicode="&#x314e;" 
d="M1708 444q0 -93 -37.5 -166t-100.5 -120t-152 -78t-186 -44t-208 -13q-141 0 -260.5 23t-217.5 71t-154 131.5t-56 195.5q0 91 37 163.5t100.5 121t152 81t187.5 46.5t211 14q111 0 208.5 -14t186 -46t151.5 -80t100.5 -121t37.5 -165zM1776 1208v-264h-1508v264h582v199
h348v-199h578zM1378 446q0 62 -48 102.5t-125 57.5t-181 17q-78 0 -141 -9.5t-112 -30t-76 -55.5t-27 -82q0 -176 356 -176q105 0 181 16t124.5 56.5t48.5 103.5z" />
    <glyph glyph-name="uni314F" unicode="&#x314f;" 
d="M1178 1542v-715h321v-284h-321v-867h-330v1866h330z" />
    <glyph glyph-name="uni3150" unicode="&#x3150;" 
d="M1491 1542v-1866h-320v871h-297v-860h-319v1845h319v-705h297v715h320z" />
    <glyph glyph-name="uni3151" unicode="&#x3151;" 
d="M1178 1542v-323h305v-281h-305v-494h305v-280h-305v-488h-330v1866h330z" />
    <glyph glyph-name="uni3152" unicode="&#x3152;" 
d="M1491 1542v-1866h-320v504h-297v-493h-319v1845h319v-307h297v317h320zM874 944v-485h297v485h-297z" />
    <glyph glyph-name="uni3153" unicode="&#x3153;" 
d="M1444 1542v-1866h-330v899h-487v285h487v682h330z" />
    <glyph glyph-name="uni3154" unicode="&#x3154;" 
d="M1067 1532v-1845h-319v907h-406v285h406v653h319zM1253 -324v1866h320v-1866h-320z" />
    <glyph glyph-name="uni3155" unicode="&#x3155;" 
d="M1444 1542v-1866h-330v486h-467v276h467v486h-467v276h467v342h330z" />
    <glyph glyph-name="uni3156" unicode="&#x3156;" 
d="M1067 1532v-1845h-319v477h-404v285h404v460h-404v285h404v338h319zM1253 -324v1866h320v-1866h-320z" />
    <glyph glyph-name="uni3157" unicode="&#x3157;" 
d="M1917 -268h-1786v268h719v694h346v-694h721v-268z" />
    <glyph glyph-name="uni3158" unicode="&#x3158;" 
d="M1802 1542v-694h234v-285h-234v-887h-329v1866h329zM1360 -252h-1303v268h473v639h330v-639h500v-268z" />
    <glyph glyph-name="uni3159" unicode="&#x3159;" 
d="M1960 1542v-1866h-320v871h-151v-860h-320v1845h320v-705h151v715h320zM1092 -252h-1035v268h342v631h330v-631h363v-268z" />
    <glyph glyph-name="uni315A" unicode="&#x315a;" 
d="M1905 1542v-1866h-330v1866h330zM1462 -252h-1394v268h493v639h330v-639h571v-268z" />
    <glyph glyph-name="uni315B" unicode="&#x315b;" 
d="M1917 -268h-1786v268h344v666h336v-666h426v666h336v-666h344v-268z" />
    <glyph glyph-name="uni315C" unicode="&#x315c;" 
d="M1196 -344h-346v688h-739v268h1826v-268h-741v-688z" />
    <glyph glyph-name="uni315D" unicode="&#x315d;" 
d="M1915 1542v-1866h-330v269h-436v254h436v1343h330zM829 -297h-329v700h-432v269h1384v-269h-623v-700z" />
    <glyph glyph-name="uni315E" unicode="&#x315e;" 
d="M1524 1532v-1845h-320v299h-311v252h311v1294h320zM1640 -324v1866h320v-1866h-320zM707 -297h-320v700h-330v267h1035v-267h-385v-700z" />
    <glyph glyph-name="uni315F" unicode="&#x315f;" 
d="M1905 1542v-1866h-330v1866h330zM870 -297h-329v662h-473v268h1394v-268h-592v-662z" />
    <glyph glyph-name="uni3160" unicode="&#x3160;" 
d="M784 -340h-335v684h-338v268h1826v-268h-338v-684h-335v684h-480v-684z" />
    <glyph glyph-name="uni3161" unicode="&#x3161;" 
d="M1917 -186h-1786v268h1786v-268z" />
    <glyph glyph-name="uni3162" unicode="&#x3162;" 
d="M1864 1542v-1866h-330v1866h330zM1421 -252h-1312v268h1312v-268z" />
    <glyph glyph-name="uni3163" unicode="&#x3163;" 
d="M1188 1542v-1866h-330v1866h330z" />
    <glyph glyph-name="uni3165" unicode="&#x3165;" 
d="M92 170v1069h322v-805h551v-264h-873zM1090 170v1069h321v-805h551v-264h-872z" />
    <glyph glyph-name="uni3166" unicode="&#x3166;" 
d="M1077 164v1075h842v-264h-524v-547h549v-264h-867zM92 170v1069h322v-805h551v-264h-873z" />
    <glyph glyph-name="uni3167" unicode="&#x3167;" 
d="M72 170v1069h321v-805h541v-139q184 180 277.5 404t93.5 431v130h327v-123q0 -184 118 -422.5t282 -392.5l-230 -160q-70 62 -167 194t-146 238q-62 -129 -156 -262t-170 -199l-229 141v-104h-862z" />
    <glyph glyph-name="uni3168" unicode="&#x3168;" 
d="M983 164l426 1114h203l428 -1114h-1057zM1511 836l-153 -426h305zM72 170v1069h321v-805h551v-264h-872z" />
    <glyph glyph-name="uni3169" unicode="&#x3169;" 
d="M729 999v273h592v-1043q203 410 203 885v158h299v-156q0 -188 76.5 -461t183.5 -456l-225 -105q-92 161 -164 387q-21 -91 -70.5 -209t-97.5 -196l-205 82v-68h-299v909h-293zM16 90v737h381v181h-381v264h668v-709h-379v-209h402v-264h-691z" />
    <glyph glyph-name="uni316A" unicode="&#x316a;" 
d="M1137 90v1182h825v-264h-512v-654h535v-264h-848zM78 90v737h633v181h-633v264h938v-709h-633v-209h649v-264h-954z" />
    <glyph glyph-name="uni316B" unicode="&#x316b;" 
d="M2083 199l-223 -105q-76 132 -156 385q-22 -92 -67 -208t-91 -195l-172 69v-55h-655v1182h266v-314h125v314h264v-975q162 387 162 799v176h295v-174q0 -185 74 -449t178 -450zM16 90v737h361v181h-361v264h648v-709h-359v-209h365v-264h-654zM985 354h125v340h-125v-340
z" />
    <glyph glyph-name="uni316C" unicode="&#x316c;" 
d="M78 90v737h592v181h-592v264h897v-709h-592v-209h606v-248l420 1190h203l428 -1206h-1962zM1511 817l-153 -481h305z" />
    <glyph glyph-name="uni316D" unicode="&#x316d;" 
d="M1073 496q0 196 128.5 318t328.5 122q198 0 325 -122t127 -318q0 -198 -127.5 -321.5t-324.5 -123.5q-200 0 -328.5 123.5t-128.5 321.5zM2001 1272v-258h-940v258h940zM1364 496q0 -82 41.5 -140.5t124.5 -58.5q84 0 126 58.5t42 140.5t-42 140t-126 58
q-83 0 -124.5 -58t-41.5 -140zM78 90v737h592v181h-592v264h897v-709h-592v-209h606v-264h-911z" />
    <glyph glyph-name="uni316E" unicode="&#x316e;" 
d="M78 150v1089h903v-1089h-903zM1083 150v1089h306v-272h276v272h305v-1089h-887zM383 977v-563h293v563h-293zM1389 414h276v288h-276v-288z" />
    <glyph glyph-name="uni316F" unicode="&#x316f;" 
d="M2042 313l-230 -159q-70 62 -166 192.5t-145 235.5q-58 -130 -147 -259.5t-166 -197.5l-207 125v-100h-903v1089h903v-926q169 176 252.5 390.5t83.5 416.5v125h328v-119q0 -184 117 -421.5t280 -391.5zM383 977v-563h293v563h-293z" />
    <glyph glyph-name="uni3170" unicode="&#x3170;" 
d="M983 150l426 1124h203l428 -1124h-1057zM1511 821l-153 -426h305zM78 150v1089h903v-1089h-903zM383 977v-563h293v563h-293z" />
    <glyph glyph-name="uni3171" unicode="&#x3171;" 
d="M285 694v828h1478v-828h-1478zM1798 178q0 -405 -774 -405q-110 0 -205.5 8.5t-185 27t-158.5 50.5t-121.5 75.5t-80 105.5t-27.5 138q0 114 60.5 197t170 129.5t244.5 68t303 21.5q774 0 774 -416zM596 1264v-312h856v312h-856zM1479 180q0 166 -455 166
q-459 0 -459 -166q0 -85 116.5 -122.5t342.5 -37.5q455 0 455 160z" />
    <glyph glyph-name="uni3172" unicode="&#x3172;" 
d="M1141 991v269h807v-1110h-324v841h-483zM78 154v1106h305v-287h360v287h306v-1106h-971zM383 420h360v287h-360v-287z" />
    <glyph glyph-name="uni3173" unicode="&#x3173;" 
d="M78 154v1106h305v-287h360v287h306v-1106h-971zM383 420h360v287h-360v-287zM1157 150v1110h762v-265h-444v-581h479v-264h-797z" />
    <glyph glyph-name="uni3174" unicode="&#x3174;" 
d="M1593 283l-235 -125q-52 69 -107.5 164.5t-93.5 181.5q-37 -94 -92 -197t-100 -162l-174 80v-71h-771v1106h289v-295h191v295h291v-895q98 152 146 337.5t48 362.5v195h311v-189q0 -181 86.5 -406t210.5 -382zM1380 987v273h635v-1106h-307v833h-328zM309 420h191v278
h-191v-278z" />
    <glyph glyph-name="uni3175" unicode="&#x3175;" 
d="M1430 154v82l-146 -78q-99 136 -182 344q-37 -94 -89 -196.5t-95 -160.5l-146 66v-57h-752v1106h289v-295h170v295h293v-848q160 294 160 635v213h303v-207q0 -145 52 -311.5t143 -321.5v840h587v-269h-297v-569h314v-268h-604zM309 420h170v278h-170v-278z" />
    <glyph glyph-name="uni3176" unicode="&#x3176;" 
d="M1221 133l-226 150q149 122 255 333t106 379h-295v265h932v-265h-322q0 -140 119 -350.5t254 -320.5l-205 -164q-64 44 -154 155.5t-157 223.5q-66 -124 -153.5 -241t-153.5 -165zM51 154v1106h305v-287h330v287h305v-1106h-940zM356 420h330v287h-330v-287z" />
    <glyph glyph-name="uni3177" unicode="&#x3177;" 
d="M78 154v1106h305v-287h350v287h305v-1106h-960zM1145 150v1110h815v-263h-500v-153h500v-264h-500v-166h522v-264h-837zM383 420h350v287h-350v-287z" />
    <glyph glyph-name="uni3178" unicode="&#x3178;" 
d="M1763 1536v-842h-1478v842h311v-168h856v168h311zM596 948h856v176h-856v-176zM1798 178q0 -405 -774 -405q-110 0 -205.5 8.5t-185 27t-158.5 50.5t-121.5 75.5t-80 105.5t-27.5 138q0 114 60.5 197t170 129.5t244.5 68t303 21.5q774 0 774 -416zM1479 180
q0 166 -455 166q-459 0 -459 -166q0 -85 116.5 -122.5t342.5 -37.5q455 0 455 160z" />
    <glyph glyph-name="uni3179" unicode="&#x3179;" 
d="M1821 1536v-852h-1594v852h330v-178h303v178h328v-178h303v178h330zM557 1114v-184h303v184h-303zM1188 930h303v184h-303v-184zM1798 178q0 -405 -774 -405q-110 0 -205.5 8.5t-185 27t-158.5 50.5t-121.5 75.5t-80 105.5t-27.5 138q0 114 60.5 197t170 129.5t244.5 68
t303 21.5q774 0 774 -416zM1479 180q0 166 -455 166q-459 0 -459 -166q0 -85 116.5 -122.5t342.5 -37.5q455 0 455 160z" />
    <glyph glyph-name="uni317A" unicode="&#x317a;" 
d="M1149 315l-229 -159q-74 63 -178 196t-156 236q-57 -127 -154.5 -259t-181.5 -202l-244 143q192 184 296 414.5t104 437.5v129h325v-125q0 -184 123 -419t295 -392zM1075 981v268h811v-1099h-323v831h-488z" />
    <glyph glyph-name="uni317B" unicode="&#x317b;" 
d="M1159 170v1079h322v-815h508v-264h-830zM1096 315l-232 -159q-68 61 -164 193t-147 237q-59 -128 -148.5 -260t-164.5 -199l-246 143q187 183 283 413t96 441v127h325v-123q0 -185 116.5 -421t281.5 -392z" />
    <glyph glyph-name="uni317C" unicode="&#x317c;" 
d="M1145 164v1085h805v-264h-488v-557h512v-264h-829zM1096 315l-232 -159q-68 61 -164 193t-147 237q-59 -128 -148.5 -260t-164.5 -199l-246 143q187 183 283 413t96 441v127h325v-123q0 -185 116.5 -421t281.5 -392z" />
    <glyph glyph-name="uni317D" unicode="&#x317d;" 
d="M1104 164v1085h305v-272h277v272h305v-1085h-887zM1409 428h277v285h-277v-285zM1096 315l-232 -159q-68 61 -164 193t-147 237q-59 -128 -148.5 -260t-164.5 -199l-246 143q187 183 283 413t96 441v127h325v-123q0 -185 116.5 -421t281.5 -392z" />
    <glyph glyph-name="uni317E" unicode="&#x317e;" 
d="M1219 133l-197 131l-158 -108q-68 61 -164 193t-147 237q-59 -128 -148.5 -260t-164.5 -199l-246 143q187 183 283 413t96 441v127h325v-123q0 -177 105.5 -401t259.5 -383q129 129 211 295t82 311h-316v269h953v-269h-322q0 -136 116.5 -324t256.5 -302l-205 -164
q-68 46 -158 150.5t-153 209.5q-62 -118 -150.5 -227t-158.5 -160z" />
    <glyph glyph-name="uni317F" unicode="&#x317f;" 
d="M360 129l570 1233h184l574 -1233h-1328zM1249 375l-227 545l-234 -545h461z" />
    <glyph glyph-name="uni3180" unicode="&#x3180;" 
d="M57 698q0 259 135 419.5t334 160.5q197 0 332 -160.5t135 -419.5q0 -172 -63.5 -306.5t-169.5 -205.5t-234 -71q-129 0 -235.5 71t-170 205.5t-63.5 306.5zM346 698q0 -159 51 -250.5t129 -91.5q76 0 128.5 93.5t52.5 248.5t-52 244.5t-129 89.5q-78 0 -129 -89t-51 -245
zM1055 698q0 260 134.5 420t332.5 160t332.5 -160t134.5 -420t-134.5 -421.5t-332.5 -161.5t-332.5 161.5t-134.5 421.5zM1343 698q0 -159 51 -250.5t128 -91.5q76 0 128 93.5t52 248.5q0 156 -51.5 245t-128.5 89t-128 -89t-51 -245z" />
    <glyph glyph-name="uni3181" unicode="&#x3181;" 
d="M420 631q0 195 122 334.5t318 183.5v252h328v-252q195 -44 317.5 -184t122.5 -334q0 -155 -81 -278.5t-219 -191t-304 -67.5q-167 0 -304.5 67.5t-218.5 191t-81 278.5zM737 631q0 -132 79.5 -210.5t207.5 -78.5q126 0 206.5 80t80.5 209q0 130 -80.5 209.5t-206.5 79.5
q-127 0 -207 -79t-80 -210z" />
    <glyph glyph-name="uni3182" unicode="&#x3182;" 
d="M43 608q0 182 91 309t237 175v223h311v-223q146 -48 237 -175t91 -309q0 -116 -39 -213.5t-105.5 -162t-154 -100.5t-185.5 -36t-185.5 36t-153.5 100.5t-105 162t-39 213.5zM338 608q0 -122 56 -194t132 -72q75 0 132 73t57 193q0 121 -56.5 190.5t-132.5 69.5
t-132 -69.5t-56 -190.5zM2032 322l-230 -160q-70 62 -167 194t-146 238q-68 -142 -151 -270.5t-154 -190.5l-242 150q183 180 273 407t90 440v130h327v-123q0 -184 118 -422.5t282 -392.5z" />
    <glyph glyph-name="uni3183" unicode="&#x3183;" 
d="M983 150l426 1124h203l428 -1124h-1057zM1511 821l-153 -426h305zM43 608q0 182 91 309t237 175v223h311v-223q146 -48 237 -175t91 -309q0 -116 -39 -213.5t-105.5 -162t-154 -100.5t-185.5 -36t-185.5 36t-153.5 100.5t-105 162t-39 213.5zM338 608q0 -122 56 -194
t132 -72q75 0 132 73t57 193q0 121 -56.5 190.5t-132.5 69.5t-132 -69.5t-56 -190.5z" />
    <glyph glyph-name="uni3184" unicode="&#x3184;" 
d="M1808 944v-258h-1570v258h258l-25 320h-219v258h1542v-258h-219l-23 -320h256zM793 1264l20 -320h420l20 320h-460zM1798 178q0 -405 -774 -405q-110 0 -205.5 8.5t-185 27t-158.5 50.5t-121.5 75.5t-80 105.5t-27.5 138q0 114 60.5 197t170 129.5t244.5 68t303 21.5
q774 0 774 -416zM1479 180q0 166 -455 166q-459 0 -459 -166q0 -85 116.5 -122.5t342.5 -37.5q455 0 455 160z" />
    <glyph glyph-name="uni3185" unicode="&#x3185;" 
d="M1073 487q0 195 128.5 318t326.5 123q199 0 326.5 -122.5t127.5 -318.5q0 -199 -127.5 -321.5t-326.5 -122.5t-327 122.5t-128 321.5zM1999 1264v-258h-938v258h938zM1354 487q0 -84 43.5 -142t130.5 -58q89 0 132.5 58t43.5 142q0 81 -44 139t-132 58q-87 0 -130.5 -58
t-43.5 -139zM59 487q0 195 128.5 318t326.5 123q199 0 327 -123t128 -318q0 -199 -128 -321.5t-327 -122.5t-327 122.5t-128 321.5zM985 1264v-258h-938v258h938zM340 487q0 -84 43.5 -142t130.5 -58q89 0 132.5 58t43.5 142q0 81 -44 139t-132 58q-87 0 -130.5 -58
t-43.5 -139z" />
    <glyph glyph-name="uni3186" unicode="&#x3186;" 
d="M455 444q0 148 76.5 264t206 178t286.5 62t286.5 -62t206 -178t76.5 -264q0 -149 -76.5 -264.5t-205.5 -177t-287 -61.5t-287 61.5t-205.5 177t-76.5 264.5zM1737 1337v-264h-1428v264h1428zM756 444q0 -118 74.5 -189t193.5 -71q117 0 192.5 72.5t75.5 187.5
q0 116 -75 188.5t-193 72.5q-119 0 -193.5 -72t-74.5 -189z" />
    <glyph glyph-name="uni3187" unicode="&#x3187;" 
d="M1360 -252h-1303v268h213v639h322v-639h227v639h322v-639h219v-268zM1802 1542v-354h234v-285h-234v-438h234v-285h-234v-504h-329v1866h329z" />
    <glyph glyph-name="uni3188" unicode="&#x3188;" 
d="M1960 1542v-1866h-320v504h-151v-493h-320v1845h320v-307h151v317h320zM1092 -252h-1035v268h140v631h319v-631h125v631h320v-631h131v-268zM1489 944v-485h151v485h-151z" />
    <glyph glyph-name="uni3189" unicode="&#x3189;" 
d="M1462 -252h-1394v268h223v639h321v-639h260v639h322v-639h268v-268zM1905 1542v-1866h-330v1866h330z" />
    <glyph glyph-name="uni318A" unicode="&#x318a;" 
d="M604 -297h-330v905h-206v269h1364v-269h-281v-905h-330v905h-217v-905zM1915 1542v-1866h-330v201h-309v254h309v127h-309v254h309v1030h330z" />
    <glyph glyph-name="uni318B" unicode="&#x318b;" 
d="M498 -297h-312v905h-129v266h1035v-266h-181v-905h-311v905h-102v-905zM1542 1532v-1845h-319v196h-236v252h236v127h-236v252h236v1018h319zM1640 -324v1866h320v-1866h-320z" />
    <glyph glyph-name="uni318C" unicode="&#x318c;" 
d="M645 -297h-330v784h-247v269h1394v-269h-250v-784h-329v784h-238v-784zM1905 1542v-1866h-330v1866h330z" />
    <glyph glyph-name="uni318D" unicode="&#x318d;" 
d="M1188 821v-329h-332v329h332z" />
    <glyph glyph-name="uni318E" unicode="&#x318e;" 
d="M1618 1542v-1866h-330v1866h330zM846 821v-329h-332v329h332z" />
    <glyph glyph-name="uni2170" unicode="&#x2170;" 
d="M1155 1159h-264v264h264v-264zM1155 -190h-264v1173h264v-1173z" />
    <glyph glyph-name="uni2171" unicode="&#x2171;" 
d="M1526 1159h-264v264h264v-264zM784 1159h-262v264h262v-264zM1526 -190h-264v1173h264v-1173zM784 -190h-262v1173h262v-1173z" />
    <glyph glyph-name="uni2172" unicode="&#x2172;" 
d="M1630 1159h-262v264h262v-264zM1155 1159h-262v264h262v-264zM1630 -190h-262v1173h262v-1173zM678 1159h-262v264h262v-264zM1155 -190h-262v1173h262v-1173zM678 -190h-262v1173h262v-1173z" />
    <glyph glyph-name="uni2173" unicode="&#x2173;" 
d="M606 1159h-264v264h264v-264zM1761 981l-403 -1157h-305l-404 1157h287l270 -829l269 829h286zM606 -190h-264v1171h264v-1171z" />
    <glyph glyph-name="uni2174" unicode="&#x2174;" 
d="M1577 981l-403 -1159h-304l-405 1159h287l270 -831l268 831h287z" />
    <glyph glyph-name="uni2175" unicode="&#x2175;" 
d="M1710 1159h-264v264h264v-264zM1710 -190h-264v1171h264v-1171zM1403 981l-404 -1157h-305l-403 1157h287l270 -829l268 829h287z" />
    <glyph glyph-name="uni2176" unicode="&#x2176;" 
d="M1819 1159h-244v264h244v-264zM1483 1159h-244v264h244v-264zM1819 -190h-244v1173h244v-1173zM1483 -190h-244v1173h244v-1173zM1198 983l-354 -1159h-303l-355 1159h269l237 -821l238 821h268z" />
    <glyph glyph-name="uni2177" unicode="&#x2177;" 
d="M1915 1159h-227v264h227v-264zM1604 1159h-230v264h230v-264zM1288 1159h-229v264h229v-264zM1915 -190h-227v1173h227v-1173zM1604 -190h-230v1173h230v-1173zM1288 -190h-229v1173h229v-1173zM1004 983l-304 -1159h-303l-303 1159h256l199 -833l199 833h256z" />
    <glyph glyph-name="uni2178" unicode="&#x2178;" 
d="M618 1159h-264v264h264v-264zM1757 -193h-307l-231 357l-234 -357h-307l387 601l-369 571h305l218 -332l215 332h305l-367 -571zM618 -190h-264v1171h264v-1171z" />
    <glyph glyph-name="uni2179" unicode="&#x2179;" 
d="M1593 -184h-309l-258 368l-260 -368h-309l411 592l-391 563h309l240 -340l238 340h309l-391 -563z" />
    <glyph glyph-name="uni2160" unicode="&#x2160;" 
d="M1155 -193h-264v1614h264v-1614z" />
    <glyph glyph-name="uni2161" unicode="&#x2161;" 
d="M1528 -193h-264v1614h264v-1614zM786 -193h-264v1614h264v-1614z" />
    <glyph glyph-name="uni2162" unicode="&#x2162;" 
d="M1616 -193h-262v1614h262v-1614zM1155 -193h-262v1614h262v-1614zM694 -193h-262v1614h262v-1614z" />
    <glyph glyph-name="uni2163" unicode="&#x2163;" 
d="M1806 1423l-434 -1613h-309l-434 1613h282l308 -1220l305 1220h282zM580 -190h-265v1613h265v-1613z" />
    <glyph glyph-name="uni2164" unicode="&#x2164;" 
d="M1753 1423l-571 -1613h-308l-571 1613h289l436 -1282l436 1282h289z" />
    <glyph glyph-name="uni2165" unicode="&#x2165;" 
d="M1753 -190h-264v1613h264v-1613zM1434 1423l-435 -1613h-309l-434 1613h283l305 -1220l307 1220h283z" />
    <glyph glyph-name="uni2166" unicode="&#x2166;" 
d="M1849 -190h-245v1613h245v-1613zM1511 -190h-243v1613h243v-1613zM1214 1423l-372 -1613h-310l-372 1613h282l246 -1206l246 1206h280z" />
    <glyph glyph-name="uni2167" unicode="&#x2167;" 
d="M1952 -190h-228v1611h228v-1611zM1638 -190h-227v1611h227v-1611zM1321 -190h-225v1611h225v-1611zM1036 1421l-321 -1618h-307l-320 1612h250l223 -1208l223 1208z" />
    <glyph glyph-name="uni2168" unicode="&#x2168;" 
d="M1831 -199h-297l-336 570l-336 -570h-297l484 824l-474 802h297q326 -548 326 -550l324 550h295l-471 -802zM492 -199h-263v1626h263v-1626z" />
    <glyph glyph-name="uni2169" unicode="&#x2169;" 
d="M1749 -199h-297l-414 621l-409 -621h-297l559 844l-518 782h295l370 -559l371 559h297l-520 -782z" />
    <glyph glyph-name="Alpha" unicode="&#x391;" 
d="M1645 -41q34 0 36 -25q1 -23 -26 -38q-14 -7 -31 -7h-444q-34 0 -36 25q-2 24 24 38q13 7 30 7q59 0 90 4.5t47 15.5t16.5 30.5t-1.5 49.5l-33 301h-563l-187 -290q-50 -72 -36.5 -91.5t128.5 -19.5q35 0 37 -25q3 -24 -25 -38q-14 -7 -32 -7h-379q-33 0 -35 24.5
t25 38.5q13 7 29 7q86 0 122.5 24.5t102.5 125.5l796 1220q19 28 39 28.5t23 -28.5l149 -1288q6 -54 29 -68t105 -14zM1307 438l-76 649l-426 -649h502z" />
    <glyph glyph-name="Beta" unicode="&#x392;" 
d="M1663 979q-38 -146 -161 -236t-279 -108q61 -6 114.5 -21t102 -43t77.5 -68.5t40.5 -96.5t-9.5 -127q-19 -70 -54 -127t-79 -97t-102 -70.5t-116 -48t-127 -28.5t-130 -15t-131 -4h-537q-36 0 -38 25q-1 23 26 38q14 7 31 7q45 0 72.5 1t50 6.5t33.5 11t21 20.5t14.5 28
t11.5 40l288 1079q23 67 1 85.5t-146 18.5q-34 0 -36 25q-2 24 24 38q13 7 30 7h623q55 0 106 -6.5t103 -21.5t89 -40.5t65.5 -63.5t32.5 -89.5t-11 -118.5zM1497 954q15 54 16.5 97.5t-13.5 73.5t-32 52t-54.5 35.5t-64 21.5t-77.5 11t-79 3.5t-83 0.5h-16
q-67 0 -94.5 -6.5t-42 -26t-27.5 -69.5l-129 -488h112q123 0 193 7.5t127 29.5q94 37 167.5 104t96.5 154zM1386 264q17 63 16.5 112t-14 83t-44.5 58.5t-65.5 38.5t-87.5 21.5t-100.5 10t-113.5 2.5h-195l-141 -524q-21 -75 -5.5 -91t114.5 -16q82 0 130.5 2t126 10
t127.5 28t105 52t91.5 86t55.5 127z" />
    <glyph glyph-name="Gamma" unicode="&#x393;" 
d="M1737 1284l-97 -438q-7 -31 -33 -38q-25 -6 -31 17q-2 7 -1 17q7 62 10 106.5t0 85.5t-7 68.5t-21 51.5t-32.5 38t-50.5 26t-65.5 17t-87 9t-106 4.5t-130.5 0.5q-103 0 -133.5 -19t-50.5 -97l-270 -1029q-8 -29 -11.5 -44t-5.5 -33t0 -26t9 -17.5t18.5 -13t31.5 -7
t43.5 -4t59.5 -0.5q35 0 38 -25q2 -24 -26 -38q-13 -7 -30 -7h-506q-38 0 -40 25q-3 23 25 37q15 8 33 8q46 0 73.5 1t51 8.5t34.5 14t22.5 27t17.5 38.5t16 56l279 1039q23 69 0 87.5t-146 18.5q-36 0 -39 25q-2 24 26 38q14 7 32 7h1067q22 0 29.5 -7t3.5 -28z" />
    <glyph glyph-name="uni0394" unicode="&#x394;" 
d="M1511 41q9 -88 -3 -120t-64 -32h-959q-44 0 -62 12t-10.5 45.5t46.5 92.5l841 1290q19 28 39 28.5t23 -28.5zM1350 59l-119 1028l-664 -1017q-51 -72 -37 -91.5t129 -19.5h539q96 0 127.5 20.5t24.5 79.5z" />
    <glyph glyph-name="Epsilon" unicode="&#x395;" 
d="M1712 1284l-94 -438q-6 -30 -32 -37q-25 -6 -32 16q-3 8 -2 17q7 79 9 133.5t-9 100t-20 72.5t-45.5 48t-63.5 30.5t-96 15.5t-120 6.5t-158 0.5q-67 0 -94.5 -6.5t-42 -26t-27.5 -69.5l-131 -490q94 0 135.5 1t94.5 9.5t72.5 20.5t49.5 43t47.5 68.5t44.5 103.5
q17 38 43 42q22 4 24 -20q1 -9 -3 -22l-152 -561q-10 -38 -35 -43q-21 -4 -27 20q-2 9 -1 21q8 66 10.5 103t-11 67.5t-26.5 42.5t-61.5 21t-89 9.5t-134.5 0.5l-139 -518q-21 -75 -5.5 -91t114.5 -16q144 0 219 2.5t157.5 17t121.5 37t87 72.5t80 112.5t76 166.5
q15 34 44 34q23 1 25 -22q1 -8 -2 -17l-139 -438q-7 -21 -18.5 -28t-32.5 -7h-1096q-36 0 -38 25q-1 23 26 38q14 7 31 7q45 0 72.5 1t50 6.5t33.5 11t21 20.5t14.5 28t11.5 40l288 1079q23 67 1 85.5t-146 18.5q-34 0 -36 25q-2 24 24 38q13 7 30 7h1071q21 0 28 -7t3 -28z
" />
    <glyph glyph-name="Zeta" unicode="&#x396;" 
d="M1749 1266l-1225 -1307h312q66 0 105.5 0.5t88 4t76.5 9t64 16.5t56.5 25.5t48 38t46.5 52t43 68.5t45 86.5t47 107.5q16 35 43 34q21 0 23 -22q1 -8 -2 -17l-142 -438q-7 -21 -18.5 -28t-32.5 -7h-985q-55 0 -4 54l1221 1306h-256q-62 0 -99 -0.5t-83.5 -4t-73 -9
t-61 -16.5t-55 -25.5t-47.5 -38t-46 -51.5t-43 -68t-45.5 -86.5t-47.5 -107.5q-15 -34 -42 -35q-21 -1 -23 22q-1 8 2 17l141 438q7 21 18.5 28t32.5 7h914q54 0 4 -53z" />
    <glyph glyph-name="Eta" unicode="&#x397;" 
d="M1905 1319q38 0 40 -25q2 -23 -26 -37q-15 -8 -33 -8q-46 0 -73.5 -1t-51 -8.5t-34.5 -14t-22.5 -27t-17.5 -38.5t-16 -56l-268 -1000q-30 -97 -9.5 -121t146.5 -24q36 0 40 -25q3 -23 -24 -37q-15 -8 -34 -8h-508q-36 0 -38 25q-3 23 24 38q14 7 32 7q48 0 76.5 1
t53 8.5t36.5 14t23.5 27t17.5 38.5t16 56l129 482h-729l-129 -482q-30 -97 -8 -121t154 -24q35 0 37 -25q2 -23 -24 -38q-14 -7 -32 -7h-508q-38 0 -40 25q-2 23 26 37q15 8 33 8q46 0 73.5 1t51 8.5t34.5 14t22.5 27t17.5 38.5t16 56l268 1000q30 97 9.5 121t-146.5 24
q-36 0 -40 25q-3 23 24 37q15 8 34 8h508q35 0 38 -25q2 -24 -26 -38q-13 -7 -30 -7q-48 0 -76.5 -1t-53 -8.5t-36.5 -14t-23.5 -27t-17.5 -38.5t-16 -56l-117 -440h729l117 440q30 97 8 121t-154 24q-35 0 -37 25q-2 23 24 38q14 7 32 7h508z" />
    <glyph glyph-name="Theta" unicode="&#x398;" 
d="M842 -143q-284 0 -414 192q-111 163 -83 415q28 247 176 469q159 238 391 345q157 72 329 72q283 0 413 -192q111 -163 82 -415q-28 -247 -175 -469q-158 -238 -390 -345q-157 -72 -329 -72zM1221 1272q-234 0 -429 -200q-164 -168 -244 -414q-81 -244 -38 -439
q43 -198 204 -261q65 -26 148 -26q234 0 429 200q163 169 243 415q80 244 37 439q-43 198 -203 261q-65 25 -147 25zM1389 733l-62 -235q-8 -30 -12.5 -44.5t-15 -27t-25.5 -12.5q-18 0 -24 14.5t-4.5 35t1.5 40.5t-11.5 34.5t-37.5 14.5h-334q-33 0 -55 -21.5t-31 -47
t-25 -47t-38 -21.5q-10 0 -15 4.5t-5 15.5t2 20.5t7 29.5l3 12l61 235q20 80 51 80q17 0 21 -14t1.5 -34.5t-3 -40.5t12.5 -34t44 -14h338q29 0 49.5 14.5t31 35t19 40.5t20.5 34.5t29 14.5q27 0 7 -82z" />
    <glyph glyph-name="Iota" unicode="&#x399;" 
d="M1487 1319q34 0 36 -25q1 -23 -26 -38q-14 -7 -31 -7q-48 0 -76.5 -1t-53 -8.5t-36.5 -14t-23.5 -27t-17.5 -38.5t-16 -56l-266 -1000q-8 -29 -11.5 -44t-5.5 -33t0 -26t9 -17.5t18.5 -13t31.5 -7t43.5 -4t59.5 -0.5q35 0 37 -25q2 -23 -26 -38q-14 -7 -31 -7h-508
q-38 0 -40 25q-1 23 27 38q15 7 33 7q46 0 73.5 1t51 8.5t34.5 14t22.5 27t17.5 38.5t16 56l267 1000q29 97 8.5 121t-146.5 24q-36 0 -39 25q-2 24 26 38q15 7 34 7h508z" />
    <glyph glyph-name="Kappa" unicode="&#x39a;" 
d="M1874 1319q35 0 37 -25q2 -23 -24 -38q-14 -7 -32 -7q-93 0 -139 -14t-110 -66l-551 -454l352 -674q27 -51 59 -66.5t119 -15.5q32 0 33.5 -24.5t-25.5 -38.5q-12 -7 -28 -7h-545q-33 0 -35.5 24.5t24.5 38.5q13 7 29 7q48 0 79 1.5t55.5 5t36 9.5t16.5 16t2 22.5
t-13 31.5l-288 563l-314 -258l-65 -246q-8 -29 -11.5 -44t-5.5 -33t0 -26t9 -17.5t18.5 -13t31.5 -7t43.5 -4t59.5 -0.5q35 0 38 -25q2 -24 -26 -38q-13 -7 -30 -7h-508q-38 0 -40 25q-3 23 25 37q15 8 33 8q46 0 73.5 1t51 8.5t34.5 14t22.5 27t17.5 38.5t16 56l269 1000
q29 97 8.5 121t-146.5 24q-36 0 -40 25q-3 23 25 37q15 8 34 8h508q35 0 37 -25q2 -23 -24 -38q-14 -7 -32 -7q-48 0 -76.5 -1t-53 -8.5t-36.5 -14t-23.5 -27t-17.5 -38.5t-16 -56l-168 -627l815 672q69 58 58 77q-13 21 -149 23h-40q-33 0 -34.5 24.5t25.5 38.5q12 7 28 7
h524z" />
    <glyph glyph-name="Lambda" unicode="&#x39b;" 
d="M1645 -41q34 0 36 -25q1 -23 -26 -38q-14 -7 -31 -7h-444q-34 0 -36 25q-2 24 24 38q13 7 30 7q78 0 111 9.5t40 28t1 62.5l-119 1028l-664 -1017q-51 -72 -37 -91.5t129 -19.5q35 0 37 -25q3 -24 -25 -38q-14 -7 -32 -7h-379q-33 0 -35 24.5t25 38.5q13 7 29 7
q86 0 122.5 24.5t102.5 125.5l796 1220q19 28 39 28.5t23 -28.5l149 -1288q6 -54 29 -68t105 -14z" />
    <glyph glyph-name="Mu" unicode="&#x39c;" 
d="M1995 1319q34 0 36 -25q3 -24 -25 -38q-13 -7 -30 -7q-47 0 -75 -1t-52 -8.5t-35.5 -14t-23 -27t-17.5 -38.5t-16 -56l-262 -1000q-30 -97 -8.5 -121t151.5 -24q34 0 36 -25q2 -24 -24 -38q-13 -7 -30 -7h-498q-38 0 -40 25q-2 23 26 37q15 8 33 8q45 0 71.5 1t49.5 8.5
t33.5 14t22 27.5t16.5 38t16 56l295 1119l-795 -1327q-17 -28 -36.5 -28.5t-22.5 28.5l-127 1331l-295 -1123q-29 -97 -8.5 -121t141.5 -24q34 0 36 -25q3 -24 -25 -38q-13 -7 -30 -7h-426q-36 0 -38 25q-2 23 26 38q14 7 31 7q42 0 66.5 1t46 8.5t31 14t20.5 27.5t16 38
t16 56l265 1000q10 37 14 57t3 39t-7.5 26.5t-25 14t-41.5 7.5t-64 1q-35 0 -38 25q-2 24 26 38q13 7 30 7h361q16 0 20 -6.5t6 -30.5l105 -1106l661 1108q9 13 12.5 18t12.5 11t20 6h363z" />
    <glyph glyph-name="Nu" unicode="&#x39d;" 
d="M1905 1319q38 0 40 -25q2 -23 -26 -37q-15 -8 -33 -8q-32 0 -53 -0.5t-40 -4.5t-30.5 -6.5t-22.5 -12.5t-17 -18t-13.5 -26.5t-11.5 -33l-12 -43.5l-328 -1219q-8 -28 -32 -28.5t-38 28.5l-557 1237l-272 -1018q-10 -37 -14 -56t-3.5 -38.5t8 -27t27.5 -14t46 -8t71 -1.5
q35 0 37 -25q2 -23 -24 -38q-14 -7 -32 -7h-434q-38 0 -40 25q-2 23 26 37q15 8 33 8q32 0 53 0.5t40 4.5t30.5 6.5t22.5 12.5t17 18t13.5 26.5t11.5 33l12 43.5l269 1000q10 37 14 57t3 39t-7.5 26.5t-25.5 14t-42 7.5t-65 1q-35 0 -38 25q-2 24 26 38q13 7 30 7h279
q16 0 22.5 -5.5t14.5 -23.5l499 -1106l248 920q10 37 14 56t3.5 38.5t-8 27t-27.5 14t-46 8t-71 1.5q-35 0 -38 25q-2 24 26 38q13 7 30 7h435z" />
    <glyph glyph-name="Xi" unicode="&#x39e;" 
d="M1745 1284l-96 -438q-6 -31 -34 -38q-26 -7 -33 17q-2 7 -1 17q10 76 11 131.5t-2 93.5t-22 63t-33.5 38.5t-52.5 19.5t-63 7t-80 1h-10h-266q-127 0 -170 -10q-88 -20 -152 -109q-55 -77 -118 -235q-13 -34 -42 -35q-23 -1 -27 20q-2 9 1 19l141 438q7 21 17.5 28
t31.5 7h967q22 0 29.5 -7t3.5 -28zM1421 713l-63 -236q-8 -30 -12.5 -44.5t-15 -27t-25.5 -12.5q-18 0 -24 14.5t-4.5 34.5t1.5 40.5t-11.5 35t-37.5 14.5h-428q-33 0 -55.5 -21.5t-32 -47t-26 -47t-38.5 -21.5q-11 0 -16 4.5t-4 17t3.5 22t8.5 31.5q1 5 2 7l64 236
q20 80 49 80q20 0 23 -21.5t-2 -47.5t7 -47.5t50 -21.5h432q36 0 59 22t31.5 48t23 48t35.5 22q16 0 16 -22.5t-10 -59.5zM1581 362l-139 -438q-7 -21 -18.5 -28t-32.5 -7h-1090q-21 0 -28 7t-3 28l95 438q6 30 34 38q26 7 34 -15q2 -7 1 -18q-12 -88 -14.5 -149.5
t11 -100.5t27 -60.5t53 -31.5t67 -11.5t90.5 -1.5h16h389h8q56 0 81.5 1t67 7t64 19.5t55 38.5t56 63.5t52.5 94t59 131.5q13 34 42 34q21 1 25 -20q1 -9 -2 -19z" />
    <glyph glyph-name="Omicron" unicode="&#x39f;" 
d="M793 -143q-283 0 -413 192q-111 163 -82 415q28 247 177 470q158 237 390 344q157 72 329 72q283 0 413 -192q111 -163 82 -415q-28 -247 -176 -470q-158 -237 -391 -344q-157 -72 -329 -72zM1174 1272q-234 0 -429 -200q-164 -168 -245 -414q-80 -244 -38 -439
q43 -198 203 -261q65 -26 148 -26q235 0 430 200q164 168 244 414q81 244 38 439q-43 198 -203 261q-65 26 -148 26z" />
    <glyph glyph-name="Pi" unicode="&#x3a0;" 
d="M1835 1319q34 0 36 -24.5t-26 -38.5q-13 -7 -30 -7q-48 0 -77 -1t-53.5 -8.5t-36 -14.5t-23.5 -27t-18 -38t-16 -56l-266 -1000q-8 -29 -11.5 -44t-5.5 -33t0 -26t9 -17.5t18.5 -13t31.5 -7t43.5 -4t59.5 -0.5q35 0 37 -25q2 -23 -26 -38q-14 -7 -31 -7h-508
q-38 0 -39 25q-2 23 26 37q15 8 34 8q46 0 73.5 1t51 8.5t34.5 14t22.5 27t17.5 38.5t16 56l266 1000q28 106 -7 125.5t-226 19.5h-25q-188 0 -224 -6q-55 -9 -76 -46q-13 -22 -32 -93l-266 -1000q-8 -29 -11.5 -44t-5.5 -33t0 -26t9 -17.5t18.5 -13t31.5 -7t43.5 -4
t59.5 -0.5q35 0 37 -25q2 -23 -26 -38q-14 -7 -31 -7h-508q-38 0 -40 25q-1 23 27 38q15 7 33 7q46 0 73.5 1t51 8.5t34.5 14t22.5 27t17.5 38.5t16 56l267 1000q29 97 8.5 121t-146.5 24q-36 0 -39 25q-2 24 26 38q15 7 34 7h1245z" />
    <glyph glyph-name="Rho" unicode="&#x3a1;" 
d="M1079 532q-238 -2 -344 0l-112 -426q-8 -29 -11.5 -44t-5.5 -33t0 -26t9 -17.5t18.5 -13t31.5 -7t43.5 -4t59.5 -0.5q34 0 36 -24q3 -25 -26 -40q-15 -8 -35 -8h-503q-38 0 -40 26q-1 24 27 38q15 8 33 8q46 0 73.5 1t51 8.5t34.5 14t22.5 27t17.5 38.5t16 56l277 1039
q23 67 0.5 85.5t-146.5 18.5q-34 0 -36 25q-2 24 25 38q13 7 30 7h637q263 0 366 -136q79 -105 38 -253q-41 -143 -172 -252q-169 -140 -396 -146h-19zM1241 1249h-199q-77 0 -99.5 -16t-41.5 -86l-147 -545h225q252 0 404 138q110 100 127 230q16 123 -60 202
q-74 77 -209 77z" />
    <glyph glyph-name="Sigma" unicode="&#x3a3;" 
d="M1741 1284l-94 -438q-6 -30 -32 -37q-25 -6 -32 16q-3 8 -2 17q6 71 9.5 110t0 86.5t-5 69.5t-23 50.5t-34.5 38.5t-59.5 24t-77.5 16.5t-109 7t-134 4.5h-171q-106 0 -123.5 -16.5t12.5 -85.5l201 -473q10 -22 4.5 -38.5t-39.5 -51.5l-557 -561q-31 -32 -19.5 -48
t62.5 -16q151 0 237.5 1t184 8t147.5 16.5t110 32t90 49t68 73t63.5 98.5t58.5 130q15 34 42 34q20 1 23 -20q1 -9 -2 -19l-139 -438q-7 -21 -17.5 -28t-31.5 -7h-998q-22 0 -33 1t-21.5 6t-9 14t13 26.5t36.5 43.5l592 618l-260 639q-12 28 -14.5 44.5t4.5 25t19 10.5t36 2
h993q21 0 28 -7t3 -28z" />
    <glyph glyph-name="Tau" unicode="&#x3a4;" 
d="M1696 1284l-94 -438q-6 -29 -34 -37q-26 -8 -35 13q-3 8 -1 20q10 74 14.5 131t1 100t-10.5 74t-24 51.5t-35 33t-49 18.5t-59 8t-72 2q-84 0 -106 -13t-37 -69l-287 -1074q-30 -97 -8 -121t154 -24q35 0 37 -25q2 -23 -24 -38q-14 -7 -32 -7h-508q-38 0 -40 25
q-2 23 26 37q15 8 33 8q46 0 73.5 1t51 8.5t34.5 14t22.5 27t17.5 38.5t16 56l287 1074q15 55 -1 68.5t-98 13.5q-50 0 -82.5 -2.5t-70.5 -11.5t-65 -27t-58 -47.5t-58.5 -75t-58.5 -108t-65 -146.5q-13 -34 -41 -35q-23 -1 -27 20q-1 9 2 19l139 438q7 21 18.5 28t32.5 7
h1090q21 0 28 -7t3 -28z" />
    <glyph glyph-name="Upsilon" unicode="&#x3a5;" 
d="M1698 1167q-22 -79 -92 -108q-59 -24 -102 4q-40 26 -27 82q14 57 67 98q-100 -2 -220 -96t-213 -231.5t-128 -266.5l-145 -547q-11 -40 -15.5 -60.5t-4 -40.5t5.5 -27t21.5 -13t36 -7t56.5 -1q35 0 38 -25q2 -24 -26 -38q-13 -7 -30 -7h-414q-36 0 -39 25q-3 23 25 38
q14 7 32 7q37 0 56 0.5t38.5 7t27.5 12.5t18.5 25.5t16 38t15.5 57.5l146 543q29 108 41 192t6.5 160t-35 126.5t-89 82t-149.5 35.5q-54 3 -53 25q2 19 40 29q14 4 30 5q101 7 176.5 -12.5t119 -56t68.5 -90t31 -108t0 -118.5q112 178 263 296t292 118q66 0 100 -44
t15 -110z" />
    <glyph glyph-name="Phi" unicode="&#x3a6;" 
d="M963 47q-10 -58 17.5 -73t141.5 -15q35 0 38 -25q2 -24 -26 -38q-13 -7 -30 -7h-508q-38 0 -40 25q-3 23 25 37q15 8 33 8q108 0 143.5 15t55.5 71q-279 25 -399 193q-99 139 -60 329q39 188 194 342q189 188 469 239q47 9 95 13q12 57 -15.5 72.5t-135.5 15.5
q-36 0 -40 25q-3 23 24 37q15 8 34 8h508q34 0 36 -25q3 -24 -25 -38q-13 -7 -30 -7q-113 0 -149.5 -16t-56.5 -74q273 -25 391 -191q99 -139 62 -328q-38 -189 -191 -342q-188 -189 -469 -239q-45 -8 -92 -12zM1243 1094l-264 -983q228 24 393 195q136 141 177 322
q41 183 -37 311q-82 133 -269 155zM1096 1094q-228 -23 -396 -193q-137 -140 -180 -321q-43 -183 34 -311q82 -138 277 -158z" />
    <glyph glyph-name="Chi" unicode="&#x3a7;" 
d="M1817 1319q35 0 37 -25q1 -24 -26 -38q-14 -7 -30 -7q-109 0 -144 -13.5t-98 -84.5l-446 -496l211 -551q14 -38 22.5 -58t22 -39t23.5 -26.5t32 -13.5t44.5 -7t62.5 -1q34 0 36 -25q2 -24 -25 -38q-13 -7 -30 -7h-532q-35 0 -38 25q-2 24 26 38q13 7 30 7q52 0 80 1
t53 6.5t32.5 13.5t9.5 26t-4.5 39.5t-20.5 58.5l-162 414l-373 -414q-26 -28 -41 -45.5t-26.5 -34.5t-15.5 -26t0.5 -17.5t13.5 -12t30.5 -6t44.5 -3t62 -0.5q34 0 36 -25q2 -24 -25 -38q-13 -7 -30 -7h-473q-35 0 -37 25q-2 23 24 38q14 7 32 7q114 0 157 21.5t134 123.5
l454 504l-207 543q-12 31 -20.5 46t-19.5 27.5t-32.5 16.5t-45.5 6t-72 2q-34 0 -35.5 24.5t25.5 38.5q13 7 28 7h510q35 0 38 -25q2 -24 -26 -38q-13 -7 -30 -7q-47 0 -71 -0.5t-46.5 -4t-30 -9t-11 -17.5t1 -27t14.5 -40l155 -406l365 406q22 24 32.5 37.5t15 26t-0.5 18
t-22.5 10t-43 5.5t-69.5 1q-34 0 -37 25q-2 24 24 38q14 7 31 7h447z" />
    <glyph glyph-name="Psi" unicode="&#x3a8;" 
d="M1847 1174q-34 -25 -59.5 -31t-39.5 3t-24 25t-15.5 34t-13 31t-16.5 13q-38 2 -62 -54.5t-40.5 -148.5t-35 -191t-57 -200t-95.5 -159q-60 -61 -150.5 -101.5t-164 -54.5t-146.5 -18l-60 -218q-30 -97 -8 -121t154 -24q35 0 37 -25q2 -23 -24 -38q-14 -7 -32 -7h-508
q-38 0 -40 25q-2 23 26 37q15 8 33 8q46 0 73.5 1t51 8.5t34.5 14t22.5 27t17.5 38.5t16 56l57 218q-51 3 -101 11.5t-105 27t-98.5 53.5t-63.5 82q-43 99 38 350q15 44 45 130q62 174 65 223q3 52 -34 50q-10 -1 -27.5 -19.5t-36.5 -39.5t-41.5 -38t-49.5 -13t-54 35
q-10 11 -10 30.5t12 41t40 39.5t75 25.5t117 -1.5q59 -8 91.5 -48t39.5 -90q7 -54 -17.5 -155.5t-56 -193.5t-52 -182t-7.5 -128q12 -35 41.5 -61.5t67.5 -42.5t70.5 -24.5t66.5 -12.5l196 733q30 97 9.5 121t-146.5 24q-36 0 -40 25q-3 23 24 37q15 8 34 8h508q34 0 37 -25
q2 -24 -24 -38q-14 -7 -31 -7q-48 0 -76.5 -1t-53 -8.5t-36.5 -14t-23.5 -27t-17.5 -38.5t-16 -56l-197 -733q222 28 324 141q33 38 60 128t44.5 182t47.5 193t67 156q32 50 86 90t119 48q161 21 189 -45q15 -37 -16 -76q-6 -8 -14 -14z" />
    <glyph glyph-name="uni03A9" unicode="&#x3a9;" 
d="M1087 160l-40 -154h55h13q43 0 63.5 0.5t56 2.5t53 7t46 13.5t45.5 22t40 33.5t40 47t36.5 62.5t38.5 79.5q16 35 39 37q17 1 17 -19q0 -8 -3 -18l-117 -350q-7 -21 -17.5 -28t-31.5 -7h-487l84 320q235 27 406 211q143 152 188 350q46 196 -28 335q-82 156 -288 172
q-20 1 -41 1q-239 0 -424 -171q-149 -139 -209 -335q-60 -197 1 -349q65 -163 248 -206q21 -5 44 -8l-84 -320h-499q-22 0 -29.5 7t-3.5 28l72 350q7 32 30 38q20 6 25 -16q1 -7 0 -17q-4 -41 -4.5 -74t4.5 -59t10.5 -46t20 -34.5l25 -25t34 -17t38.5 -10t47.5 -5t52 -2
t59.5 -0.5h67l41 154q-227 25 -328 191q-89 148 -50 352q39 208 192 375q186 204 463 256q85 16 176 16q294 0 430 -170q110 -137 85 -342q-25 -201 -166 -376q-163 -200 -410 -274q-61 -19 -126 -28z" />
    <glyph glyph-name="alpha" unicode="&#x3b1;" horiz-adv-x="1024" 
d="M989 811q28 -15 32 -43t-15.5 -71t-41.5 -79t-60 -94t-56 -88q-75 -125 -94 -169q-41 -94 -31 -173q5 -34 23.5 -57t41.5 -31.5t47.5 -15.5t42 -10.5t24 -16t-6.5 -31.5q-23 -38 -72.5 -45.5t-98 9t-79.5 45.5q-36 40 -53 106q-8 -15 -36.5 -42.5t-77.5 -59t-103.5 -53
t-120.5 -19t-123 38.5q-54 34 -85.5 86.5t-39.5 114t2 131t36 138.5t65 135t87 122.5t104.5 99.5t114 66.5t120 22.5t118.5 -31q40 -21 67 -60t37 -78.5t14 -76.5t3 -60l-2 -24q84 151 115 221q4 12 7 20.5t9 22t11.5 22.5t14 18t17 13t20 3.5t23.5 -7.5zM602 741
q-49 19 -107.5 -7t-111.5 -84.5t-102 -135t-80.5 -160.5t-45.5 -159.5t2.5 -135t63.5 -82.5q115 -56 243 72q108 108 174 289q67 184 40 302q-17 78 -76 101z" />
    <glyph glyph-name="beta" unicode="&#x3b2;" horiz-adv-x="1024" 
d="M1010 846q-14 -49 -44.5 -90.5t-64 -65t-65 -40.5t-52.5 -23l-20 -6q6 -5 15.5 -15.5t33.5 -44t41.5 -69.5t30 -91t8.5 -110q-6 -84 -30 -154.5t-60.5 -119t-83 -84.5t-97.5 -51t-103 -18.5t-101.5 12t-91 42.5t-73.5 71t-48 99q-29 -138 -47 -283q-16 -126 -39.5 -173.5
t-75.5 -34.5q-15 4 -25 11.5t-13.5 21t-5 25t2.5 32t6 31.5t8.5 35t8.5 32q2 7 35 154.5t67 290t99 370.5t136 434q28 83 72.5 143.5t95 90.5t107 42.5t110 0t103.5 -37.5t87.5 -70.5t62.5 -98t27 -120.5t-17 -138zM889 956q11 100 -20.5 172.5t-88 96.5t-121 14.5
t-127 -75.5t-98.5 -173q-75 -223 -143.5 -497.5t-57.5 -329.5q19 -90 107 -147q94 -62 197 -41q124 24 184 163q39 91 43 223q2 52 -16 111t-37 92l-19 33q-72 -6 -121 4q-52 10 -85 37t-27 53q7 27 24.5 39t44 8.5t50.5 -10.5t55 -18.5t45 -14.5q56 -13 127 65t84 195z" />
    <glyph glyph-name="gamma" unicode="&#x3b3;" horiz-adv-x="1024" 
d="M993 823q17 -14 21.5 -33t-5 -43.5t-23 -48.5t-40 -57.5t-49 -60t-56.5 -66t-55 -65.5q-122 -150 -161 -208.5t-99 -185.5q-30 -63 -62 -169t-36 -117q-35 -101 -85.5 -145t-109.5 -17q-25 12 -30 49t7.5 82.5t37.5 87.5q7 12 61 99t84 140.5t27 63.5q2 2 7.5 56t5.5 136
t-11 166t-49.5 153.5t-102.5 90.5q-49 14 -83.5 0t-62.5 -42.5t-46 -58t-34.5 -47t-27.5 -8.5q-9 7 -10 26t7.5 44.5t23 54t39.5 55.5t54.5 48.5t69.5 32.5t83 8q60 -5 105.5 -39.5t70.5 -85.5t40.5 -112t19.5 -120.5t4.5 -109t-1.5 -79.5l-2 -30q72 97 164 238
q23 35 50 82.5t46 81.5t41.5 70.5t41.5 57.5t40 35.5t43.5 11.5t46.5 -22z" />
    <glyph glyph-name="delta" unicode="&#x3b4;" horiz-adv-x="1024" 
d="M983 864q-28 -19 -52 -19t-42 14.5t-39 44.5t-39 62.5t-46.5 76.5t-57.5 79q-65 78 -134 95.5t-100 -37.5q-48 -86 90 -263q43 -57 178 -206q51 -47 84 -109t43.5 -127.5t6 -136t-27.5 -135.5t-58 -125.5t-85 -105t-108.5 -75t-128.5 -35.5t-145 13q-93 25 -160 82.5
t-100 132t-40.5 161t11 170.5t61 160.5t102.5 132.5t143.5 83.5t176.5 15.5q-47 53 -100 129q-28 43 -43 88.5t-10.5 101.5t38.5 103q41 57 101 74t122.5 -2t120.5 -56.5t105 -87.5q28 -30 53 -60.5t50 -68t39 -69t13 -59t-22 -42.5zM555 735q-64 17 -125 -3t-107.5 -67
t-83 -113.5t-56.5 -141t-22 -150.5t14 -140.5t58 -113t105 -65.5q100 -27 190 36.5t137 176t63 234t-29.5 221.5t-143.5 126z" />
    <glyph glyph-name="epsilon" unicode="&#x3b5;" horiz-adv-x="1024" 
d="M926 84q-21 -82 -92 -138t-163 -78.5t-194.5 -16.5t-187.5 38.5t-141 97t-56 148.5q0 102 83 172t220 82q-118 14 -193 72.5t-75 156.5q0 73 52 129t131.5 84t174.5 34t180 -12t150 -64t82 -113q13 -48 -30 -75q-39 -26 -80 -6q-42 20 -46 81q-3 46 -51.5 78.5t-115 39
t-132 -5t-111.5 -58t-46 -116.5q0 -54 29 -94t74.5 -60.5t94.5 -29t97 -6.5q16 2 34 1.5t33 -3t25 -11.5t10 -24q0 -24 -39 -31.5t-78 -2.5l-39 5q-126 -1 -201 -62t-75 -155q0 -118 113 -181q98 -55 219 -43q117 13 164 81q26 37 22 86q-5 71 47 96q43 20 82 -6
q45 -29 29 -90z" />
    <glyph glyph-name="zeta" unicode="&#x3b6;" horiz-adv-x="1024" 
d="M942 1141q24 -43 -24 -93t-152 -110q-46 -27 -125 -49.5t-135 -31.5l-55 -9q-4 -5 -11.5 -14t-30.5 -38t-42.5 -58t-49 -73.5t-49.5 -84t-44 -90.5t-32 -92t-13 -89t11 -82q16 -49 50.5 -80t77 -45t91.5 -23t96.5 -19.5t88.5 -28.5t72 -56.5t43 -97.5q13 -62 -14 -116.5
t-78.5 -89t-115 -54.5t-126.5 -20q-215 0 -215 75q0 36 27.5 52t105.5 10q8 -1 47 -8.5t74.5 -11t76.5 -1.5t69.5 21.5t37.5 56.5q8 32 -8.5 53.5t-52.5 32.5t-73 17t-86.5 12.5t-76.5 13.5q-62 15 -108 48.5t-71.5 76.5t-37.5 88t-12 92q0 85 30.5 182t74 174t87.5 142
t74 101l31 36q-7 2 -17.5 6t-38.5 20t-49 36.5t-37.5 57t-15.5 79.5q2 67 58.5 137t120.5 103t87 8q13 -13 13.5 -28.5t-11 -31.5t-28 -31.5t-41.5 -33.5q-73 -52 -92 -122q-17 -61 25 -83q66 -34 223 68q12 7 24 16q39 27 87.5 52t103 45t99 17.5t62.5 -34.5z" />
    <glyph glyph-name="eta" unicode="&#x3b7;" horiz-adv-x="1024" 
d="M866 209q-91 -229 -157 -428l-9.5 -28.5t-12.5 -33.5t-16.5 -36.5t-19.5 -34t-23 -29.5t-25.5 -20t-28.5 -7.5t-31 9.5q-18 11 -29 23t-13 29t-2 29.5t9 35.5t14.5 35.5t20 42t20.5 42.5q43 90 123.5 282t116.5 306q59 188 -9 282q-50 69 -143 56q-102 -14 -187 -116
q-65 -77 -99 -187q-11 -35 -33.5 -123.5t-42.5 -156.5t-47 -139.5t-60 -105t-69 -20.5q-35 13 -39 51t14.5 89.5t47.5 122.5t57.5 142t47 156.5t13.5 157.5q-2 36 -16 60t-32.5 34t-40.5 16.5t-40.5 7t-32.5 5.5t-17 12t7 27q23 38 72.5 45.5t98 -9t79.5 -45.5
q39 -44 57 -114q48 88 161 139q125 57 234 27q124 -34 156 -170q41 -169 -74 -461z" />
    <glyph glyph-name="theta" unicode="&#x3b8;" horiz-adv-x="1024" 
d="M319 -125q-114 30 -181.5 133.5t-79.5 243t8 299.5t82.5 308t143 263t190.5 171t223 26t181 -133.5t80 -243t-8 -299.5t-82.5 -308t-142.5 -263t-190.5 -171t-223.5 -26zM776 586h-534q-60 -248 -36.5 -427.5t132.5 -209.5q56 -15 111.5 14t99.5 89.5t82.5 133t68 154
t48 141t28.5 105.5zM791 651q52 231 25.5 397.5t-130.5 194.5q-52 14 -103 -7t-91 -65.5t-76.5 -105.5t-63 -124t-47.5 -124.5t-32 -102.5t-15 -63h533z" />
    <glyph glyph-name="iota" unicode="&#x3b9;" horiz-adv-x="1024" 
d="M721 27q10 -25 -29.5 -70t-104 -77t-116.5 -21q-51 10 -87 35t-51.5 54.5t-24.5 62.5t-6 59.5t3 44.5q7 44 37.5 155.5t65 230t38.5 134.5q33 124 50 156q33 66 99 53q3 -1 7 -2q27 -7 41 -26.5t14.5 -48.5t-8 -62t-24.5 -70q-83 -194 -156 -397q-3 -8 -12 -30
t-12.5 -33.5t-10.5 -32t-8 -33t-1.5 -30t6 -28.5t16 -22.5t26.5 -19t41 -11.5q34 -5 66.5 2.5t52.5 19.5t38 21.5t30 7.5t20 -22z" />
    <glyph glyph-name="kappa" unicode="&#x3ba;" horiz-adv-x="1024" 
d="M885 616q-30 -1 -58.5 13t-43 22.5t-50.5 -0.5q-15 -5 -35 -38t-42 -76t-35 -60q-8 -11 -17.5 -21t-18.5 -18t-18.5 -15.5t-17.5 -13t-16 -10t-14 -8t-10.5 -5.5t-6.5 -4l-2 -1l8 -7q9 -7 22 -20.5t26 -31.5t22.5 -44t9.5 -53q0 -115 17.5 -158.5t62.5 -48.5
q28 -3 53 14.5t40 41.5t33 47.5t32.5 33t37.5 -2.5q32 -21 -0.5 -101t-81.5 -121q-44 -37 -104 -55.5t-117 -1.5q-40 13 -65.5 40t-37 67.5t-15 77t-3.5 87.5q0 28 -4.5 57t-14 59t-29 48.5t-46.5 18.5h-63q-47 -154 -78 -285q-24 -98 -35 -122q-30 -59 -100 -34
q-18 7 -27 19t-8.5 33.5t5 45t17.5 61.5t25.5 73.5t32 91.5t35.5 106q2 7 23 72t42 135.5t35 130.5q3 11 7.5 36.5t8 42t11.5 38t17.5 34t26 20t37.5 5.5q64 -7 72 -47.5t-29 -126.5q-23 -57 -54 -136t-30 -79h74q67 0 111.5 45.5t103.5 153.5t123 155.5t145 34.5
q45 -8 75 -32.5t37 -54t0.5 -58.5t-34 -49t-67.5 -21z" />
    <glyph glyph-name="lambda" unicode="&#x3bb;" horiz-adv-x="1024" 
d="M911 -113q-21 -19 -41 -22t-38 10.5t-34.5 36.5t-32.5 59t-29 73t-27 83q-25 86 -36.5 222.5t-10.5 230.5l2 94q-12 -17 -31.5 -47t-72 -115t-96.5 -160.5t-89 -164t-64 -146.5q-31 -95 -80 -146.5t-104 -33.5q-34 11 -38 50t19 95t46.5 100t52.5 91q38 60 98 144
t118.5 161t112 145.5t86.5 110.5l33 41q4 7 6.5 52.5t-13 111.5t-54.5 102q-41 38 -99.5 62t-74.5 36q-28 20 -31 60.5t23 66.5q17 17 45 25t64 2.5t72 -25t70.5 -65t57.5 -111.5q22 -64 31 -127.5t8 -97.5t-5.5 -77t-4.5 -44q-12 -216 7 -349q16 -117 54 -198
q18 -39 46 -94.5t42 -84t25.5 -63t8 -56t-21.5 -38.5z" />
    <glyph glyph-name="uni03BC" unicode="&#x3bc;" horiz-adv-x="1024" 
d="M1001 14q3 -59 -60.5 -100.5t-123.5 -26.5q-41 11 -74.5 50t-40.5 71q-73 -80 -155 -112.5t-167.5 -10t-158.5 102.5q-39 -113 -59 -260q-11 -82 -46 -116.5t-67 -17.5q-72 42 -16 197q22 63 79.5 155.5t69.5 145.5q1 2 15.5 90t37 197.5t44.5 181.5l33 84
q83 192 158 192q17 -1 34 -12q74 -51 -107 -417q-10 -20 -14 -29q-40 -82 -70.5 -158t-41.5 -111l-11 -36q22 -33 59 -60.5t85 -39.5t96.5 -4t96 52t79.5 123q17 43 61 210.5t58 215.5q10 33 21 64t30 70.5t38 65.5t44.5 39.5t50.5 2.5q32 -14 34 -66t-23 -127t-52 -138
t-61 -132q-124 -248 -89 -301q26 -40 76 -43.5t90 31.5q44 38 47 -23z" />
    <glyph glyph-name="nu" unicode="&#x3bd;" horiz-adv-x="1024" 
d="M883 825q19 -4 24.5 -49t-4.5 -116t-31 -150.5t-60 -163t-87 -143.5q-42 -53 -95.5 -102t-107.5 -85.5t-109.5 -67t-104.5 -49.5t-89 -29t-66.5 -8t-33.5 15q-11 18 2.5 52t48.5 117.5t61 176.5q32 115 43 193.5t8 120t-16 90.5l-8 28t-8 29.5t-6.5 27t-5 27.5t-1 24
t3 23t9 18t15 16.5t22.5 10.5q59 18 97 -64.5t32 -201.5q-8 -141 -133 -501l-2 -5q-1 -2 22.5 6t64.5 27t88 46t101.5 71t97.5 94q45 52 78.5 110.5t51.5 109t30.5 99t18.5 86t12 66t14.5 41.5t22.5 10z" />
    <glyph glyph-name="xi" unicode="&#x3be;" horiz-adv-x="1024" 
d="M936 995q-12 -45 -78 -49.5t-179.5 12t-160.5 15.5q-97 -2 -161 -48.5t-54 -131.5q5 -45 28.5 -71.5t63 -34t73.5 -7.5t85 5t72 5q38 0 70 -2t68 -9t60 -18.5t39 -32t12 -48.5q-2 -19 -14 -31t-33.5 -16.5t-45 -5t-56.5 3.5t-59.5 8t-63 10.5t-57.5 9.5
q-80 11 -151.5 -14.5t-119.5 -75t-72 -118t-14 -140.5q7 -49 36.5 -82t72 -50t92.5 -29l100 -24t92 -30t71 -53.5t34 -87.5q12 -106 -91 -180q-77 -56 -163 -61q-74 -4 -85 38q-1 1 -1 2q-6 28 26 43t74.5 20t79 25.5t37.5 58.5q1 33 -26.5 53.5t-62.5 27.5t-90 17t-87 21
q-217 73 -213 309q1 68 24 130.5t51.5 102t68.5 75t62 50t46 27.5q-58 35 -87.5 80t-30 89t13.5 87.5t40.5 77t55.5 55.5t53 25q1 1 1.5 24t6.5 54t20.5 66t50 68.5t87.5 53.5q31 12 64.5 18.5t65.5 6.5t52 -16t19 -46q-1 -27 -46 -38t-98 -12.5t-95.5 -23t-39.5 -67.5
q1 -12 7 -19.5t18.5 -10.5t27.5 -3.5t39.5 1t48 3.5t58.5 4t67 3q40 1 77 -4t68.5 -16t47 -31.5t8.5 -47.5z" />
    <glyph glyph-name="omicron" unicode="&#x3bf;" horiz-adv-x="1024" 
d="M385 -127q-92 25 -160 78t-103 121.5t-50.5 149.5t-1.5 162t43 158.5t83 139t118.5 104.5t149.5 54t177 -13q135 -37 216 -134.5t97 -215.5t-17 -241.5t-106.5 -217.5t-192 -137.5t-253.5 -7.5zM623 766q-76 20 -147.5 -10t-122 -95t-89 -149.5t-48 -177t1.5 -174.5
t58.5 -143.5t124.5 -82.5q59 -15 116 -0.5t102 55t84 96t62.5 124t37 138t8 138.5t-24.5 125.5t-61 98t-102 57.5z" />
    <glyph glyph-name="pi" unicode="&#x3c0;" horiz-adv-x="1024" 
d="M1012 766q-3 -34 -14.5 -56t-31 -32t-39 -13.5t-46.5 -2.5q-45 4 -104 2t-64 -17q-24 -74 -60.5 -292t-19.5 -275q11 -38 35 -55t48 -16.5t46.5 2.5t34 -6t6.5 -34q-7 -36 -41 -60t-71 -28t-68 2q-44 13 -70.5 39.5t-33.5 55.5t-9.5 60t1.5 53q1 5 1 7q4 49 46.5 284.5
t41.5 268.5q0 16 -105 15.5t-110 -13.5q-13 -35 -60 -248t-77 -311q-21 -68 -56 -123t-76.5 -79.5t-80.5 6.5q-12 9 -20.5 27t-3 58.5t39.5 86.5q57 79 116 225t89 252l31 106q-109 15 -160 -12q-16 -9 -30.5 -22t-21.5 -22.5t-17 -18t-17 -7.5t-21 9q-23 17 -2 74t94 107.5
t175 45.5q207 -12 430 -6q37 1 76.5 6t67 10t55 9.5t44.5 5t30.5 -5.5t18.5 -21t3 -41z" />
    <glyph glyph-name="rho" unicode="&#x3c1;" horiz-adv-x="1024" 
d="M461 -86q-103 28 -174.5 100.5t-104.5 167.5q0 -13 -9 -158t-7 -239q2 -132 -6 -174q-17 -84 -78 -78q-67 6 -70 113q-2 81 44 334q2 6 3 14q31 169 70.5 328.5t56.5 209.5q59 163 208.5 251t307.5 46q89 -24 155 -75t99.5 -116.5t48.5 -143.5t1.5 -155t-41 -151.5
t-79.5 -133.5t-113.5 -100t-143 -51.5t-168.5 11.5zM684 766q-82 24 -158 -16.5t-129 -121t-80 -184.5q-20 -79 -21.5 -153.5t15.5 -138.5t60 -110.5t108 -64.5q98 -27 187.5 35.5t136.5 173.5t62.5 230.5t-32 220t-149.5 129.5z" />
    <glyph glyph-name="sigma" unicode="&#x3c3;" horiz-adv-x="1024" 
d="M901 829q36 -15 46 -41.5t-10.5 -45t-59.5 -11.5q-268 44 -330 -8l23 1q23 2 41 1.5t48 -6.5t56 -19q169 -83 202 -259q29 -154 -53 -315q-75 -147 -204 -222q-167 -96 -343 -19q-15 7 -30 15q-107 57 -160 143.5t-52 179.5t36.5 190t96.5 181t136 147q57 48 146.5 75
t172 30.5t147.5 -1.5t91 -16zM686 639q-52 26 -106 25.5t-102.5 -26t-93.5 -66t-79 -95t-59.5 -112t-33.5 -118.5t-2 -114.5t34.5 -98.5t77.5 -71q63 -31 130.5 -21.5t125 58t107 114t76.5 145t34 152t-21 135t-88 93.5z" />
    <glyph glyph-name="tau" unicode="&#x3c4;" horiz-adv-x="1024" 
d="M973 766q-3 -34 -14.5 -56t-31 -32t-39 -13.5t-46.5 -2.5q-6 0 -50.5 2t-75 3t-70 0.5t-62.5 -4t-25 -10.5q-14 -33 -80 -211t-76 -213q-56 -193 48 -219q29 -7 87.5 3t94 8.5t33.5 -33.5q-1 -33 -29.5 -59.5t-68 -41t-77.5 -21.5t-65 -5q-49 3 -86 18.5t-56.5 39
t-30.5 53t-9.5 60t6.5 60.5q12 54 62 190t88 246.5t32 128.5q-3 16 -116 11t-150 -25q-16 -9 -30.5 -22t-21.5 -22.5t-17 -18t-17 -7.5t-21 9q-23 17 -2 74t94 107.5t175 45.5q188 -11 372 -6q37 1 75.5 6t64.5 10t51 9.5t40 5t26.5 -5.5t15.5 -21t2 -41z" />
    <glyph glyph-name="upsilon" unicode="&#x3c5;" horiz-adv-x="1024" 
d="M950 541q-19 -82 -68 -186t-123 -210t-164 -180.5t-190 -97t-202 40.5q-49 30 -79.5 65.5t-43 77.5t-15 83.5t8.5 96t24.5 101.5t33.5 113q6 18 9 28q13 42 20.5 99t11 100.5t11.5 83.5t26 61t50 19q48 -3 72 -31t23 -72.5t-10.5 -84.5t-25.5 -83q-12 -30 -36.5 -84.5
t-41.5 -95t-37 -94.5t-27.5 -96.5t-8.5 -85.5t16.5 -77.5t51.5 -58.5q70 -44 151.5 -24.5t162 92t132.5 172.5q58 112 85.5 217t28.5 167.5t0.5 111.5t10.5 67.5t49 16.5q49 -3 82.5 -81t11.5 -171z" />
    <glyph glyph-name="phi" unicode="&#x3c6;" horiz-adv-x="1024" 
d="M444 -84l-38 -201q-14 -80 -44 -107t-73 -11q-12 5 -20.5 11t-13.5 11.5t-6.5 15.5t-2 17t3.5 22.5t6.5 24.5t9 30.5t10.5 34.5q7 23 52 181q-80 28 -138 84.5t-86.5 127.5t-34.5 152.5t11 160.5t57.5 151t98 124.5t139 80t174.5 18.5q42 -4 42 -26q1 -22 -32 -34
q-13 -5 -29 -6q-72 -7 -134.5 -55t-103.5 -118.5t-62 -157t-17 -168t37.5 -153t95.5 -110.5q26 108 60.5 239t55.5 209l21 77q35 134 117 207t168 18q91 -60 138.5 -154.5t49 -194.5t-35.5 -199.5t-102.5 -173t-164 -111t-209.5 -17.5zM723 713q-16 12 -31.5 13.5t-29 -6.5
t-26 -21t-23 -34.5t-20 -42.5t-18 -49t-14.5 -50t-12 -49.5t-9.5 -44t-7.5 -36.5l-77 -411q75 0 140 39t108 101.5t69 142.5t29.5 160t-16 157t-62.5 131z" />
    <glyph glyph-name="chi" unicode="&#x3c7;" horiz-adv-x="1024" 
d="M946 809q20 -21 21 -45.5t-9.5 -44t-35 -42.5t-41.5 -36.5t-43 -30.5q-51 -35 -145.5 -124.5t-139.5 -149.5q52 -289 133 -324q25 -11 55 -1t50 27t41 25.5t30 -4.5q14 -17 -6 -63.5t-60.5 -88.5t-78.5 -48t-69.5 4.5t-54 36t-40 54.5t-31.5 70.5t-22.5 73t-18.5 73
t-16 60.5q-164 -193 -186 -225q-14 -23 -31 -46t-40.5 -46.5t-46 -37t-46 -11.5t-41.5 24q-12 15 -17 29t-0.5 28.5t10 25.5t22 27.5t27.5 26t34.5 29t35.5 29.5q21 18 85 82.5t117 119.5l54 56q-7 29 -17.5 81t-19 90t-20 78.5t-25.5 66.5t-30 34q-39 17 -68 2t-55 -29.5
t-35 -2.5q-16 22 6 67t70.5 82.5t99.5 36.5q53 -1 88.5 -31t52 -82.5t24 -101.5t13 -113t11.5 -92q37 46 80.5 105t79.5 110t40 57q70 91 97 114q60 50 112 -5z" />
    <glyph glyph-name="psi" unicode="&#x3c8;" horiz-adv-x="1024" 
d="M971 844q45 2 41 -17q-5 -22 -61 -53q-2 -1 -3 -2q-34 -19 -56.5 -75.5t-37.5 -132t-31 -155.5t-49 -162t-80 -134q-74 -81 -169.5 -122t-190.5 -48q-19 -83 -29 -156q-11 -84 -52 -141t-91 -43q-32 10 -44.5 32t-5.5 55.5t20 64.5t36 75q22 41 53 119q-47 11 -80 26.5
t-64.5 50t-51.5 87.5q-16 47 -13.5 110.5t19.5 130.5t35.5 136t33.5 125.5t13.5 99t-23.5 57.5q-21 14 -28.5 32t6 30.5t49.5 9.5q96 -7 114 -137q7 -54 -7.5 -140t-35 -160t-32 -152.5t-0.5 -123.5q22 -91 88 -123q103 261 151 586q22 150 51 202q35 64 93 44
q24 -8 37.5 -23t15.5 -39.5t0.5 -45t-13.5 -57t-19.5 -57t-24.5 -61.5q-126 -305 -191 -561q57 0 107.5 31.5t115.5 101.5q40 43 66 121.5t37 153.5t35.5 162t60.5 141q36 53 88.5 93t116.5 44z" />
    <glyph glyph-name="omega" unicode="&#x3c9;" horiz-adv-x="1024" 
d="M989 244q-53 -184 -142.5 -286t-205.5 -103q-53 0 -100 30.5t-72 67t-29 65.5q-11 -21 -44 -50t-78.5 -54t-101.5 -25t-101 37q-72 59 -94.5 184.5t-2 256t69.5 231.5q10 19 34 53.5t59.5 75.5t73 72t73 43.5t61.5 -11.5q13 -15 13 -31t-14 -42.5t-33 -52.5t-44 -61.5
t-48 -69t-43.5 -75.5t-31.5 -81q-28 -102 -32 -208.5t25.5 -179t92.5 -57.5q50 12 81.5 49.5t45.5 95t21 115.5t16.5 130t24.5 120q24 78 71 134.5t87 46.5q47 -12 51.5 -84t-15 -144t-43.5 -119q-147 -287 -53 -352q45 -31 92.5 -10t88.5 72.5t71 121t39 134.5
q14 95 11 171t-11 137.5t-16.5 104.5t-7 73t19.5 44q42 32 88 -48q57 -97 72 -259q15 -147 -19 -262z" />
    <glyph glyph-name="SF100000" unicode="&#x2500;" 
d="M2048 573h-2048v82h2048v-82z" />
    <glyph glyph-name="SF110000" unicode="&#x2502;" 
d="M1067 -410h-86v2048h86v-2048z" />
    <glyph glyph-name="SF010000" unicode="&#x250c;" 
d="M2048 573h-981v-983h-86v1065h1067v-82z" />
    <glyph glyph-name="SF030000" unicode="&#x2510;" 
d="M1067 -410h-86v983h-981v82h1067v-1065z" />
    <glyph glyph-name="SF040000" unicode="&#x2518;" 
d="M1067 573h-1067v82h981v983h86v-1065z" />
    <glyph glyph-name="SF020000" unicode="&#x2514;" 
d="M2048 573h-1067v1065h86v-983h981v-82z" />
    <glyph glyph-name="SF080000" unicode="&#x251c;" 
d="M2048 573h-981v-983h-86v2048h86v-983h981v-82z" />
    <glyph glyph-name="SF060000" unicode="&#x252c;" 
d="M2048 573h-981v-983h-86v983h-981v82h2048v-82z" />
    <glyph glyph-name="SF090000" unicode="&#x2524;" 
d="M1067 -408h-86v981h-981v82h981v983h86v-2046z" />
    <glyph glyph-name="SF070000" unicode="&#x2534;" 
d="M2048 573h-2048v82h981v981h86v-981h981v-82z" />
    <glyph glyph-name="SF050000" unicode="&#x253c;" 
d="M2048 573h-981v-983h-86v983h-981v82h981v983h86v-983h981v-82z" />
    <glyph glyph-name="uni2501" unicode="&#x2501;" 
d="M2048 532h-2048v164h2048v-164z" />
    <glyph glyph-name="uni2503" unicode="&#x2503;" 
d="M1110 -410h-172v2048h172v-2048z" />
    <glyph glyph-name="uni250F" unicode="&#x250f;" 
d="M2048 532h-938v-942h-172v1106h1110v-164z" />
    <glyph glyph-name="uni2513" unicode="&#x2513;" 
d="M1110 -410h-172v942h-938v164h1110v-1106z" />
    <glyph glyph-name="uni251B" unicode="&#x251b;" 
d="M1110 532h-1110v164h938v942h172v-1106z" />
    <glyph glyph-name="uni2517" unicode="&#x2517;" 
d="M2048 532h-1110v1106h172v-942h938v-164z" />
    <glyph glyph-name="uni2523" unicode="&#x2523;" 
d="M2048 532h-938v-942h-172v2048h172v-942h938v-164z" />
    <glyph glyph-name="uni2533" unicode="&#x2533;" 
d="M2048 532h-938v-942h-172v942h-938v164h2048v-164z" />
    <glyph glyph-name="uni252B" unicode="&#x252b;" 
d="M1110 -410h-172v942h-938v164h938v942h172v-2048z" />
    <glyph glyph-name="uni253B" unicode="&#x253b;" 
d="M2048 532h-2048v164h938v942h172v-942h938v-164z" />
    <glyph glyph-name="uni254B" unicode="&#x254b;" 
d="M2048 532h-938v-942h-172v942h-938v164h938v942h172v-942h938v-164z" />
    <glyph glyph-name="uni2520" unicode="&#x2520;" 
d="M2048 573h-938v-983h-172v2048h172v-983h938v-82z" />
    <glyph glyph-name="uni252F" unicode="&#x252f;" 
d="M2048 532h-981v-942h-86v942h-981v164h2048v-164z" />
    <glyph glyph-name="uni2528" unicode="&#x2528;" 
d="M1110 -410h-172v983h-938v82h938v983h172v-2048z" />
    <glyph glyph-name="uni2537" unicode="&#x2537;" 
d="M2048 532h-2048v164h981v942h86v-942h981v-164z" />
    <glyph glyph-name="uni253F" unicode="&#x253f;" 
d="M2048 532h-981v-942h-86v942h-981v164h981v942h86v-942h981v-164z" />
    <glyph glyph-name="uni251D" unicode="&#x251d;" 
d="M2048 532h-981v-942h-86v2048h86v-942h981v-164z" />
    <glyph glyph-name="uni2530" unicode="&#x2530;" 
d="M2048 573h-938v-983h-172v983h-938v82h2048v-82z" />
    <glyph glyph-name="uni2525" unicode="&#x2525;" 
d="M1067 -408h-86v940h-981v164h981v942h86v-2046z" />
    <glyph glyph-name="uni2538" unicode="&#x2538;" 
d="M2048 573h-2048v82h938v983h172v-983h938v-82z" />
    <glyph glyph-name="uni2542" unicode="&#x2542;" 
d="M2048 573h-938v-983h-172v983h-938v82h938v983h172v-983h938v-82z" />
    <glyph glyph-name="uni2512" unicode="&#x2512;" 
d="M1110 -410h-172v983h-938v82h1110v-1065z" />
    <glyph glyph-name="uni2511" unicode="&#x2511;" 
d="M1067 -410h-86v942h-981v164h1067v-1106z" />
    <glyph glyph-name="uni251A" unicode="&#x251a;" 
d="M1110 573h-1110v82h938v983h172v-1065z" />
    <glyph glyph-name="uni2519" unicode="&#x2519;" 
d="M1067 532h-1067v164h981v942h86v-1106z" />
    <glyph glyph-name="uni2516" unicode="&#x2516;" 
d="M2048 573h-1110v1065h172v-983h938v-82z" />
    <glyph glyph-name="uni2515" unicode="&#x2515;" 
d="M2048 532h-1067v1106h86v-942h981v-164z" />
    <glyph glyph-name="uni250E" unicode="&#x250e;" 
d="M2048 573h-938v-983h-172v1065h1110v-82z" />
    <glyph glyph-name="uni250D" unicode="&#x250d;" 
d="M2048 532h-981v-942h-86v1106h1067v-164z" />
    <glyph glyph-name="uni251E" unicode="&#x251e;" 
d="M2048 573h-983l2 -983h-86v1024h-43v1024h172v-983h938v-82z" />
    <glyph glyph-name="uni251F" unicode="&#x251f;" 
d="M2048 573h-938v-983h-172v1024h43v1024h86v-983h981v-82z" />
    <glyph glyph-name="uni2521" unicode="&#x2521;" 
d="M2048 532h-981v-942h-86v1024h-43v1024h172v-942h938v-164z" />
    <glyph glyph-name="uni2522" unicode="&#x2522;" 
d="M2048 532h-938v-942h-172v1024h43v1024h86v-942h981v-164z" />
    <glyph glyph-name="uni2526" unicode="&#x2526;" 
d="M1110 614h-43v-1024h-86v983h-981v82h938v983h172v-1024z" />
    <glyph glyph-name="uni2527" unicode="&#x2527;" 
d="M1110 -410h-172v983h-938v82h981v983h86v-1024h43v-1024z" />
    <glyph glyph-name="uni2529" unicode="&#x2529;" 
d="M1110 614h-43v-1022h-86v940h-981v164h938v942h172v-1024z" />
    <glyph glyph-name="uni252A" unicode="&#x252a;" 
d="M1110 -410h-172v942h-938v164h981v942h86v-1024h43v-1024z" />
    <glyph glyph-name="uni252D" unicode="&#x252d;" 
d="M2048 573h-981v-983h-86v942h-981v164h1024v-41h1024v-82z" />
    <glyph glyph-name="uni252E" unicode="&#x252e;" 
d="M2048 532h-981v-942h-86v983h-981v82h1024v41h1024v-164z" />
    <glyph glyph-name="uni2531" unicode="&#x2531;" 
d="M2048 573h-938v-983h-172v942h-938v164h1024v-41h1024v-82z" />
    <glyph glyph-name="uni2532" unicode="&#x2532;" 
d="M2048 532h-938v-942h-172v983h-938v82h1024v41h1024v-164z" />
    <glyph glyph-name="uni2535" unicode="&#x2535;" 
d="M2048 573h-1024v-41h-1024v164h981v940h86v-981h981v-82z" />
    <glyph glyph-name="uni2536" unicode="&#x2536;" 
d="M2048 532h-1024v41h-1024v82h981v981h86v-940h981v-164z" />
    <glyph glyph-name="uni2539" unicode="&#x2539;" 
d="M2048 573h-1024v-41h-1024v164h938v942h172v-983h938v-82z" />
    <glyph glyph-name="uni253A" unicode="&#x253a;" 
d="M2048 532h-1024v41h-1024v82h938v983h172v-942h938v-164z" />
    <glyph glyph-name="uni253D" unicode="&#x253d;" 
d="M2048 573h-981v-983h-86v942h-981v173h981v933h86v-983h981v-82z" />
    <glyph glyph-name="uni253E" unicode="&#x253e;" 
d="M2048 532h-981v-942h-86v983h-981v82h981v983h86v-942h981v-164z" />
    <glyph glyph-name="uni2540" unicode="&#x2540;" 
d="M2048 573h-981v-983h-86v983h-981v82h938v983h172v-983h938v-82z" />
    <glyph glyph-name="uni2541" unicode="&#x2541;" 
d="M2048 573h-938v-983h-172v983h-938v82h981v983h86v-983h981v-82z" />
    <glyph glyph-name="uni2543" unicode="&#x2543;" 
d="M2048 573h-981v-983h-86v942h-981v164h938v942h172v-983h938v-82z" />
    <glyph glyph-name="uni2544" unicode="&#x2544;" 
d="M2048 532h-981v-942h-86v983h-981v82h938v983h172v-942h938v-164z" />
    <glyph glyph-name="uni2545" unicode="&#x2545;" 
d="M2048 573h-938v-983h-172v942h-938v164h981v942h86v-983h981v-82z" />
    <glyph glyph-name="uni2546" unicode="&#x2546;" 
d="M2048 532h-938v-942h-172v983h-938v82h981v983h86v-942h981v-164z" />
    <glyph glyph-name="uni2547" unicode="&#x2547;" 
d="M2048 532h-981v-942h-86v942h-981v164h938v942h172v-942h938v-164z" />
    <glyph glyph-name="uni2548" unicode="&#x2548;" 
d="M2048 532h-938v-942h-172v942h-938v164h981v942h86v-942h981v-164z" />
    <glyph glyph-name="uni2549" unicode="&#x2549;" 
d="M2048 573h-938v-983h-172v942h-938v164h938v942h172v-983h938v-82z" />
    <glyph glyph-name="uni254A" unicode="&#x254a;" 
d="M2048 532h-938v-942h-172v983h-938v82h938v983h172v-942h938v-164z" />
    <glyph glyph-name="uni3395" unicode="&#x3395;" 
d="M1921 2q-42 -89 -107 -149.5t-143 -82.5t-168 16t-172 140q-93 -35 -192 -35l-60 209q8 0 38 0.5t57.5 3t66.5 9.5q-52 132 -74.5 302.5t-13 341.5t61 331.5t139.5 263.5q62 72 125.5 102t118 17t101 -56t78.5 -114.5t46 -161.5q22 -159 21.5 -294t-23.5 -251.5
t-55.5 -208t-75.5 -164t-83 -118.5t-79 -72q45 -59 90.5 -61t81.5 44t63 129zM1075 909l-145 -899q-2 -10 1 -17t11.5 -10.5t17 -5.5t24.5 -2.5t27 0t30.5 1.5t29.5 1l-37 -174q-38 -3 -66.5 -4.5t-73.5 -0.5t-75.5 10.5t-59.5 26t-40 48t-2 74.5q-29 -52 -76.5 -92.5
t-98 -57.5t-99 7t-74.5 94l-45 -266h-213l204 1267h222l-88 -553q-37 -228 32 -297q47 -47 120 0q80 53 132 180q27 64 39 136l92 536zM1612 1149q-17 68 -35 92.5t-36 15.5t-44 -47q-66 -93 -101 -233t-37 -279t16 -265t52 -208q77 62 135 218t73.5 340.5t-23.5 365.5z" />
    <glyph glyph-name="uni3396" unicode="&#x3396;" 
d="M1960 6q-42 -90 -107 -151t-143.5 -83t-169.5 16t-174 140q-97 -34 -190 -34l-60 208q10 0 30 0.5t33.5 1.5t39 3.5t55.5 7.5q-52 133 -75 303t-14 341t60.5 331.5t140.5 263.5q77 90 155.5 114t140.5 -13t107.5 -118.5t63.5 -193.5q22 -159 22 -294.5t-22.5 -252
t-55 -208.5t-75 -164t-82.5 -118.5t-79 -72.5q44 -59 89 -60.5t81.5 44.5t64.5 128zM1100 -190h-199v688q0 59 -7.5 105.5t-19.5 74.5t-27 42.5t-31 13t-31 -17.5t-27 -44.5t-19.5 -74t-7.5 -99.5v-688h-199v688q0 67 -9 118t-24 76.5t-32.5 36.5t-35.5 -2.5t-33 -40
t-24 -76.5t-9 -112v-688h-199v1091h172v-104q19 74 64.5 109t93.5 28t92 -52.5t61 -119.5q54 141 154 173q90 28 172 -41q95 -79 119 -238q6 -43 6 -89v-757zM1649 1151q-17 68 -35 92.5t-36 15.5t-44 -47q-84 -122 -115.5 -320.5t-15 -375t62.5 -287.5q76 62 134 217
t73.5 339.5t-24.5 365.5z" />
    <glyph glyph-name="uni3397" unicode="&#x3397;" 
d="M1868 6q-43 -90 -108 -151t-142.5 -83t-167.5 16t-172 140q-94 -34 -195 -34l-57 210q90 0 162 13q-53 132 -76 302t-13.5 340.5t61 331t140.5 263.5q77 90 155.5 114t140.5 -13t107.5 -118.5t63.5 -193.5q22 -159 22 -294.5t-22.5 -252t-55 -208.5t-75 -164
t-82.5 -118.5t-79 -72.5q44 -59 89 -60.5t81.5 44.5t64.5 128zM961 -174h-197v164q-13 -36 -33 -66.5t-49 -58t-71 -43.5t-93 -17q-150 -2 -251 115.5t-121.5 287.5t7.5 340t136 290.5t264 122.5q145 2 211 -142v537h197v-1530zM1554 1151q-17 68 -33.5 92.5t-33 16
t-43.5 -45.5q-66 -93 -101 -233.5t-37 -279.5t16 -265t52 -207q76 61 133 216.5t71.5 340t-24.5 365.5zM563 764q-79 1 -133 -77.5t-67.5 -190.5t-3.5 -224t60 -189.5t124 -74.5q56 2 99 44.5t65.5 109t32.5 146.5t0.5 160t-30 146t-59.5 107.5t-88 42.5z" />
    <glyph glyph-name="afii61289" unicode="&#x2113;" 
d="M1094 8q-34 -72 -88.5 -127.5t-124 -85t-143 -30.5t-152.5 40t-146 123q-100 -34 -215 -34l-61 215q14 1 45.5 0t63.5 1t73 9q-55 131 -78 301t-12.5 340t65 330.5t146.5 263.5q66 74 134 105.5t126 19t106.5 -55.5t81.5 -116t46 -164q20 -157 18.5 -291t-26 -251
t-58.5 -209.5t-78 -165.5t-85.5 -120t-80.5 -73q45 -59 100.5 -61t102.5 46t76 129zM735 1151q-10 41 -20 65t-20 34t-23 6t-25.5 -15t-30.5 -33q-66 -97 -102 -237t-38.5 -277t16 -261t53.5 -206q77 59 136 217t75.5 343t-21.5 364z" />
    <glyph glyph-name="uni3398" unicode="&#x3398;" 
d="M1890 6q-42 -90 -107 -151t-143 -83t-168 16t-172 140q-94 -34 -192 -34l-61 210q93 0 163 13q-52 132 -74.5 301.5t-12.5 340t62 331t140 264.5q62 72 125.5 102t117 17t99.5 -55.5t77.5 -114t45.5 -160.5q22 -159 22 -294.5t-23 -252t-55 -208.5t-75 -164t-83 -118.5
t-79 -72.5q44 -59 89.5 -60.5t82.5 44.5t64 128zM1141 -190h-262l-377 507l-76 -79v-428h-203v1587h203v-875l381 424h260l-412 -471zM1579 1151q-12 52 -24 78.5t-26.5 30t-28.5 -7.5t-36 -38q-63 -94 -97 -234.5t-36 -279t15 -264.5t51 -207q77 61 134.5 216.5t72 340
t-24.5 365.5z" />
    <glyph glyph-name="uni33C4" unicode="&#x33c4;" 
d="M1980 172q-16 -190 -156 -304q-123 -102 -286 -103q-174 -1 -302 116q-171 157 -180 461q-1 17 -1 35q0 298 168 458q125 119 301 126q163 6 288 -86q138 -102 156 -278q3 -33 2 -67h-209q-5 120 -92 183q-79 57 -174 35q-108 -25 -165 -138q-48 -94 -48 -231
q0 -250 120 -354q81 -71 184 -49q90 19 140 98q27 44 33 98h221zM1034 172q-16 -188 -156 -303q-123 -102 -286 -104q-176 -2 -304 115q-171 155 -181 460q-1 18 -1 37q0 298 168 458q126 119 303 126q164 6 289 -87q138 -102 156 -277q3 -33 2 -67h-209q-9 124 -99 186
q-81 56 -176 30q-106 -29 -161 -146q-43 -91 -43 -221q0 -251 120 -355q82 -71 185 -47q90 20 139 101q27 42 33 94h221z" />
    <glyph glyph-name="uni33A3" unicode="&#x33a3;" 
d="M1794 729q-111 -1 -170 62t-59 170h137q0 -101 88 -101q41 0 66 23t28 51.5t-14 55.5t-51 34h-84v117q66 0 80 2q34 19 42 57.5t-13.5 69t-63.5 28.5q-74 -4 -74 -94h-127q-6 87 50.5 151t154.5 64q82 0 136.5 -39.5t69 -92.5t-5 -108.5t-71.5 -84.5q48 -20 76.5 -55.5
t35.5 -75t-5.5 -81t-41 -75t-77 -55.5t-107.5 -23zM1593 -186h-170v688q0 66 -5.5 116.5t-14.5 75.5t-20 36.5t-22 -1.5t-20 -39.5t-14.5 -76t-5.5 -111.5v-688h-170v688q0 58 -4.5 103.5t-12 73t-16.5 41.5t-19 12.5t-19 -17t-16.5 -43.5t-12 -72.5t-4.5 -97.5v-688h-168
v1091h135v-94q14 70 47.5 103t69 26t69 -51.5t47.5 -116.5q38 147 119 172q68 21 131 -52q80 -92 94 -264q2 -29 2 -59v-755zM797 -186h-168v688q0 65 -5.5 115.5t-15 76t-20 37t-21.5 -1.5t-20.5 -39t-15 -76t-5.5 -112v-688h-172v688q0 67 -5.5 118.5t-15 76.5t-20.5 35
t-22 -4t-20.5 -40.5t-15 -76t-5.5 -109.5v-688h-170v1091h139v-94q15 72 48.5 104t69 23t68.5 -53.5t46 -112.5q30 135 108 167q67 28 132 -35q84 -82 102 -256q4 -38 4 -79v-755z" />
    <glyph glyph-name="uni33A4" unicode="&#x33a4;" 
d="M1790 729q-113 -1 -172 62t-59 172h139q-2 -42 17 -72.5t71 -30.5q55 0 80 36.5t9 77t-63 50.5h-83v121q67 0 81 2q35 20 43 57.5t-14.5 66.5t-62.5 27q-74 -4 -74 -92h-127q-6 87 50 151t155 64q81 0 136 -40t69.5 -93t-5 -108.5t-73.5 -83.5q47 -19 75.5 -54.5
t35.5 -75.5t-4.5 -82t-40 -76t-76.5 -56t-107 -23zM1597 -186h-176v688q0 74 -9 129t-22.5 79.5t-29 24.5t-29 -24.5t-22.5 -79t-9 -129.5v-688h-174v688q0 64 -7 114.5t-18 76t-24 37t-26.5 -1t-24.5 -38.5t-18 -75.5t-7 -112.5v-688h-184v1091h148v-96q15 73 51 105.5
t74.5 23.5t74 -54t49.5 -114q38 128 121 164q76 33 145 -29q91 -80 108 -266q3 -33 3 -68zM786 180q-8 -202 -128 -319q-100 -96 -230 -92q-140 6 -241 126q-138 165 -138 476q0 313 146 475q103 114 243 116q131 1 227 -95q118 -118 119 -319v-20h-192q0 127 -66 198
q-57 60 -122 39q-81 -26 -121 -162q-28 -95 -29 -232q-3 -252 91 -355q59 -66 130 -44q64 21 96 100q20 48 21 108h194z" />
    <glyph glyph-name="uni33A5" unicode="&#x33a5;" 
d="M1616 727q-120 -1 -183 62.5t-63 171.5h148q-2 -41 18.5 -71t75.5 -30q35 0 59 15t31 37.5t4.5 46t-20.5 42t-46 23.5h-92v121q74 0 90 2q38 19 46.5 56t-15 66.5t-67.5 28.5q-28 -1 -46 -11.5t-24 -27t-7.5 -29t-0.5 -24.5h-135q-5 89 54 153t163 64q85 0 143 -39
t75 -92t-3.5 -109.5t-77.5 -88.5q62 -25 94 -71t27.5 -95.5t-32 -94.5t-85.5 -75t-131 -31zM1341 -184h-200v686q0 76 -17.5 130.5t-43.5 78t-56 22t-56 -27t-43.5 -79t-17.5 -124.5v-686h-202v686q0 56 -10.5 100.5t-27 72t-38 42.5t-44.5 15t-44.5 -15t-38 -42.5
t-27 -72.5t-10.5 -100v-686h-203v1089h176v-104q18 69 72 106t113.5 34.5t114.5 -48.5t75 -129q30 74 82.5 119t110 56t118 -8t108.5 -64t78.5 -122.5t30.5 -173.5v-755z" />
    <glyph glyph-name="uni33A6" unicode="&#x33a6;" 
d="M1599 -186h-176v686q0 57 -4.5 103t-12 74t-17 42.5t-19.5 14t-19.5 -16t-17 -44t-12 -73.5t-4.5 -100v-686h-174v686q0 57 -4.5 102.5t-12.5 73t-17.5 41.5t-20 13.5t-20 -16t-17.5 -43.5t-12.5 -72.5t-4.5 -98.5v-686h-391l-266 497l-68 -92v-405h-200v1560h200v-852
l287 398h227l-311 -443l338 -631v1057h139v-94q14 67 49.5 100t73 28t72 -49t47.5 -118q45 154 130 174q72 18 137 -63q80 -97 93 -263q2 -25 2 -51zM1786 731q-111 -1 -169 61t-58 171h139q-5 -103 84 -103q33 0 57 15.5t31 38.5t4.5 46t-20.5 41.5t-46 22.5
q-10 2 -30.5 2.5t-35.5 -0.5h-16v117q66 0 80 2q34 19 42.5 56.5t-13 67.5t-63.5 29q-21 -1 -35.5 -9t-21 -16.5t-10 -25.5t-3.5 -22v-19h-129q-6 87 49.5 151t153.5 64q83 0 137 -40t67.5 -93.5t-7 -108.5t-72.5 -83q58 -25 88.5 -71t27.5 -95t-28 -94t-79 -74.5
t-124 -30.5z" />
    <glyph glyph-name="uni3399" unicode="&#x3399;" 
d="M1800 -186h-207v688q0 78 -12.5 134t-31.5 80t-41 23t-41 -27t-31.5 -81.5t-12.5 -128.5v-688h-209v688q0 78 -12.5 134t-31 79.5t-40 22t-40 -27.5t-31 -81t-12.5 -127v-688h-209v1091h178v-100q18 72 63 107t93.5 28.5t94 -53t64.5 -121.5q33 89 92.5 136.5t123 42.5
t121 -43.5t95 -127t37.5 -203.5v-757zM731 743h-129v-925h-201v925h-145v185h145v143q0 62 1.5 96.5t8 71t19.5 53.5t35.5 28t56.5 11h203v-186q-74 0 -91 -7q-32 -12 -32 -57v-153h129v-185z" />
    <glyph glyph-name="uni339A" unicode="&#x339a;" 
d="M1886 -190h-198v688q0 77 -12.5 132.5t-31.5 79t-41 22.5t-41 -26.5t-31.5 -80t-12.5 -127.5v-688h-201v688q0 78 -12.5 133.5t-31 79t-40.5 21.5t-40.5 -28.5t-31 -80.5t-12.5 -125v-688h-197v1091h160v-104q15 68 61.5 103.5t97 31.5t97.5 -48t64 -120q43 131 140 166
q89 32 175 -30q99 -71 129 -222q10 -53 10 -111v-757zM823 -193h-202v689q0 72 -14 125t-36 77.5t-49 33.5t-54 -7t-49 -44t-36 -77.5t-14 -107.5v-689h-205v1094h194v-125q25 55 63.5 92.5t81.5 51t88.5 10.5t86.5 -30.5t73.5 -69.5t52 -108.5t19.5 -146.5v-768z" />
    <glyph glyph-name="uni339B" unicode="&#x339b;" 
d="M1921 -193h-192v685q0 77 -11.5 132.5t-29 79.5t-37.5 22.5t-37.5 -27t-29 -80.5t-11.5 -127v-685h-195v682q0 77 -12 132.5t-29.5 79.5t-38 22.5t-38 -27t-29.5 -80.5t-12 -127v-682h-193v1088h160v-98q18 71 62 106.5t90.5 30.5t89.5 -51t61 -123q46 134 141 169
q85 31 165 -33q95 -77 119 -241q7 -45 7 -94v-754zM958 909l-145 -899q-2 -10 0.5 -16.5t10 -10t15.5 -5.5t21.5 -2t24.5 0.5t28 2t29 1.5l-37 -177q-60 -10 -107 -10t-93 12.5t-71.5 50.5t-25.5 99q-26 -51 -68.5 -90.5t-86.5 -55.5t-82.5 6t-53.5 87l-45 -260h-200
l204 1267h209l-94 -575q-37 -227 23 -292q39 -43 101 6q74 59 119 200q16 50 25 104l97 557h202z" />
    <glyph glyph-name="uni339C" unicode="&#x339c;" 
d="M1903 -190h-181v690q0 74 -10 128t-25 78.5t-32.5 24.5t-32.5 -24.5t-25 -78.5t-10 -128v-690h-182v690q0 73 -10 127t-25.5 78t-33 24t-33 -24.5t-25.5 -78t-10 -126.5v-690h-185v1093h148v-96q13 55 41 88.5t61 39.5t67 -8.5t62.5 -57.5t42.5 -105q50 147 141 176
q79 24 151 -49q86 -88 103 -255q3 -33 3 -67v-759zM963 -190h-183v690q0 74 -10 128.5t-25 79t-32.5 24.5t-32.5 -24.5t-25 -79t-10 -128.5v-690h-182v690q0 74 -10.5 128t-25.5 77.5t-33.5 23t-33.5 -24.5t-25.5 -78t-10.5 -126v-690h-183v1093h148v-98q20 77 59.5 109.5
t80.5 21.5t78.5 -56.5t55.5 -113.5q48 145 140 173q79 25 152 -47q87 -87 105 -254q3 -34 3 -69v-759z" />
    <glyph glyph-name="uni339D" unicode="&#x339d;" 
d="M1921 -190h-190v682q0 78 -12 134t-30 80.5t-39 23.5t-39 -27t-30 -81.5t-12 -129.5v-682h-193v682q0 79 -11.5 134.5t-29 78.5t-38 21t-38 -28t-29 -80.5t-11.5 -125.5v-682h-195v1087h164v-94q17 73 59 107t87.5 26t88.5 -55t62 -123q47 142 144 177q86 31 166 -36
q95 -78 119 -240q7 -46 7 -96v-753zM977 176q-19 -195 -155 -311q-119 -100 -272 -98q-165 2 -283 122q-162 169 -163 488q0 308 161 470q119 118 284 122q153 3 270 -93q133 -110 147 -297q2 -25 1 -51h-203q-10 139 -97 204q-75 55 -161 24q-94 -33 -143 -152
q-39 -93 -39 -223q0 -256 112 -360q75 -69 168 -44q82 22 128 105q23 43 30 94h215z" />
    <glyph glyph-name="uni339E" unicode="&#x339e;" 
d="M1919 -190h-190v684q0 77 -12 133t-30 80t-39 23t-39 -27t-30 -81t-12 -128v-684h-193v682q0 79 -11.5 134.5t-29 78.5t-38 21t-38 -28t-29 -80.5t-11.5 -125.5v-682h-195v1089h162v-94q16 74 58 108t88 26t89.5 -55.5t63.5 -123.5q48 142 144 177q85 31 165 -35
q95 -78 120 -241q7 -47 7 -98v-753zM999 -190h-245l-330 501l-70 -82v-419h-204v1587h204v-869l340 412h252l-375 -465z" />
    <glyph glyph-name="uni339F" unicode="&#x339f;" 
d="M2005 788h-406q-2 83 24 146t65 99t78 63.5t67 57.5t29 65q1 53 -40 74q-38 20 -71 -8q-37 -31 -31 -105h-131q-7 131 84 199q72 54 161 38q90 -15 130 -93q24 -47 21 -110q-2 -46 -27.5 -86.5t-61 -68.5t-70.5 -53.5t-60 -52t-27 -52.5h266v-113zM797 -186h-170v688
q0 64 -5.5 114.5t-14.5 76t-20 37t-21.5 -1t-19.5 -38.5t-14.5 -75.5t-5.5 -112.5v-688h-174v688q0 68 -5.5 119t-14.5 76t-20 35t-22 -4t-20 -41t-14.5 -76t-5.5 -109v-688h-170v1089h139v-94q11 56 35.5 89.5t53 38t57 -10t51.5 -55.5t33 -97q38 145 118 170
q69 22 133 -52q80 -92 95 -263q2 -29 2 -60v-755zM1589 -186h-170v688q0 64 -5.5 114.5t-14.5 76t-19.5 37t-21 -1t-19.5 -38.5t-14.5 -75.5t-5.5 -112.5v-688h-174v688q0 68 -5.5 119t-15 76t-20 35t-21.5 -4t-20.5 -41t-15 -76t-5.5 -109v-688h-170v1089h140v-94
q9 47 28 78t41.5 42.5t47.5 7t47 -23.5t39.5 -55.5t25.5 -83.5q38 145 118 170q69 22 133 -52q80 -92 95 -263q2 -29 2 -60v-755z" />
    <glyph glyph-name="uni33A0" unicode="&#x33a0;" 
d="M2005 788h-406q-2 83 24 146t65 99t78 63.5t67 57.5t29 65q1 53 -40 74q-38 20 -71 -8q-37 -31 -31 -105h-131q-7 131 84 199q72 54 161 38q90 -15 130 -93q24 -47 21 -110q-2 -46 -27.5 -86.5t-61 -68.5t-70.5 -53.5t-60 -52t-27 -52.5h266v-113zM1591 -190h-176v688
q0 74 -9 128t-22.5 78.5t-29 24.5t-29 -24.5t-22.5 -78.5t-9 -128v-688h-176v688q0 57 -5 102.5t-13.5 73t-19.5 41.5t-22.5 13.5t-22.5 -16t-19.5 -43.5t-13.5 -72.5t-5 -98.5v-688h-180v1091h148v-94q14 68 50.5 101t76 26.5t75 -51.5t47.5 -117q47 141 134 170
q76 25 144 -46q86 -91 97 -273q2 -24 2 -50v-757zM782 172q-8 -206 -129 -322q-100 -97 -231 -91q-139 6 -239 126q-138 165 -138 475q0 312 146 474q103 115 243 117q131 2 228 -95q118 -117 118 -321v-17h-192q0 134 -68 202q-56 56 -122 30q-81 -31 -121 -169
q-26 -93 -27 -221q-2 -251 92 -355q59 -66 130 -43q65 21 96 103q19 48 20 107h194z" />
    <glyph glyph-name="uni33A1" unicode="&#x33a1;" 
d="M1853 784h-417q-2 83 24.5 146t66 99t79.5 64t69 58.5t31 65.5q2 49 -39 74q-40 23 -74 -1q-41 -29 -37 -110h-129q-8 132 84 200q73 55 165 39q91 -15 132 -92q26 -49 23 -113q-2 -48 -28.5 -88t-62.5 -68t-72 -52.5t-61.5 -52.5t-27.5 -58h274v-111zM1352 -190h-203
v686q0 76 -17.5 130.5t-43.5 78t-56 22t-56 -27t-43.5 -79t-17.5 -124.5v-686h-202v686q0 56 -10.5 101t-27 72.5t-38 42t-44.5 14t-44.5 -15.5t-38 -42.5t-27 -72t-10.5 -99.5v-686h-203v1089h174v-104q15 58 54 94t86.5 42t95 -8.5t86.5 -58t55 -106.5q31 76 83.5 121
t110.5 56t119 -9t109 -66t78.5 -123t30.5 -172v-755z" />
    <glyph glyph-name="uni33A2" unicode="&#x33a2;" 
d="M1599 -186h-176v686q0 57 -4.5 103t-12 74t-17 42.5t-19.5 14t-19.5 -16t-17 -44t-12 -73.5t-4.5 -100v-686h-174v686q0 57 -4.5 102.5t-12.5 73t-17.5 41.5t-20 13.5t-20 -16t-17.5 -43.5t-12.5 -72.5t-4.5 -98.5v-686h-391l-266 497l-68 -92v-405h-200v1560h200v-852
l287 398h227l-311 -443l338 -631v1057h139v-94q14 67 49.5 100t73 28t72 -49t47.5 -118q24 81 50 115q41 51 110 51q48 1 84.5 -20.5t58 -55t35 -84t18.5 -100t6 -109.5zM2005 788h-406q-2 83 24 146t65 99t78 63.5t67 57.5t29 65q1 53 -40 74q-38 20 -71 -8
q-37 -31 -31 -105h-131q-7 131 84 199q72 54 161 38q90 -15 130 -93q24 -47 21 -110q-2 -46 -27.5 -86.5t-61 -68.5t-70.5 -53.5t-60 -52t-27 -52.5h266v-113z" />
    <glyph glyph-name="uni33CA" unicode="&#x33ca;" 
d="M1931 -109l-157 -110q-28 24 -62.5 75.5t-44.5 110.5q-94 -179 -305 -172q-144 5 -232.5 126t-97 291t28.5 339t145 287t252 118q163 0 219 -139l6 94h168q-7 -49 -13.5 -143t-9.5 -164l-3 -69q-3 -44 -3.5 -154t0.5 -199l1 -88q0 -45 27 -96t54 -79zM977 -190h-219v645
q0 74 -18 132t-46 87.5t-62.5 43t-69 -1t-62.5 -45t-46 -88.5t-18 -132v-641h-213v1568h213v-600q36 70 92 108.5t115 42.5t119.5 -22t107.5 -76.5t77 -130t30 -174.5v-716zM1440 762q-72 0 -124 -79t-69 -191.5t-12.5 -225.5t45.5 -193t106 -81q74 -1 124.5 78t64.5 192
t7.5 227t-45.5 193.5t-97 79.5z" />
    <glyph glyph-name="uni338D" unicode="&#x338d;" 
d="M1835 70q0 -238 -141 -370q-110 -103 -262 -105q-148 -2 -255 95q-115 103 -128 281h217q8 -78 50 -128t97 -57.5t108.5 11.5t90.5 79t37 144v82q-36 -66 -82 -97t-137 -32q-113 -2 -200 58.5t-130.5 159t-62 217.5t4 238.5t67.5 218t129 160.5t189 62q155 0 222 -151
v115h186v-981zM1012 989l-144 -897q-2 -10 1 -16.5t11 -10.5t17 -5.5t24 -1.5t27 0.5t30.5 1.5t29.5 1l-37 -184q-37 -3 -57 -4.5t-54 -3t-54 2t-46.5 9t-42 18t-30.5 29.5t-21.5 43.5t-6.5 59.5q-25 -49 -67.5 -88.5t-88 -57t-88.5 5.5t-65 91l-43 -267h-205l205 1268h207
l-86 -555q-37 -236 28 -300q43 -42 109 10q77 61 123 198q18 53 27 110l90 547zM1427 903q-51 0 -92.5 -40.5t-63.5 -105.5t-33 -143t-1.5 -156.5t31.5 -143.5t66 -105.5t102 -40.5q54 0 95.5 40.5t62.5 105.5t30 143t-2 156.5t-33.5 143.5t-65 105.5t-96.5 40.5z" />
    <glyph glyph-name="uni338E" unicode="&#x338e;" 
d="M993 -111h-182v691q0 76 -10 131t-24.5 79.5t-32 24t-32 -26t-24.5 -80t-10 -128.5v-691h-184v691q0 75 -10 129.5t-24.5 78.5t-31.5 23t-31.5 -26t-24.5 -79t-10 -126v-691h-186v1094h150v-100q17 73 55.5 108t79.5 29t78.5 -52.5t52.5 -121.5q55 148 148 175
q80 23 152 -53q85 -91 99 -264q2 -27 2 -55v-760zM1835 70q0 -238 -141 -370q-110 -103 -262 -105q-148 -2 -255 95q-115 103 -128 281h217q8 -78 50 -128t97 -57.5t108.5 11.5t90.5 79t37 144v82q-36 -66 -82 -97t-137 -32q-113 -2 -200 58.5t-130.5 159t-62 217.5t4 238.5
t67.5 218t129 160.5t189 62q155 0 222 -151v115h186v-981zM1427 903q-51 0 -92.5 -40.5t-63.5 -105.5t-33 -143t-1.5 -156.5t31.5 -143.5t66 -105.5t102 -40.5q54 0 95.5 40.5t62.5 105.5t30 143t-2 156.5t-33.5 143.5t-65 105.5t-96.5 40.5z" />
    <glyph glyph-name="uni338F" unicode="&#x338f;" 
d="M1835 70q0 -119 -37 -215t-98.5 -150.5t-136.5 -86t-154 -24t-149 39t-123.5 100t-75.5 160.5h-238l-321 503l-74 -80v-423h-209v1587h209v-860l354 403h258l-387 -465l400 -627q-1 6 -2 19t-2 20h217q8 -78 50 -128t97 -57.5t108.5 11.5t90.5 79t37 144v82
q-36 -66 -82 -97t-137 -32q-113 -2 -200 58.5t-130.5 159t-62 217.5t4 238.5t67.5 218t129 160.5t189 62q155 0 222 -151v115h186v-981zM1427 903q-51 0 -92.5 -40.5t-63.5 -105.5t-33 -143t-1.5 -156.5t31.5 -143.5t66 -105.5t102 -40.5q54 0 95.5 40.5t62.5 105.5t30 143
t-2 156.5t-33.5 143.5t-65 105.5t-96.5 40.5z" />
    <glyph glyph-name="uni33CF" unicode="&#x33cf;" 
d="M1722 -188q-37 0 -81 -2t-71 -3.5t-59 -1.5t-50.5 4t-39 13t-31.5 26t-21 42.5t-13.5 62.5t-3.5 86v745h-140v179h140v303h215v-303h135v-185h-135v-704q0 -28 6.5 -46t13.5 -27.5t25.5 -13.5t29.5 -4.5t39 0.5t41 1v-172zM1225 -188h-264l-357 503l-74 -79v-424h-208
v1587h208v-860l355 403h258l-387 -465z" />
    <glyph glyph-name="uni3388" unicode="&#x3388;" 
d="M2034 -18q-27 -63 -66 -111t-88.5 -72.5t-102 -23.5t-109.5 39t-107 112q-68 -32 -160 -32l-55 206q24 1 39 0t39 2t57 11q-63 167 -74 399t38 461.5t150 367.5q54 74 108 105.5t99 20t82 -53.5t60 -115t28 -165q14 -215 -4.5 -408.5t-59 -327.5t-86.5 -225t-93 -135
q39 -73 88 -48.5t73 122.5zM1401 -119l-121 -112q-102 102 -119 190q-43 -95 -89.5 -134t-123.5 -40q-137 -1 -211 166q-71 163 -57 406q14 246 107 412q100 180 250 177h3q119 -5 158 -133l6 90h152q-6 -46 -15.5 -140t-15.5 -165l-6 -70q-4 -43 -7.5 -155t-5.5 -203
l-1 -90q-1 -30 8.5 -61.5t23.5 -55t28.5 -43t24.5 -29.5zM678 512h-176q-6 185 -66 234q-44 35 -92 -22q-68 -82 -85 -277q-4 -45 -5 -93q-3 -247 70 -345q45 -59 94 -34q53 27 70 129q6 34 6 74h180q-2 -203 -109 -320q-85 -93 -195 -88q-120 5 -205 124q-113 159 -112 458
q1 308 130 478q89 117 207 125q112 8 192 -87q103 -123 96 -356zM1788 1139q-3 25 -6 42.5t-7 29t-6.5 19t-7.5 8t-7.5 0.5t-9 -7.5t-9.5 -12t-11.5 -17.5t-13.5 -19q-67 -120 -96 -310t-20 -361.5t44 -279.5q47 67 89.5 216t62.5 332t-2 360zM1024 760q-47 2 -84 -77.5
t-51 -193.5t-14.5 -228.5t23.5 -195t65 -79.5q50 1 86 80t48 192t10 226.5t-25 193.5t-58 82z" />
    <glyph glyph-name="uni3389" unicode="&#x3389;" 
d="M1022 518h-156q-1 19 0 46.5t-1 60t-5.5 60t-15 46t-29.5 19.5q-41 2 -70 -77t-37.5 -192.5t-4.5 -227.5t28 -194t60 -79q38 0 50.5 47t16.5 145h160q-11 129 3 265.5t49 251t96 186.5t137 69q80 -4 108 -119l6 82l119 -2q-5 -45 -12.5 -140t-11.5 -167l-5 -72
q-2 -28 -2 -121.5t1 -202t1 -116.5q60 -4 105 8q-52 164 -61 397.5t31 466.5t122 373q90 152 171 126q70 -23 106 -166q18 -73 22 -165q11 -213 -4 -407t-47 -329.5t-69 -227.5t-75 -137q23 -65 57 -62q35 3 56 71q6 21 10 46l107 -131q-25 -72 -64.5 -119t-86.5 -62.5
t-103 20t-107 124.5q-33 -15 -100 -18l12 -13l-108 -108q-79 86 -95 190q-41 -104 -71.5 -140.5t-93.5 -35.5q-86 3 -138 110.5t-65 274.5q-2 -83 -11.5 -145.5t-32.5 -120t-67.5 -88.5t-109.5 -31q-62 0 -113 39.5t-82.5 106.5t-52.5 154t-24 183t4 192.5t31.5 183.5
t58 154t84 106.5t108.5 39.5q221 0 211 -428zM618 -190h-176l-188 495l-47 -80v-415h-164v1554h164v-848l219 387h178l-239 -430zM1286 760q-23 2 -43.5 -39.5t-34 -109t-23 -149.5t-10 -164.5t4 -151t18.5 -112t35 -44.5q24 -2 44 39.5t33 109t21.5 149.5t8.5 164.5
t-4.5 151t-17.5 112t-32 44.5zM1847 1135q-9 83 -17 83q-5 0 -26 -47q-54 -121 -79.5 -310t-19.5 -361t34 -279q57 102 95 387t13 527z" />
    <glyph glyph-name="uni33C8" unicode="&#x33c8;" 
d="M1454 -190h-371v1570h387q102 0 185 -40t132.5 -104t70.5 -145.5t9 -162t-61.5 -156.5t-132.5 -127q66 -25 117.5 -75.5t81.5 -113.5t41 -136t1.5 -144.5t-44 -138t-88.5 -117t-139 -80.5t-189 -30zM942 -172h-199v164q-71 -180 -245 -182q-151 -2 -252.5 115
t-122.5 285.5t6.5 337t134.5 287t262 119.5q84 0 137.5 -39.5t79.5 -95.5v555h199v-1546zM1425 1208h-139v-487h133q51 0 94 16.5t71.5 45t49 65t26 77t2.5 80.5t-22 76.5t-46.5 65t-71.5 45t-97 16.5zM1430 530h-144v-536h146q60 0 110 18.5t82 49.5t53.5 71t25.5 84.5
t-2 89t-29 84.5t-55 71t-81 49.5t-106 18.5zM535 766q-78 1 -132 -77.5t-67.5 -190.5t-3 -224t61 -189.5t124.5 -74.5q55 2 98 44.5t65.5 109t33.5 146.5t2 160t-29.5 146t-61 107.5t-91.5 42.5z" />
    <glyph glyph-name="uni33A7" unicode="&#x33a7;" 
d="M1866 45q-3 -56 -28.5 -103.5t-67 -78.5t-94.5 -52.5t-111 -25.5t-115.5 1.5t-109.5 30t-92 59.5t-63.5 89.5t-23.5 120.5h189q0 -60 34 -97t83 -43.5t98 1.5t84 36t37 64q2 34 -23.5 58.5t-67.5 39.5t-93 29t-102.5 32t-94.5 43t-70 67.5t-27 99.5q-1 92 64 160
t158.5 86.5t186.5 4.5t158.5 -89t65.5 -191h-168q0 85 -69 119t-139 8t-72 -88q-1 -32 25 -56t68.5 -40t94.5 -31.5t103 -35.5t93 -46.5t67 -70.5t22 -101zM1950 1337l-1618 -1634l-119 100l1628 1633zM936 569h-172v420q0 75 -9.5 128.5t-23 76.5t-30 22t-30 -26t-23 -77.5
t-9.5 -123.5v-420h-174v420q0 77 -9.5 131t-23 76.5t-30 20.5t-30 -28t-23 -78.5t-9.5 -121.5v-420h-172v822h135v-101q14 73 50.5 106t77 25t78.5 -53t54 -115q32 126 112 165q74 35 144 -22q91 -73 112 -249q5 -44 5 -92v-486z" />
    <glyph glyph-name="uni33A8" unicode="&#x33a8;" 
d="M1974 453h-327q-2 58 18 101t49.5 68t60 44.5t52.5 41t24 46.5q2 37 -31 52q-35 16 -60 -11q-21 -23 -19 -70h-103q-5 110 75 158q65 39 141 16q74 -23 97 -90q9 -27 7 -59q-2 -35 -32 -70t-64.5 -57.5t-64 -46t-30.5 -37.5h207v-86zM1886 1362l-1620 -1634l-112 98
l1630 1632zM909 610h-168v398q0 75 -9.5 128.5t-23.5 76.5t-30.5 22t-30.5 -26t-23.5 -77.5t-9.5 -123.5v-398h-172v398q0 151 -32 206t-63.5 -8.5t-31.5 -199.5v-396h-170v797h136v-98q15 74 51.5 106.5t76.5 23t77 -54t53 -112.5q30 122 109 162q74 37 143 -16
q91 -70 113 -249q5 -45 5 -96v-463zM1669 10q-6 -71 -57.5 -124.5t-123.5 -78t-154.5 -22.5t-152.5 30.5t-116.5 92.5t-46.5 153h174q0 -91 74.5 -123t151.5 -6t83 78q4 37 -18 62t-61 39.5t-86.5 26t-96 27.5t-88.5 39t-65 65.5t-25 101.5q1 87 60 148.5t143.5 76.5t169 0
t143.5 -83t59 -171h-157q-1 52 -27 86.5t-62.5 43t-74 3t-65 -30.5t-31.5 -59q-4 -32 20.5 -55.5t65.5 -38t91.5 -28.5t100.5 -33t90.5 -45t63.5 -70.5t18 -104.5z" />
    <glyph glyph-name="uni33B0" unicode="&#x33b0;" 
d="M1915 137q-3 -81 -52 -148.5t-125.5 -105.5t-167.5 -58t-182.5 -3t-167.5 56.5t-124.5 122.5t-51.5 194h226q1 -55 24 -96.5t59 -62t80 -30t88.5 -2t82 23.5t63 44.5t29.5 62.5q5 42 -13 74t-53.5 52.5t-83 36.5t-101 31t-107 31.5t-102 41t-85.5 57t-58 83.5t-18 115
q5 122 90.5 208.5t204 106.5t236 -3t199 -120.5t79.5 -244.5h-201q-2 123 -102 171q-81 38 -174 11q-85 -25 -110 -86q-6 -14 -7 -30q-5 -49 28 -82.5t89 -53t125 -37.5t137.5 -43.5t125 -61.5t90.5 -101t30 -154zM623 -150q-84 0 -142.5 40t-85.5 96v-455h-198v1417h198
v-157q31 77 92 131.5t148 54.5q82 0 151.5 -38.5t115 -103.5t78.5 -149.5t41 -178t2 -186.5t-38 -178t-78.5 -150t-120.5 -104t-163 -39zM606 774q-62 -2 -107 -57.5t-65 -137t-19.5 -176t21 -175.5t65.5 -135t105 -54q57 0 101 40.5t66.5 106t32.5 145t-1.5 158t-34 143.5
t-66 104.5t-98.5 37.5z" />
    <glyph glyph-name="uni33B1" unicode="&#x33b1;" 
d="M1874 113q-3 -81 -52 -148.5t-125 -105.5t-167.5 -58t-183.5 -3.5t-168 56t-125 122.5t-52 194h228q1 -55 24 -96t59 -61.5t80 -30t88.5 -2t82 23.5t63 44.5t29.5 62.5q6 47 -18 81.5t-67.5 54t-100.5 38.5t-118 34t-119 41t-103 58t-71.5 87.5t-23.5 127.5
q5 120 89.5 205.5t203 106.5t235.5 -1t199 -120t82 -246h-201q-2 122 -102 170q-80 38 -173 12q-85 -25 -110 -85q-7 -16 -8 -32q-4 -38 15.5 -66.5t56 -47t84 -33.5t101 -30t107 -32t101.5 -44t85 -62.5t57.5 -90.5t17.5 -124zM926 -193h-209v689q0 53 -10 96.5t-26.5 70.5
t-38.5 45.5t-46 21t-47.5 -3t-45.5 -25.5t-38.5 -48t-26.5 -69.5t-10 -89.5v-687h-209v1094h199v-125q30 67 81 105.5t106.5 46t113 -13t103.5 -64.5t75 -116t29 -159v-768z" />
    <glyph glyph-name="uni33B2" unicode="&#x33b2;" 
d="M1903 111q-3 -81 -52.5 -148.5t-125.5 -105.5t-167.5 -58t-183 -3.5t-167.5 56t-125 122.5t-52 194h227q2 -55 25 -96.5t59.5 -61.5t80.5 -29.5t88.5 -1.5t81.5 24t62 44t29 62q6 53 -26 90t-87.5 59t-123.5 40t-136.5 42t-125 57t-90.5 92.5t-31 141.5q3 87 49.5 157
t118.5 107.5t158 55.5t171 -1t155.5 -60t114.5 -123t44 -189h-201q-2 123 -103 171q-81 37 -175 10q-84 -25 -109 -85q-7 -15 -8 -31q-3 -39 17 -68t56 -47.5t84 -33.5t101.5 -29.5t107 -31.5t101.5 -43.5t84.5 -62t56.5 -91t17 -125.5zM1032 907l-143 -897q-2 -10 1 -16.5
t11 -10t17 -5.5t23.5 -2t26.5 0.5t30 2t30 1.5l-37 -185q-33 -3 -51 -4.5t-48.5 -2.5t-48.5 0.5t-43 5.5t-40 11.5t-32 19.5t-26.5 29.5t-15.5 41t-6 53.5q-25 -49 -67.5 -88.5t-88 -57t-88.5 5.5t-65 91l-43 -267h-205l205 1268h207l-86 -555q-37 -236 28 -300
q43 -41 109 12q77 62 123 200q17 51 26 107l90 546z" />
    <glyph glyph-name="uni33B3" unicode="&#x33b3;" 
d="M1915 113q-3 -78 -50.5 -145.5t-121 -106.5t-162 -60.5t-177 -6t-162 54.5t-121 123t-50.5 198h219q2 -57 24 -98.5t57 -61.5t76.5 -29t83.5 -0.5t77.5 24.5t59.5 44t28 60q6 52 -24.5 89.5t-84.5 59.5t-120.5 41.5t-133.5 44t-122 58t-88 92.5t-29 139q4 89 49.5 160
t115.5 108t153.5 54.5t166 -2t150.5 -61t110.5 -123.5t42.5 -189h-201q-2 128 -100 174q-78 36 -166 6q-79 -27 -102 -87q-5 -13 -6 -28q-3 -39 16 -69t54.5 -49t82 -34.5t98.5 -30t103.5 -32t98.5 -44t82.5 -61.5t55.5 -89t17 -123zM1026 -190h-188v688q0 76 -11 131
t-27 79t-35 23.5t-35 -26t-27 -80t-11 -127.5v-688h-190v688q0 62 -8 111.5t-21 75.5t-28.5 39t-31 2t-28.5 -36.5t-21 -76t-8 -115.5v-688h-192v1093h153v-104q15 71 56.5 107t87 31.5t87 -49.5t56.5 -122q49 131 142 167q86 34 163 -30q95 -79 113 -258q4 -36 4 -76v-759z
" />
    <glyph glyph-name="uni33B4" unicode="&#x33b4;" 
d="M1907 1380l-496 -1570h-190l-494 1570h215l373 -1235l375 1235h217zM580 -115q-143 2 -203 156v-434h-184v1263h178v-88q84 146 217 146q72 0 132 -35.5t98.5 -96.5t65.5 -139.5t32 -165.5t-1 -173.5t-34 -165t-67.5 -138.5t-100.5 -95t-133 -34zM571 743q-47 0 -84 -37
t-56 -95.5t-28.5 -129.5t-1.5 -142.5t26 -130t53.5 -95.5t80.5 -37q48 0 85.5 37t57 95.5t29 129.5t1.5 142.5t-26 130t-54.5 95.5t-82.5 37z" />
    <glyph glyph-name="uni33B5" unicode="&#x33b5;" 
d="M1907 1386l-498 -1581h-199l-497 1581h221l375 -1255l377 1255h221zM872 -195h-208v635q0 69 -13 119t-34 73t-46.5 31t-51 -7.5t-46.5 -42.5t-34 -73.5t-13 -101.5v-633h-211v1039h209v-109q34 64 81.5 98t96.5 37t98 -20.5t87 -68.5t61.5 -114t23.5 -149v-713z" />
    <glyph glyph-name="uni33B6" unicode="&#x33b6;" 
d="M1939 1378l-481 -1573h-188l-479 1573h206l365 -1267l367 1267h210zM940 815l-125 -805q-1 -7 0.5 -13t5.5 -9.5t9 -6t13 -3t15.5 -1t18.5 0t19.5 1t21 1.5t20.5 2l-35 -177q-54 -11 -104 -9.5t-88.5 14t-61 50t-22.5 97.5q-19 -46 -59 -85t-83.5 -57t-83 2.5t-55.5 84.5
l-41 -279h-186l180 1192h195l-76 -483q-36 -231 25 -292q40 -39 101 12q73 63 115 201q13 46 21 95l74 467h186z" />
    <glyph glyph-name="uni33B7" unicode="&#x33b7;" 
d="M1927 1380l-475 -1573h-190l-474 1573h209l359 -1263l362 1263h209zM954 -193h-170v621q0 76 -10.5 130t-26.5 77.5t-34.5 22t-34.5 -26.5t-26.5 -78.5t-10.5 -124.5v-621h-170v621q0 74 -10 128t-25.5 77.5t-33 23t-33 -25t-25.5 -78t-10 -125.5v-621h-170v1020h135v-96
q16 68 53.5 101.5t77 28t76 -49.5t51.5 -119q49 139 139 168q80 26 152 -44q88 -86 103 -256q3 -30 3 -62v-691z" />
    <glyph glyph-name="uni33B8" unicode="&#x33b8;" 
d="M1923 1382l-467 -1572h-190l-465 1572h213l346 -1253l354 1253h209zM967 -190h-217l-277 530l-70 -96v-434h-190v1572h190v-839l281 401h219l-299 -436z" />
    <glyph glyph-name="uni33B9" unicode="&#x33b9;" 
d="M2007 1382l-330 -1572h-192l-332 1572h199l227 -1161l233 1161h195zM1133 -190h-191v1048l-233 -1048h-197l-225 1040v-1040h-183v1572h234l274 -1214l281 1214h240v-1572z" />
    <glyph glyph-name="uni3380" unicode="&#x3380;" 
d="M1978 -195h-213l-135 445h-508l-133 -445h-211l510 1573h180zM530 -117q-135 2 -190 152v-430h-184v1263h178v-88q15 30 29.5 50t38.5 43.5t58 36t77 12.5q72 0 131.5 -36t97.5 -96.5t64 -138.5t31 -165t-1.5 -173t-34 -164t-66.5 -138t-98.5 -94.5t-130.5 -33.5z
M1569 446l-191 631l-192 -631h383zM516 733q-59 0 -100 -67.5t-51.5 -163.5t-1.5 -192.5t49.5 -164t101.5 -67.5q47 0 84 36t56 94t28.5 127.5t1 139.5t-27 128t-55.5 94t-85 36z" />
    <glyph glyph-name="uni3381" unicode="&#x3381;" 
d="M1976 -193h-207l-131 443h-489l-129 -443h-211l491 1571h185zM795 -193h-195v631q0 97 -24 157t-58.5 69.5t-69.5 -9.5t-59 -80t-24 -141v-627h-195v1031h195v-121q20 45 47.5 77t57.5 48t62 21t63.5 -4t61 -27.5t54.5 -50t44 -70t29.5 -89t10.5 -106.5v-709zM1575 446
l-180 613l-183 -613h363z" />
    <glyph glyph-name="uni3382" unicode="&#x3382;" 
d="M1980 -195h-208l-132 443h-483l-131 -443q-202 0 -201 -4q-12 1 -39 3t-39.5 3t-35.5 4t-34.5 7.5t-28.5 12t-25.5 18.5t-18 25.5t-13 35t-3.5 45.5q-22 -48 -63 -86.5t-84 -55.5t-82 4t-54 85l-39 -279h-186l182 1190h193l-76 -481q-35 -226 24 -291q39 -42 98 6
q73 60 116 203q14 47 22 98l76 465h184l-123 -803q-4 -28 25 -32.5t69 2.5l435 1396h184zM1577 442l-184 613l-183 -613h367z" />
    <glyph glyph-name="uni3383" unicode="&#x3383;" 
d="M2001 -193h-209l-123 443h-446l-123 -443h-338v621q0 73 -11 126.5t-27 77.5t-35 23.5t-35 -25t-27 -77.5t-11 -125v-621h-174v621q0 75 -10 128.5t-25 76.5t-32.5 22t-32.5 -26t-25 -77.5t-10 -123.5v-621h-172v1020h137v-96q13 64 49.5 97.5t77 30.5t79 -46.5
t54.5 -120.5q36 119 121 158q81 37 155 -19q95 -70 117 -245q5 -43 5 -90v-551l420 1433h186zM1612 444l-168 605l-164 -605h332z" />
    <glyph glyph-name="uni3384" unicode="&#x3384;" 
d="M1962 -193h-207l-129 443h-471l-127 -443h-313l-269 531l-71 -96v-435h-187v1573h187v-843l276 405h211l-291 -436l291 -563l436 1437h183zM1565 444l-172 613l-185 -613h357z" />
    <glyph glyph-name="uni33BA" unicode="&#x33ba;" 
d="M1978 1401l-256 -1596h-184l-209 1201l-207 -1201h-184l-258 1596h190l158 -1073l184 1073h224l180 -1100l162 1100h200zM489 -115q-26 0 -48 5.5t-39 17.5t-29.5 21.5t-24.5 28.5t-17 27.5t-15 28.5t-11 23v-430h-172v1263h172v-86q14 26 21.5 39t25.5 36t35.5 34.5
t45.5 21t61 9.5q64 0 118 -36t88.5 -96.5t58.5 -138.5t28.5 -165t-1 -173t-30 -164t-60 -138t-89.5 -94.5t-118 -33.5zM475 737q-40 0 -72 -36t-48.5 -94t-24.5 -128t-0.5 -140.5t23 -128.5t47 -94t71.5 -36q53 0 90.5 67.5t47.5 164t2.5 193.5t-44 164.5t-92.5 67.5z" />
    <glyph glyph-name="uni33BB" unicode="&#x33bb;" 
d="M1970 1401l-254 -1594h-180l-209 1199l-205 -1199h-184l-260 1594h190l160 -1073l182 1073h226l180 -1100l162 1100h192zM750 -190h-185v630q0 95 -23 155t-55.5 70t-65.5 -8t-56 -78t-23 -141v-628h-186v1030h182v-119q53 129 152.5 146.5t179.5 -81t80 -266.5v-710z
" />
    <glyph glyph-name="uni33BC" unicode="&#x33bc;" 
d="M1999 1399l-252 -1596h-184l-205 1198l-201 -1198h-176l-252 1596h189l153 -1073l180 1073h219l177 -1100l157 1100h195zM819 -16l-31 -177q-52 -7 -100 -4.5t-84.5 13.5t-58 46t-21.5 93q-31 -75 -83 -116t-98.5 -26t-59.5 89l-39 -275h-181l177 1190h182l-72 -483
q-36 -239 19 -294q35 -36 88 21q69 75 104 231q7 29 12 60l72 465h174l-117 -803q-1 -8 0.5 -13.5t5 -9.5t8.5 -6.5t12.5 -3.5t14.5 -1.5t17.5 0t18.5 1t20 1.5t20 2z" />
    <glyph glyph-name="uni33BD" unicode="&#x33bd;" 
d="M1991 1401l-248 -1596h-180l-185 1190l-182 -1190h-176l-250 1596h188l150 -1069l164 1069h215l160 -1098l155 1098h189zM850 -190h-162v620q0 75 -9.5 128.5t-23 76.5t-30 21.5t-30 -26t-23 -77.5t-9.5 -123v-620h-164v620q0 73 -8.5 126t-22 76.5t-28.5 23t-28.5 -24.5
t-22 -77t-8.5 -124v-620h-166v1019h131v-96q10 52 34 85t54 40t59 -6t53.5 -54.5t34.5 -103.5q48 140 133 169q76 24 141 -47q84 -91 94 -274q1 -22 1 -44v-688z" />
    <glyph glyph-name="uni33BE" unicode="&#x33be;" 
d="M1972 1403l-248 -1596h-184l-199 1199l-196 -1199h-184l-173 1096l-253 -395l339 -698h-204l-258 532l-72 -106v-426h-176v1570h176v-843l266 403h176l-71 463h190l150 -1073l176 1073h219l172 -1100l154 1100h200z" />
    <glyph glyph-name="uni33BF" unicode="&#x33bf;" 
d="M2009 936l-199 -1131h-192l-131 736l-127 -736h-191l-200 1131h180l113 -717l112 717h213l119 -727l125 727h178zM950 -195h-168v670l-182 -670h-176l-184 668v-668h-172v1131h227l213 -815l225 815h217v-1131z" />
    <glyph glyph-name="uni3390" unicode="&#x3390;" 
d="M1901 -190h-740v172l475 761h-448v175h674v-170l-480 -764h519v-174zM1069 -190h-209v729h-463v-729h-207v1570h207v-647h463v647h209v-1570z" />
    <glyph glyph-name="uni3391" unicode="&#x3391;" 
d="M1976 -195h-471v140l267 407h-256v148h430v-144l-260 -407h290v-144zM1458 -195h-186v496h-262v-496h-183v1127h183v-471h262v471h186v-1127zM797 -195h-207l-256 471l-62 -88v-389h-184v1129h184v-449l316 449h200l-333 -496z" />
    <glyph glyph-name="uni3392" unicode="&#x3392;" 
d="M1985 -195h-437v138l236 409h-223v148h395l-2 -144l-228 -409h259v-142zM1507 -195h-176v496h-198v-496h-172v1127h172v-471h198v471h176v-1127zM881 -195h-166v680l-135 -680h-168l-148 680v-680h-164v1131h215l174 -817l179 817h213v-1131z" />
    <glyph glyph-name="uni3393" unicode="&#x3393;" 
d="M1980 -195h-448v138l242 411h-236v146h410l-2 -142l-236 -411h270v-142zM1479 -195h-181v494h-235v-494h-184v1127h178v-471h235v471h181zM821 584h-186q0 115 -67 179q-61 58 -133 35q-88 -27 -135 -161q-39 -111 -40 -277q-2 -248 96 -353q64 -68 142 -45
q71 21 108 107q27 61 27 140v45h-187v168h369v-617h-170v140q-36 -109 -134 -146q-101 -39 -209 18q-128 69 -189 239q-42 118 -43 268q-3 356 152 535q106 123 251 126q131 3 229 -91q114 -109 119 -291v-19z" />
    <glyph glyph-name="uni3394" unicode="&#x3394;" 
d="M1976 -195h-475v142l264 405h-254v148h435v-144l-260 -405h290v-146zM1452 -195h-186v496h-260v-496h-185v1129h185v-471h260v471h186v-1129zM782 764h-243v-959h-203v959h-266v170h712v-170z" />
    </font>
</defs>
</svg>
