<svg width="32" height="55" viewBox="0 0 32 55" fill="none" xmlns="http://www.w3.org/2000/svg">
<path d="M31.6935 26.4881L8.74422 0.347003C8.54824 0.12421 8.28253 -0.000554868 8.00568 2.11597e-06H1.04498C0.468868 -0.00122325 0.00101633 0.529917 -5.94165e-05 1.18616C-0.000548391 1.50252 0.109765 1.80608 0.30643 2.02954L22.5192 27.3294L0.30643 52.6292C-0.101473 53.0926 -0.102255 53.845 0.304572 54.3096C0.500749 54.5337 0.76724 54.6593 1.04498 54.6588H8.00568C8.28253 54.6593 8.54824 54.5345 8.74422 54.3118L31.6935 28.1706C32.1014 27.7072 32.1022 26.9548 31.6953 26.4902L31.6935 26.4881Z" fill="#ACF5FF" fill-opacity="0.8"/>
</svg>
