<svg width="60" height="12" viewBox="0 0 60 12" fill="none" xmlns="http://www.w3.org/2000/svg">
<g clip-path="url(#clip0_63_181)">
<path d="M54.4515 0L57.6153 6L54.4515 12H56.8362L60 6L56.8362 0H54.4515ZM34.0223 0L37.186 6L34.0223 12H36.407L39.5707 6L36.407 0H34.0223ZM40.8267 0L43.9905 6L40.8267 12H43.2114L46.3752 6L43.2114 0H40.8267ZM47.6471 0L50.8108 6L47.6471 12H50.0318L53.1955 6L50.0318 0H47.6471ZM13.6089 0L16.7727 6L13.6089 12H15.9936L19.1574 6L15.9936 0H13.6089ZM3.16375 6L0 12H2.38474L5.54849 6L2.38474 0H0L3.16375 6ZM27.2178 0L30.3816 6L27.2178 12H29.6025L32.7663 6L29.6025 0H27.2178ZM6.80445 0L9.9682 6L6.80445 12H9.18919L12.3529 6L9.18919 0H6.80445ZM20.4134 0L23.5771 6L20.4134 12H22.7981L25.9618 6L22.7981 0H20.4134Z" fill="url(#paint0_linear_63_181)"/>
</g>
<defs>
<linearGradient id="paint0_linear_63_181" x1="60" y1="6" x2="0" y2="6" gradientUnits="userSpaceOnUse">
<stop stop-color="#52FCD6"/>
<stop offset="1" stop-color="#370B6B" stop-opacity="0.1"/>
</linearGradient>
<clipPath id="clip0_63_181">
<rect width="60" height="12" fill="white"/>
</clipPath>
</defs>
</svg>
