<svg width="206" height="85" viewBox="0 0 206 85" fill="none" xmlns="http://www.w3.org/2000/svg">
<g clip-path="url(#clip0_158_1823)">
<path d="M0 10C0 4.47715 4.47715 0 10 0H196C201.523 0 206 4.47715 206 10V85H0V10Z" fill="url(#paint0_linear_158_1823)"/>
<g clip-path="url(#clip1_158_1823)">
<path d="M-7.00013 45.8814C-4.79016 39.4786 0.171265 34.423 6.41712 32.1129C6.40453 32.0811 6.39193 32.0493 6.37934 32.0175C3.76956 29.8631 2.15457 26.552 2.30254 22.8914C2.5229 17.4673 6.52731 13.1044 11.643 12.2878C11.5706 12.9169 11.5265 13.5524 11.5234 14.1848C11.4887 21.6967 17.382 27.8676 24.758 28.1726C24.928 28.179 25.0949 28.1822 25.2649 28.1853C31.4855 28.2139 36.5697 23.1298 36.5981 16.8508C36.6201 11.6967 32.4898 7.48957 27.3804 7.46097C26.7319 7.46097 26.1998 7.98846 26.1967 8.64304C26.1967 9.30081 26.7161 9.83147 27.3678 9.83782C31.1802 9.85371 34.259 12.9964 34.2401 16.8381C34.2181 21.8047 30.1948 25.8275 25.2743 25.8053C18.9623 25.7799 13.8467 20.5686 13.875 14.1943C13.875 13.5429 13.9222 12.8883 14.0104 12.2465C14.0198 12.1829 14.0167 12.1225 14.0167 12.0622C15.5152 4.92524 21.9247 -0.295567 29.3857 0.0126613C36.6831 0.314534 42.5574 5.80226 43.6656 12.8121C44.4022 12.6309 45.1704 12.5451 45.9637 12.5769C50.5536 12.7676 54.1236 16.676 53.9347 21.309C53.8812 22.6436 53.5129 23.8892 52.9179 24.9855C54.8508 26.2502 56.0943 28.4745 55.9936 30.9626C55.8425 34.709 52.7101 37.6228 48.9953 37.4703C48.4853 37.4481 47.9911 37.3654 47.5189 37.2352C47.0466 37.1112 46.5807 36.9365 46.1368 36.7172C43.3602 35.3477 42.208 31.9508 43.5648 29.1482C44.3015 27.6293 45.8567 26.6855 47.5314 26.7459C48.18 26.7681 48.7277 26.2565 48.7498 25.5988C48.7718 24.9442 48.2776 24.4008 47.6133 24.369C45.013 24.2769 42.5921 25.7418 41.4493 28.1027C40.3223 30.4255 40.4199 33.0344 41.4745 35.192C40.0862 42.1001 33.9473 47.1811 26.7665 46.9904C23.2752 46.6536 20.0075 45.5891 17.105 43.959C16.3337 43.5459 15.5246 43.1964 14.6935 42.8977C12.3607 41.8554 9.80134 41.2262 7.10026 41.115C1.7705 40.8958 -3.17517 42.7134 -7.00013 45.8783V45.8814Z" fill="white" fill-opacity="0.2"/>
</g>
<g clip-path="url(#clip2_158_1823)">
<path d="M146.811 79.4674C148.83 79.1257 150.442 77.7902 151.248 76.0391L151.274 76.051C152.508 73.3107 155.014 71.2227 158.159 70.6875C159.012 70.5418 159.856 70.5275 160.674 70.6182C160.733 70.6326 160.796 70.6421 160.86 70.6421C160.878 70.6421 160.9 70.6445 160.918 70.6445C161.795 70.764 162.637 71.0148 163.429 71.3708C164.296 71.8868 165.015 72.6561 165.478 73.6141C165.951 74.5913 166.019 75.695 165.673 76.7247C165.328 77.7544 164.609 78.5858 163.647 79.0636C162.975 79.3981 162.209 79.4698 161.49 79.2619C161.022 79.1281 160.538 79.4029 160.404 79.8783C160.272 80.3537 160.542 80.8459 161.01 80.9821C161.438 81.1063 161.877 81.166 162.315 81.166C163.039 81.166 163.76 80.9988 164.423 80.6667C165.805 79.9763 166.842 78.7817 167.338 77.3005C167.836 75.8193 167.735 74.2305 167.058 72.8257C166.294 71.2466 165.013 70.0496 163.478 69.3998C163.579 66.3418 165.619 63.7903 168.391 62.966C168.56 67.0561 170.833 70.7186 174.432 72.6203C175.757 73.3203 177.198 73.6763 178.651 73.6763C179.579 73.6763 180.512 73.5305 181.422 73.2391C183.756 72.4889 185.665 70.8619 186.795 68.652C187.651 66.9773 187.867 65.0517 187.404 63.2264C187.282 62.7486 186.805 62.4619 186.332 62.5838C185.862 62.708 185.58 63.1954 185.7 63.6732C186.055 65.0708 185.888 66.5472 185.232 67.8278C184.318 69.6124 182.776 70.9288 180.891 71.5356C179.003 72.1425 176.998 71.9633 175.242 71.0363C172.065 69.3568 170.107 66.0479 170.135 62.4046C170.135 62.3926 170.132 62.3831 170.132 62.3711C170.295 54.9578 176.256 48.9947 183.589 48.9947C190.923 48.9947 197.053 55.1227 197.053 62.6793C197.053 63.6374 196.957 64.5715 196.771 65.4746C198.252 64.3015 200.113 63.6039 202.137 63.6039C206.965 63.6039 210.879 67.5817 210.879 72.4889C210.879 74.3571 212.369 75.7595 214.209 75.7595C215.185 75.7595 216.022 75.3343 216.673 74.6725H216.694C217.599 73.908 218.783 73.4756 220.05 73.4756C221.146 73.4756 222.164 73.8196 223.003 74.4073L222.925 74.4408C221.103 75.3701 220.05 77.2384 220.048 79.1783C220.048 84.2073 216.038 88.2831 211.09 88.2831C208.366 88.2831 205.926 87.0479 204.283 85.0984L204.26 85.1319C203.366 86.152 202.137 86.8807 200.708 87.122C198.668 87.4684 196.696 86.7397 195.354 85.3469C195.344 85.3373 195.337 85.323 195.328 85.3135C195.245 85.2322 195.168 85.1486 195.093 85.0626C194.759 84.6684 194.47 84.2288 194.239 83.7534C194.237 83.7462 194.232 83.7391 194.23 83.7319C194.19 83.6459 194.155 83.5575 194.117 83.4715C193.682 82.3606 193.624 81.1158 193.988 79.9261C194.308 78.8868 195.003 78.0387 195.953 77.5322C196.9 77.0281 197.986 76.9278 199.006 77.2527C199.721 77.4797 200.325 77.9647 200.708 78.6169C200.957 79.0421 201.495 79.1807 201.914 78.9275C202.332 78.6742 202.469 78.1271 202.219 77.7019C201.615 76.6698 200.661 75.9029 199.53 75.5445C198.061 75.0786 196.498 75.222 195.135 75.9483C193.772 76.6746 192.768 77.8978 192.31 79.3909C191.727 81.2855 191.952 83.2875 192.874 84.9599C190.732 87.9534 187.484 90.1298 183.61 90.7892C176.954 91.9193 170.603 88.2114 168.036 82.1885C167.079 85.3708 164.423 87.8961 160.975 88.4838C157.48 89.0763 154.121 87.5162 152.21 84.7568C148.08 85.378 144.183 82.8001 143.003 78.8247C144.129 79.4387 145.454 79.692 146.813 79.4626L146.811 79.4674Z" fill="white" fill-opacity="0.2"/>
</g>
</g>
<defs>
<linearGradient id="paint0_linear_158_1823" x1="103" y1="0" x2="103" y2="85" gradientUnits="userSpaceOnUse">
<stop stop-color="#FF8686"/>
<stop offset="1" stop-color="#E61434"/>
</linearGradient>
<clipPath id="clip0_158_1823">
<rect width="206" height="85" fill="white"/>
</clipPath>
<clipPath id="clip1_158_1823">
<rect width="63" height="47" fill="white" transform="matrix(-1 0 0 1 56 0)"/>
</clipPath>
<clipPath id="clip2_158_1823">
<rect width="80" height="42" fill="white" transform="matrix(-1 0 0 1 223 49)"/>
</clipPath>
</defs>
</svg>
