<svg width="12" height="14" viewBox="0 0 12 14" fill="#FFF" xmlns="http://www.w3.org/2000/svg">
<path d="M11.5347 6.5199C11.9843 6.95657 11.9843 7.66227 11.5347 8.09942L6.81842 12.6921C6.3689 13.1288 5.64244 13.1288 5.19244 12.6921L0.464633 8.09942C0.0151143 7.66274 0.0151144 6.95704 0.464634 6.5199C0.914154 6.08322 1.64061 6.08322 2.09061 6.5199L5.19244 9.52195C5.64196 9.95863 6.36842 9.95863 6.81842 9.52195L9.90877 6.5199C10.3583 6.09389 11.0967 6.09389 11.5347 6.5199Z" fill="#FFF"/>
<path d="M11.5347 0.918945C11.9843 1.35562 11.9843 2.06132 11.5347 2.49846L6.81842 7.09119C6.3689 7.52787 5.64244 7.52787 5.19244 7.09119L0.464633 2.49846C0.0151143 2.06179 0.0151144 1.35609 0.464634 0.918944C0.914154 0.482268 1.64061 0.482268 2.09061 0.918944L5.19244 3.921C5.64196 4.35768 6.36842 4.35768 6.81842 3.921L9.90877 0.918945C10.3583 0.493379 11.0967 0.49338 11.5347 0.918945Z" fill="#FFF"/>
</svg>
