<svg width="20" height="20" viewBox="0 0 20 20" fill="none" xmlns="http://www.w3.org/2000/svg">
<path fill-rule="evenodd" clip-rule="evenodd" d="M0 10C0 15.5 4.5 20 10 20C15.5 20 20 15.5 20 10C20 4.5 15.5 0 10 0C4.5 0 0 4.5 0 10ZM2 10C2 5.6 5.6 2 10 2C14.4 2 18 5.6 18 10C18 14.4 14.4 18 10 18C5.6 18 2 14.4 2 10ZM9.61233 15.9952C9.73477 16.0446 9.86591 16.0688 9.99791 16.0663C10.5643 16.0663 10.9979 15.6336 10.9979 15.0663V9.3336C10.9979 8.76633 10.5643 8.3336 9.99791 8.3336C9.43155 8.3336 8.99791 8.76633 8.99791 9.3336V15.0663C8.99544 15.1983 9.01962 15.3295 9.069 15.4519C9.11838 15.5744 9.19195 15.6856 9.28531 15.7789C9.37866 15.8723 9.48989 15.9459 9.61233 15.9952ZM9.61233 6.79524C9.73477 6.84462 9.86591 6.8688 9.99791 6.86633C10.5211 6.86633 10.9797 6.45032 10.9974 5.89937C10.9977 5.91072 10.9979 5.92213 10.9979 5.9336V5.86633C10.9979 5.87739 10.9977 5.88841 10.9974 5.89937C10.9803 5.34901 10.5528 4.9336 9.99791 4.9336C9.43874 4.9336 9.00896 5.3554 8.99812 5.91204C8.99804 5.90904 8.99797 5.90604 8.99791 5.90304V5.86633C8.99768 5.87858 8.99768 5.89082 8.99791 5.90304V5.9336C8.99791 5.92639 8.99798 5.91921 8.99812 5.91204C9.00137 6.02852 9.02533 6.14362 9.069 6.25191C9.11838 6.37436 9.19195 6.48558 9.28531 6.57893C9.37866 6.67229 9.48989 6.74586 9.61233 6.79524Z" fill="white" fill-opacity="0.8"/>
</svg>
