<svg width="47" height="43" viewBox="0 0 47 43" fill="none" xmlns="http://www.w3.org/2000/svg">
<g clip-path="url(#clip0_721_9)">
<path d="M4.91666 27.6746C4.77478 25.5692 4.88224 23.4447 5.24537 21.369C6.76322 24.1119 9.49102 26.1422 12.5316 26.789C12.8402 26.2628 13.1526 25.7303 13.4613 25.204C11.252 24.1742 9.15691 22.6664 8.00002 20.5027C5.83989 16.453 8.51059 12.8622 11.4529 10.2153C12.3291 12.2935 13.8647 14.0848 15.7774 15.2633C14.9492 13.8689 14.3142 12.3569 13.8986 10.7905C13.7008 10.0583 13.5566 9.26459 13.8389 8.56832C14.0652 8.00903 14.5386 7.59174 15.0132 7.2223C16.9754 5.70196 19.311 4.68291 21.7494 4.2698C22.2475 6.01913 23.2454 7.62823 24.5946 8.83968C24.314 7.58219 24.3773 6.17503 25.1056 5.12178C27.4411 1.75871 37.2487 5.05383 40.2822 6.09838C36.8022 4.89718 38.1254 13.3559 38.1755 14.7937C35.8724 14.6648 33.6282 13.5794 32.0802 11.8447C31.5706 12.1372 31.4679 12.8745 31.7078 13.4142C31.9478 13.954 32.4395 14.3349 32.9273 14.6579C34.4621 15.6788 36.1785 16.4083 37.9669 16.8096C38.3467 18.6793 38.2167 20.6489 37.5939 22.4465C37.492 22.7395 37.3663 23.0436 37.1159 23.2289C36.7222 23.5194 36.1722 23.4152 35.6983 23.276C33.2524 22.5511 30.9594 21.3119 29.0038 19.6624C28.1935 19.853 27.8368 20.9103 28.1132 21.7032C28.3896 22.4962 29.0947 23.0542 29.8058 23.4876C31.8308 24.7131 34.2217 25.3019 36.5694 25.1628C36.3597 27.3021 35.6013 29.3849 34.3875 31.1475C33.9169 31.8317 33.283 32.519 32.4551 32.5748C32.0225 32.602 31.5971 32.4454 31.1867 32.2851C28.1843 31.0884 25.3347 29.5058 22.7255 27.5906C21.7986 28.3346 21.8776 29.867 22.5706 30.8454C23.2637 31.8238 24.3902 32.3735 25.4655 32.8877C26.7629 33.5072 28.0553 34.1281 29.3527 34.7476C29.2663 35.5933 28.454 36.1376 27.7025 36.5223C22.3751 39.2853 16.1493 40.2647 10.2194 39.2815C9.63955 39.1847 9.04342 39.0652 8.54931 38.7384C7.87803 38.2951 7.48322 37.5369 7.15076 36.7954C5.86594 33.925 5.10579 30.8226 4.89797 27.6846L4.91666 27.6746Z" fill="#4200FF"/>
</g>
<defs>
<clipPath id="clip0_721_9">
<rect width="39.9456" height="33.5258" fill="white" transform="matrix(-0.9705 0.2411 0.2411 0.9705 38.7672 0)"/>
</clipPath>
</defs>
</svg>
