<svg width="46" height="15" viewBox="0 0 46 15" fill="none" xmlns="http://www.w3.org/2000/svg">
<path fill-rule="evenodd" clip-rule="evenodd" d="M43.9733 0.674999C43.6664 0.895234 42.8409 2.48868 42.5313 2.98991C42.3002 3.36408 42.3296 3.42956 42.0297 3.76741C41.9784 3.16421 41.2927 1.62647 40.1671 1.62647C39.8957 2.02329 39.7789 2.08421 39.5633 2.62128C38.9647 4.11226 39.3835 5.15902 40.1671 6.30483C39.9072 6.47522 38.5711 7.81683 37.8995 7.97011C38.5748 6.59202 38.7917 5.27338 38.5137 3.72115C38.3996 3.0839 38.347 2.87165 37.8995 2.57811C37.3454 2.59016 36.377 3.21633 36.001 3.49456C35.4147 3.92802 34.9868 4.35481 34.5543 4.9326C34.134 5.4941 33.8562 6.09633 33.6173 6.79042C33.3228 7.6453 33.2836 8.19165 33.2836 9.31824C31.6291 9.31824 30.1533 9.00108 29.6394 9.00108C29.9012 8.65118 32.4138 7.7015 33.0129 4.60616C33.2177 3.54864 32.336 3.60793 31.421 3.60891C28.8042 3.61168 26.6696 4.80587 25.4106 6.76355C25.2214 7.05773 25.1023 7.35714 24.9424 7.65312L21.8108 6.35826C21.6524 6.26508 21.7231 6.31167 21.6221 6.22583C23.0241 6.22583 24.7134 4.96778 25.455 3.79396C25.9381 3.02949 26.0922 2.55791 26.2647 1.49192C26.4234 0.512266 25.9722 0.360936 24.5395 0.118384C23.6129 -0.0386472 22.638 -0.0402762 21.7012 0.118384C20.5197 0.318583 19.221 0.831215 18.302 1.46846C17.5747 1.97279 16.1478 3.21307 15.9533 3.92639C14.7971 3.38314 12.8925 3.25868 11.5924 3.12169C10.0855 2.9627 8.12604 3.21112 6.8655 3.51231C5.70428 3.78972 4.60013 4.19875 3.54089 4.69738L2.29283 5.37844C1.78941 5.67182 0.23208 6.67949 2.15611e-06 7.01896C0.0608913 7.24229 0.311268 7.53876 0.48595 7.65328C0.732834 7.58877 1.36901 7.10139 1.60708 6.92725C1.80771 6.78049 1.92533 6.72494 2.15225 6.58892C2.39498 6.44345 2.5126 6.3524 2.75316 6.22583C3.58597 5.78747 4.34094 5.38757 5.27523 5.04793C6.49302 4.60534 7.65523 4.39032 9.02108 4.19598C9.35814 4.14809 9.62581 4.18605 9.95621 4.16015C10.2671 4.13571 10.362 4.07479 10.7709 4.07919C11.2109 4.08391 11.255 4.16438 11.6613 4.16438C11.6613 4.48284 11.604 4.70275 11.6039 4.87803C11.6034 6.91553 12.4152 8.5813 13.6736 10.1233C14.3048 10.8967 15.6869 11.7543 16.7159 12.1399C17.2044 12.323 20.6288 13.2492 20.7356 12.1775C20.7883 11.6489 20.6948 11.0412 20.6443 10.5929C20.5466 9.72743 20.2222 8.76895 19.8948 8.07551C19.397 7.02092 19.0769 6.84613 18.5444 6.06733L21.5669 7.38972C21.8136 7.51124 22.3508 7.75639 22.5935 7.81178C22.5935 9.13579 22.5568 9.7908 22.9512 10.792C23.5628 12.3443 24.6242 13.6079 26.1818 14.3686C26.6878 14.6158 27.5507 14.9078 28.1483 14.9891C28.4842 15.0347 28.5327 14.931 28.7482 14.7896C28.7482 14.2295 28.8076 13.8718 28.8521 13.3048C29.0082 11.3223 27.7876 9.97389 27.6954 9.63556C28.0012 9.64223 28.2155 9.72613 28.4441 9.77467L30.9347 10.1905C31.0229 11.2293 32.1423 12.5501 32.8564 13.2251C34.773 15.0375 38.2782 15.0484 38.5646 14.648C38.9672 14.0852 38.445 11.8979 37.5164 10.9619C37.1492 10.5919 36.5884 9.9993 36.0366 9.87338C36.1801 9.68166 36.8443 9.4536 37.0893 9.39773C37.5182 9.67889 38.1091 10.5417 39.6187 10.8858C41.2015 11.2464 42.4947 10.9858 43.7381 10.278C43.9582 10.1526 44.206 10.04 44.1072 9.67205C44.0551 9.47771 43.3508 8.65835 43.1852 8.5036C42.5191 7.88101 41.5264 7.33596 40.2476 7.33596C40.4778 6.99926 40.9184 6.62704 41.1385 6.30516C42.2927 6.84744 44.2343 6.49558 45.209 5.53336C45.901 4.85017 46.442 4.51494 45.4804 3.95686C44.2821 3.26129 43.3716 3.63856 42.758 3.68857C43.0014 3.23816 43.9294 1.18665 43.9728 0.675488" fill="#dfea09"/>
</svg>
