<?xml version="1.0" encoding="UTF-8"?>
<svg xmlns="http://www.w3.org/2000/svg" xmlns:xlink="http://www.w3.org/1999/xlink" version="1.1" viewBox="0 0 202.7 36.6">
  <defs>
    <style>
      .cls-1 {
        fill: none;
      }

      .cls-2 {
        fill: url(#_未命名漸層);
      }

      .cls-3 {
        fill: #fff;
      }

      .cls-4 {
        fill: #ef4136;
      }

      .cls-5 {
        clip-path: url(#clippath);
      }
    </style>
    <clipPath id="clippath">
      <path class="cls-1" d="M20.8,13.5c-.8.1-1.5.8-1.5,1.6,0,.8.7,1.4,1.5,1.5h2.9c.8-.1,1.5-.8,1.5-1.6,0-.8-.7-1.4-1.5-1.5h-2.9ZM27.5.7c-.7,0-1.3.7-1.4,1.5-.1.7.4,1.4,1.1,1.5.4.1.8.2,1.2.2h2.6c.6,0,1.2.4,1.4,1,0,.3.1.5,0,.8,0,.9-.9,1.6-1.8,1.5,0,0,0,0,0,0h-13.9c-.8,0-1.3.8-1.3,1.6v.5c0,.7.8,1.3,1.5,1.2,0,0,0,0,0,0h17.3c.6,0,1.3.2,1.6.7.3.5.4,1.2,0,1.7-.3.6-.9.9-1.5.9h-3.2c-1.3,0-2.5,0-3.6,0h-.5c-.7.1-1.2.8-1.1,1.6,0,0,0,0,0,0,0,.8.5,1.3,1.5,1.4h2.1c1.2,0,1.9.6,1.9,1.6v.3c0,.9-.9,1.6-1.8,1.5,0,0,0,0,0,0H1.7c-.5,0-1.1.2-1.4.6-.2.2-.3.5-.3.8H0c0,.3,0,.5.2.7.3.5.9.9,1.5.8h30.9c.9.1,1.6.9,1.5,1.8s-.9,1.6-1.8,1.5h-16c-1.2,0-1.7.5-1.7,1.6s.5,1.5,1.7,1.5h11.1c.9,0,1.6.8,1.5,1.7,0,.9-.8,1.6-1.7,1.5h-4.7c-.6,0-1.1.3-1.4.7-.3.5-.3,1.1,0,1.6.2.5.8.8,1.4.7h17.6l2.8-13.4v-.2l.3-1.1h8.4l1.5-6.7h-8.4l1.5-6.7h0c0,0,9.3,0,9.3,0l1.5-7h-12.9c-1.3,0-7.5,0-11.9,0s-3.9,0-4.4,0Z"/>
    </clipPath>
    <linearGradient id="_未命名漸層" data-name="未命名漸層" x1="-46.2" y1="164.8" x2="-47.2" y2="164.8" gradientTransform="translate(2678.6 5823.1) scale(56.8 -35.2)" gradientUnits="userSpaceOnUse">
      <stop offset="0" stop-color="#ef4136"/>
      <stop offset=".4" stop-color="#f15238"/>
      <stop offset=".7" stop-color="#f36739"/>
      <stop offset="1" stop-color="#fbb040"/>
    </linearGradient>
  </defs>
  <!-- Generator: Adobe Illustrator 28.6.0, SVG Export Plug-In . SVG Version: 1.2.0 Build 709)  -->
  <g>
    <g id="_圖層_1" data-name="圖層_1">
      <g id="logo_fs">
        <g id="Group_172">
          <path id="Path_129" class="cls-4" d="M65.7,8.6c-.6,4.7-2.7,19.6-3.6,27.2h9.2L73.6.7h-13l-12.2,35h9.4l8-27.2Z"/>
          <path id="Path_130" class="cls-4" d="M97.5,11.3h-8.5l.5-2.6c.2-.8.3-1.6.2-2.4-.2-.4-.6-.6-1-.5-.5,0-1,.2-1.4.6-.4.6-.7,1.3-.8,2-.3.9-.3,1.8,0,2.6.5.9,1.2,1.6,2.1,2.2,3.6,2.4,5.7,4.4,6.4,5.9s.7,4,0,7.5c-.3,2-1.1,3.9-2.1,5.6-1,1.4-2.4,2.4-4,2.9-1.9.8-4,1.3-6.1,1.3-2.1.1-4.1-.4-5.9-1.4-1.4-.7-2.4-2-2.6-3.6-.2-2,0-4.1.5-6l.5-2.3h8.5l-.9,4.3c-.3.8-.3,1.7-.2,2.6.2.4.7.6,1.1.5.6,0,1.2-.3,1.6-.7.4-.6.7-1.3.9-2.1.5-2.1.5-3.4,0-4-1.1-1.2-2.3-2.3-3.6-3.2-1.4-1-2.6-2.1-3.8-3.3-.6-.8-1.1-1.8-1.3-2.8-.2-1.5,0-3.1.3-4.6.3-2.1,1.1-4.1,2.3-5.9,1-1.3,2.4-2.3,3.9-2.9,1.8-.7,3.8-1.1,5.7-1.1,2-.1,4,.3,5.8,1.2,1.3.5,2.3,1.6,2.7,2.9.3,2,.1,4-.5,5.9l-.3,1.2Z"/>
          <path id="Path_131" class="cls-4" d="M121.6.7l-1.5,7h-5.4l-6,28h-9.1l6-28h-5.5l1.6-7h19.9"/>
          <path id="Path_132" class="cls-3" d="M141.5,11.3h-8.5l.5-2.6c.2-.8.3-1.6.2-2.4-.2-.4-.6-.6-1-.5-.5,0-1,.2-1.4.6-.4.6-.7,1.3-.8,2-.3.9-.3,1.8,0,2.6.5.9,1.2,1.6,2.1,2.2,3.6,2.4,5.7,4.4,6.4,5.9s.7,4,0,7.5c-.3,2-1.1,3.9-2.1,5.6-1,1.3-2.4,2.4-4,2.9-1.9.8-4,1.3-6.1,1.3-2.1.1-4.1-.4-5.9-1.4-1.4-.7-2.4-2-2.6-3.6-.2-2.1,0-4.1.5-6.1l.5-2.3h8.5l-.9,4.3c-.3.8-.3,1.7-.2,2.6.2.4.7.6,1.1.5.6,0,1.1-.3,1.5-.7.5-.6.8-1.3.9-2.1.5-2.1.5-3.4,0-4-1.1-1.2-2.3-2.3-3.6-3.2-1.4-1-2.6-2.1-3.8-3.3-.7-.8-1.1-1.8-1.2-2.8-.2-1.5,0-3.1.3-4.6.3-2.1,1.1-4.1,2.3-5.9,1-1.3,2.4-2.3,3.9-2.9,1.8-.7,3.8-1.1,5.7-1.1,2-.1,4,.3,5.8,1.2,1.3.5,2.3,1.6,2.6,2.9.3,2,.1,4-.5,5.9l-.2,1.3Z"/>
          <path id="Path_133" class="cls-3" d="M147.3.7h9.2c1.9,0,3.7,0,5.6.5,1.1.3,2,.9,2.6,1.7.5.8.8,1.7.8,2.6,0,1.6-.3,3.3-.7,4.8l-.6,3c-.3,1.7-.9,3.4-1.7,4.9-.7,1.1-1.8,1.9-3,2.4-1.6.6-3.3.9-5,.8h-2.5l-3,14.1h-9.1L147.3.7ZM155.2,6.8l-1.9,8.9h.6c.7,0,1.4-.2,1.9-.6.6-.7.9-1.6,1-2.6l.6-2.8c.3-1.2.3-2,0-2.4-.3-.4-1-.5-2.2-.5"/>
          <path id="Path_134" class="cls-3" d="M178.7.7l-7.5,35h-9.1L169.6.7h9.1Z"/>
          <path id="Path_135" class="cls-3" d="M202.7.7l-7.5,35h-8l-1.3-16-3.5,16h-7.7L182.3.7h7.6l1.7,15.8,3.4-15.8h7.7Z"/>
        </g>
        <g class="cls-5">
          <g id="Group_170">
            <rect id="Rectangle_65" class="cls-2" y=".6" width="56.8" height="35.2"/>
          </g>
        </g>
      </g>
    </g>
  </g>
</svg>