<?xml version="1.0" encoding="UTF-8"?>
<svg id="_圖層_1" data-name="圖層 1" xmlns="http://www.w3.org/2000/svg" version="1.1" viewBox="0 0 90 60">
  <defs>
    <style>
      .cls-1 {
        fill: #fbd023;
      }

      .cls-1, .cls-2, .cls-3, .cls-4 {
        stroke-width: 0px;
      }

      .cls-2 {
        fill: #cd1225;
      }

      .cls-3 {
        fill: #0738a6;
      }

      .cls-4 {
        fill: #fff;
      }
    </style>
  </defs>
  <rect class="cls-2" y=".02" width="90" height="60"/>
  <rect class="cls-3" y=".02" width="90" height="30"/>
  <polygon class="cls-4" points="0 .02 35.41 30.02 0 60.02 0 .02"/>
  <g>
    <path class="cls-1" d="M21.33,30.52l.48-.5-.48-.51-3.81.26c0-.09-.01-.17-.03-.26l3.43-.43-.43-.45-3.04.66c-.09-.51-.3-.98-.58-1.4l2.61-1.68-.02-.62-2.73,2.11c-.05-.06-.11-.13-.16-.19l2.87-2.51-.02-.7-.69-.02-2.51,2.87c-.06-.06-.13-.11-.19-.16l2.11-2.73-.62-.02-1.68,2.61c-.41-.28-.89-.48-1.4-.57l.66-3.04-.45-.43-.43,3.43c-.09-.01-.17-.02-.26-.03l.25-3.81-.5-.48-.5.48.25,3.81c-.08,0-.17.01-.25.03l-.43-3.43-.45.43.66,3.04c-.51.09-.98.3-1.4.57l-1.68-2.61-.62.02,2.11,2.73c-.07.05-.13.1-.2.16l-2.51-2.87-.69.02-.02.7,2.87,2.51c-.06.06-.11.13-.16.19l-2.73-2.11v.62s2.59,1.68,2.59,1.68c-.28.41-.48.89-.58,1.4l-3.03-.66-.43.45,3.42.43c-.01.09-.02.17-.03.26l-3.81-.26-.48.51.48.5,3.81-.25c0,.08.01.17.03.25l-3.42.43.43.45,3.03-.66c.1.51.3.98.58,1.4l-2.61,1.68v.62s2.74-2.11,2.74-2.11c.05.07.11.13.16.19l-2.87,2.51.02.7.69.02,2.51-2.87c.07.06.13.11.2.16l-2.11,2.73h.62s1.68-2.6,1.68-2.6c.41.28.89.48,1.4.58l-.66,3.03.45.43.43-3.42c.08,0,.17.02.25.03l-.25,3.81.5.48.5-.48-.25-3.81c.09,0,.17-.02.26-.03l.43,3.42.45-.43-.66-3.03c.51-.1.98-.3,1.4-.58l1.68,2.61h.62s-2.11-2.74-2.11-2.74c.06-.05.13-.11.19-.16l2.51,2.87.69-.02.02-.7-2.87-2.51c.06-.06.11-.13.16-.19l2.73,2.11.02-.62-2.61-1.68c.28-.41.48-.89.58-1.4l3.04.66.43-.45-3.43-.43c.01-.08.02-.17.03-.25l3.81.25Z"/>
    <g>
      <polygon class="cls-1" points="29.6 28.02 29.6 29.55 31.05 30.02 29.6 30.49 29.6 32.02 28.7 30.78 27.25 31.25 28.15 30.02 27.25 28.78 28.7 29.25 29.6 28.02"/>
      <g>
        <polygon class="cls-1" points="6.75 43.11 5.61 44.12 6.22 45.52 4.9 44.75 3.76 45.76 4.09 44.27 2.77 43.5 4.29 43.35 4.61 41.86 5.22 43.26 6.75 43.11"/>
        <polygon class="cls-1" points="3.77 14.27 4.9 15.3 6.22 14.52 5.61 15.93 6.75 16.94 5.22 16.79 4.61 18.19 4.29 16.69 2.77 16.53 4.09 15.77 3.77 14.27"/>
      </g>
    </g>
  </g>
</svg>