<?xml version="1.0" encoding="UTF-8"?>
<svg version="1.1" xmlns="http://www.w3.org/2000/svg" width="383" height="256">
<path d="M0 0 C126.39 0 252.78 0 383 0 C383 84.48 383 168.96 383 256 C256.61 256 130.22 256 0 256 C0 171.52 0 87.04 0 0 Z " fill="#FEFEFE" transform="translate(0,0)"/>
<path d="M0 0 C126.39 0 252.78 0 383 0 C383 28.38 383 56.76 383 86 C256.61 86 130.22 86 0 86 C0 57.62 0 29.24 0 0 Z " fill="#056B39" transform="translate(0,170)"/>
<path d="M0 0 C126.39 0 252.78 0 383 0 C383 28.05 383 56.1 383 85 C256.61 85 130.22 85 0 85 C0 56.95 0 28.9 0 0 Z " fill="#FF6820" transform="translate(0,0)"/>
<path d="M0 0 C7.65232892 6.07761498 13.27117709 15.62574576 14.609375 25.38671875 C15.58566483 36.41399245 13.56123974 46.83547485 6.3671875 55.51171875 C-3.19714504 65.71367346 -11.64911538 70.16365251 -25.703125 70.63671875 C-37.17774776 70.47974717 -45.80163248 65.77329074 -54.140625 58.13671875 C-61.35385187 50.5385633 -64.31831816 40.7267682 -64.703125 30.44921875 C-64.40430219 19.07637421 -59.39223966 8.88244436 -51.203125 1.07421875 C-35.44159708 -12.12272157 -16.4474701 -11.09935482 0 0 Z " fill="#ECEBF6" transform="translate(216.390625,96.61328125)"/>
<path d="M0 0 C7.65232892 6.07761498 13.27117709 15.62574576 14.609375 25.38671875 C15.58566483 36.41399245 13.56123974 46.83547485 6.3671875 55.51171875 C-3.19714504 65.71367346 -11.64911538 70.16365251 -25.703125 70.63671875 C-37.17774776 70.47974717 -45.80163248 65.77329074 -54.140625 58.13671875 C-61.35385187 50.5385633 -64.31831816 40.7267682 -64.703125 30.44921875 C-64.40430219 19.07637421 -59.39223966 8.88244436 -51.203125 1.07421875 C-35.44159708 -12.12272157 -16.4474701 -11.09935482 0 0 Z M-38.390625 0.38671875 C-40.37418983 1.10080209 -42.37377937 1.77289617 -44.390625 2.38671875 C-44.390625 3.37671875 -44.390625 4.36671875 -44.390625 5.38671875 C-45.009375 5.51046875 -45.628125 5.63421875 -46.265625 5.76171875 C-48.58183332 6.25869231 -48.58183332 6.25869231 -50.390625 8.38671875 C-50.390625 9.37671875 -50.390625 10.36671875 -50.390625 11.38671875 C-51.380625 11.38671875 -52.370625 11.38671875 -53.390625 11.38671875 C-55.5425687 14.6146343 -55.59148943 15.67072684 -55.390625 19.38671875 C-56.050625 19.38671875 -56.710625 19.38671875 -57.390625 19.38671875 C-58.52418462 26.7548563 -59.77928934 35.22072572 -57.390625 42.38671875 C-56.730625 42.38671875 -56.070625 42.38671875 -55.390625 42.38671875 C-55.060625 44.69671875 -54.730625 47.00671875 -54.390625 49.38671875 C-53.070625 49.71671875 -51.750625 50.04671875 -50.390625 50.38671875 C-50.060625 52.03671875 -49.730625 53.68671875 -49.390625 55.38671875 C-47.740625 55.71671875 -46.090625 56.04671875 -44.390625 56.38671875 C-44.060625 57.70671875 -43.730625 59.02671875 -43.390625 60.38671875 C-39.925625 60.88171875 -39.925625 60.88171875 -36.390625 61.38671875 C-36.390625 62.04671875 -36.390625 62.70671875 -36.390625 63.38671875 C-27.82654991 65.26382949 -27.82654991 65.26382949 -19.390625 64.38671875 C-17.39389016 64.03435378 -15.39411761 63.69837316 -13.390625 63.38671875 C-13.390625 62.72671875 -13.390625 62.06671875 -13.390625 61.38671875 C-11.080625 61.05671875 -8.770625 60.72671875 -6.390625 60.38671875 C-6.060625 59.06671875 -5.730625 57.74671875 -5.390625 56.38671875 C-2.915625 55.89171875 -2.915625 55.89171875 -0.390625 55.38671875 C-0.060625 53.73671875 0.269375 52.08671875 0.609375 50.38671875 C1.599375 50.38671875 2.589375 50.38671875 3.609375 50.38671875 C5.7613187 47.1588032 5.81023943 46.10271066 5.609375 42.38671875 C6.269375 42.38671875 6.929375 42.38671875 7.609375 42.38671875 C8.62477612 38.2844829 8.62477612 38.2844829 7.609375 34.38671875 C8.269375 34.38671875 8.929375 34.38671875 9.609375 34.38671875 C9.609375 32.07671875 9.609375 29.76671875 9.609375 27.38671875 C8.949375 27.38671875 8.289375 27.38671875 7.609375 27.38671875 C7.795 26.62359375 7.980625 25.86046875 8.171875 25.07421875 C8.83756673 22.297045 8.83756673 22.297045 7.609375 19.38671875 C6.949375 19.38671875 6.289375 19.38671875 5.609375 19.38671875 C5.465 18.43796875 5.320625 17.48921875 5.171875 16.51171875 C4.78002101 13.49326935 4.78002101 13.49326935 3.609375 11.38671875 C2.619375 11.38671875 1.629375 11.38671875 0.609375 11.38671875 C0.485625 10.76796875 0.361875 10.14921875 0.234375 9.51171875 C-0.26259856 7.19551043 -0.26259856 7.19551043 -2.390625 5.38671875 C-3.380625 5.38671875 -4.370625 5.38671875 -5.390625 5.38671875 C-5.390625 4.39671875 -5.390625 3.40671875 -5.390625 2.38671875 C-6.2775 2.11859375 -7.164375 1.85046875 -8.078125 1.57421875 C-11.390625 0.38671875 -11.390625 0.38671875 -13.55859375 -1.171875 C-17.44913001 -3.1520238 -20.71983999 -2.98057231 -25.015625 -2.86328125 C-25.77875 -2.858125 -26.541875 -2.85296875 -27.328125 -2.84765625 C-33.46358041 -2.85841491 -33.46358041 -2.85841491 -38.390625 0.38671875 Z " fill="#130F92" transform="translate(216.390625,96.61328125)"/>
<path d="M0 0 C0.33 0 0.66 0 1 0 C1.495 9.405 1.495 9.405 2 19 C2.680625 16.1846875 2.680625 16.1846875 3.375 13.3125 C4.3236812 9.3884096 5.41471446 5.7150822 7 2 C8.03159626 5.09478879 7.97482862 6.52631393 7.5625 9.6875 C7.40974609 10.89986328 7.40974609 10.89986328 7.25390625 12.13671875 C7.17011719 12.75160156 7.08632812 13.36648437 7 14 C8.65 11.69 10.3 9.38 12 7 C12.495 7.99 12.495 7.99 13 9 C11.88378061 12.10746504 10.4097791 15.00955949 9 18 C12.96 14.37 16.92 10.74 21 7 C21 10 21 10 18.375 12.91796875 C17.25750594 14.01550756 16.13214357 15.10507895 15 16.1875 C14.14148438 17.02571289 14.14148438 17.02571289 13.265625 17.88085938 C11.85037212 19.26073093 10.42602845 20.63126734 9 22 C9.91523438 21.48308594 10.83046875 20.96617188 11.7734375 20.43359375 C12.9737254 19.76780906 14.17425906 19.10246729 15.375 18.4375 C15.97828125 18.09525391 16.5815625 17.75300781 17.203125 17.40039062 C18.76978241 16.53872905 20.38290862 15.76281817 22 15 C22.66 15.33 23.32 15.66 24 16 C22.37615858 17.14747465 20.75088944 18.2929291 19.125 19.4375 C18.22007812 20.07558594 17.31515625 20.71367188 16.3828125 21.37109375 C14 23 14 23 12 24 C12.80824219 23.7834375 13.61648437 23.566875 14.44921875 23.34375 C15.51785156 23.0653125 16.58648437 22.786875 17.6875 22.5 C18.74324219 22.2215625 19.79898438 21.943125 20.88671875 21.65625 C23.71142672 21.0608285 26.12836708 20.87213508 29 21 C25.57218622 23.28520918 22.24302501 24.13367475 18.3125 25.125 C15.899375 25.74375 13.48625 26.3625 11 27 C17.27 27.33 23.54 27.66 30 28 C30 28.33 30 28.66 30 29 C25.05 29.66 20.1 30.32 15 31 C20.28 32.65 25.56 34.3 31 36 C24.68044789 37.57988803 19.30263446 35.45894316 13 34 C17.62 36.97 22.24 39.94 27 43 C26.01 43.495 26.01 43.495 25 44 C22.55667274 42.92481882 20.23245477 41.80191434 17.875 40.5625 C17.21628906 40.22412109 16.55757812 39.88574219 15.87890625 39.53710938 C14.24893453 38.69850074 12.62398091 37.85015189 11 37 C13.64 39.97 16.28 42.94 19 46 C16 46 16 46 13.73828125 44.03125 C12.93777344 43.1959375 12.13726562 42.360625 11.3125 41.5 C10.10013672 40.24703125 10.10013672 40.24703125 8.86328125 38.96875 C8.24839844 38.3190625 7.63351563 37.669375 7 37 C7.51691406 37.91523438 8.03382813 38.83046875 8.56640625 39.7734375 C9.23219094 40.9737254 9.89753271 42.17425906 10.5625 43.375 C10.90474609 43.97828125 11.24699219 44.5815625 11.59960938 45.203125 C12.46127095 46.76978241 13.23718183 48.38290862 14 50 C13.505 50.99 13.505 50.99 13 52 C10.69 48.37 8.38 44.74 6 41 C6 43.40222283 6.25488817 45.7351597 6.5 48.125 C6.5928125 49.03507812 6.685625 49.94515625 6.78125 50.8828125 C6.8534375 51.58148438 6.925625 52.28015625 7 53 C5.00902154 50.01353231 4.05875074 47.40312738 3 44 C2.34 47.96 1.68 51.92 1 56 C-1.49505962 53.50494038 -1.35948376 52.32671112 -1.625 48.875 C-1.69976562 47.96492188 -1.77453125 47.05484375 -1.8515625 46.1171875 C-1.92503906 45.06917969 -1.92503906 45.06917969 -2 44 C-2.99 46.97 -3.98 49.94 -5 53 C-5.33 53 -5.66 53 -6 53 C-6 49.7 -6 46.4 -6 43 C-8.97 47.455 -8.97 47.455 -12 52 C-12.33 51.34 -12.66 50.68 -13 50 C-12.00390625 47.6171875 -12.00390625 47.6171875 -10.5625 44.875 C-10.08941406 43.96492188 -9.61632812 43.05484375 -9.12890625 42.1171875 C-8.75636719 41.41851562 -8.38382813 40.71984375 -8 40 C-14.17252553 45.31429814 -14.17252553 45.31429814 -20 51 C-20.66 50.67 -21.32 50.34 -22 50 C-18.04 45.71 -14.08 41.42 -10 37 C-14.52187996 39.34004378 -14.52187996 39.34004378 -19.03466797 41.69750977 C-20.66065638 42.52491794 -22.33012696 43.26517577 -24 44 C-24.66 43.67 -25.32 43.34 -26 43 C-21.71 40.36 -17.42 37.72 -13 35 C-18.67349291 35.62053829 -24.33836143 36.27942782 -30 37 C-25.37945594 33.91963729 -20.27675538 32.70217916 -15 31 C-20.61 30.34 -26.22 29.68 -32 29 C-32 28.67 -32 28.34 -32 28 C-21.605 27.505 -21.605 27.505 -11 27 C-15.51533883 25.76629477 -15.51533883 25.76629477 -20.03466797 24.54736328 C-22.99633861 23.71992484 -24.79254422 23.20745578 -27 21 C-20.31006781 21.53951066 -14.36539272 22.88706171 -8 25 C-9.175625 24.443125 -10.35125 23.88625 -11.5625 23.3125 C-15.71224807 21.24872155 -19.29604736 18.77796448 -23 16 C-22.34 15.67 -21.68 15.34 -21 15 C-18.3984375 16.21484375 -18.3984375 16.21484375 -15.375 17.9375 C-14.37210938 18.50339844 -13.36921875 19.06929687 -12.3359375 19.65234375 C-11.56507813 20.09707031 -10.79421875 20.54179688 -10 21 C-9.8845156 19.54138936 -9.8845156 19.54138936 -12.40625 17.49609375 C-13.434992 16.4740319 -14.46637207 15.45462036 -15.5 14.4375 C-16.02464844 13.91736328 -16.54929688 13.39722656 -17.08984375 12.86132812 C-18.39101763 11.57198309 -19.69523051 10.2857063 -21 9 C-20.67 8.34 -20.34 7.68 -20 7 C-14.06 12.445 -14.06 12.445 -8 18 C-8.680625 16.55625 -9.36125 15.1125 -10.0625 13.625 C-11.22265625 11.1640625 -11.22265625 11.1640625 -12 9 C-11.67 8.34 -11.34 7.68 -11 7 C-9.35 9.31 -7.7 11.62 -6 14 C-6.33 10.04 -6.66 6.08 -7 2 C-3.893533 5.106467 -3.30910218 8.83467488 -2 13 C-1.34 8.71 -0.68 4.42 0 0 Z " fill="#0C088F" transform="translate(191,99)"/>
<path d="M0 0 C3.95827235 -0.05785647 7.9164367 -0.09354717 11.875 -0.125 C13.00292969 -0.14175781 14.13085938 -0.15851563 15.29296875 -0.17578125 C16.36933594 -0.18222656 17.44570312 -0.18867187 18.5546875 -0.1953125 C19.54968262 -0.20578613 20.54467773 -0.21625977 21.56982422 -0.22705078 C24 0 24 0 26 2 C26.33 2.99 26.66 3.98 27 5 C28.65 5.66 30.3 6.32 32 7 C32 13.27 32 19.54 32 26 C31.67 26 31.34 26 31 26 C30.505 21.05 30.505 21.05 30 16 C29.01 18.97 28.02 21.94 27 25 C26.67 25 26.34 25 26 25 C26 21.7 26 18.4 26 15 C24.02 17.97 22.04 20.94 20 24 C19.67 23.34 19.34 22.68 19 22 C19.99609375 19.6171875 19.99609375 19.6171875 21.4375 16.875 C21.91058594 15.96492187 22.38367188 15.05484375 22.87109375 14.1171875 C23.24363281 13.41851562 23.61617187 12.71984375 24 12 C17.82747447 17.31429814 17.82747447 17.31429814 12 23 C11.34 22.67 10.68 22.34 10 22 C13.96 17.71 17.92 13.42 22 9 C17.47812004 11.34004378 17.47812004 11.34004378 12.96533203 13.69750977 C11.33934362 14.52491794 9.66987304 15.26517577 8 16 C7.34 15.67 6.68 15.34 6 15 C10.29 12.36 14.58 9.72 19 7 C13.32650709 7.62053829 7.66163857 8.27942782 2 9 C6.62054406 5.91963729 11.72324462 4.70217916 17 3 C11.39 2.34 5.78 1.68 0 1 C0 0.67 0 0.34 0 0 Z " fill="#8E8CCB" transform="translate(159,127)"/>
<path d="M0 0 C6.45840708 5.44247788 6.45840708 5.44247788 9.125 8.1875 C11.23520084 10.22736081 13.46742637 11.53377316 16 13 C18 15 18 15 18 18 C16.68 18 15.36 18 14 18 C13.67 19.32 13.34 20.64 13 22 C10.69 22.33 8.38 22.66 6 23 C6 23.66 6 24.32 6 25 C4.02 25.33 2.04 25.66 0 26 C0.66 25.67 1.32 25.34 2 25 C1.690625 23.88625 1.38125 22.7725 1.0625 21.625 C0.03510667 17.54436734 -0.41950478 13.52965893 -0.78125 9.34375 C-1.04348955 6.53404059 -1.48891832 3.77444338 -2 1 C0.17581687 3.84881728 2.20937999 6.76084088 4.1875 9.75 C4.71730469 10.54921875 5.24710938 11.3484375 5.79296875 12.171875 C6.19128906 12.77515625 6.58960938 13.3784375 7 14 C6.36771484 12.86111328 6.36771484 12.86111328 5.72265625 11.69921875 C5.17480469 10.70535156 4.62695312 9.71148437 4.0625 8.6875 C3.24458984 7.20830078 3.24458984 7.20830078 2.41015625 5.69921875 C1 3 1 3 0 0 Z " fill="#E4E4F3" transform="translate(197,135)"/>
<path d="M0 0 C4.95 0 9.9 0 15 0 C15 0.33 15 0.66 15 1 C12.69 1.33 10.38 1.66 8 2 C13.28 3.65 18.56 5.3 24 7 C17.68044789 8.57988803 12.30263446 6.45894316 6 5 C10.62 7.97 15.24 10.94 20 14 C19.01 14.495 19.01 14.495 18 15 C15.55667274 13.92481882 13.23245477 12.80191434 10.875 11.5625 C10.21628906 11.22412109 9.55757812 10.88574219 8.87890625 10.53710938 C7.24893453 9.69850074 5.62398091 8.85015189 4 8 C6.64 10.97 9.28 13.94 12 17 C9 17 9 17 6.73828125 15.03125 C5.93777344 14.1959375 5.13726562 13.360625 4.3125 12.5 C3.50425781 11.6646875 2.69601563 10.829375 1.86328125 9.96875 C1.24839844 9.3190625 0.63351563 8.669375 0 8 C0.51691406 8.91523438 1.03382813 9.83046875 1.56640625 10.7734375 C2.23219094 11.9737254 2.89753271 13.17425906 3.5625 14.375 C3.90474609 14.97828125 4.24699219 15.5815625 4.59960938 16.203125 C5.46127095 17.76978241 6.23718183 19.38290862 7 21 C6.67 21.66 6.34 22.32 6 23 C3.69 19.37 1.38 15.74 -1 12 C-1 14.40222283 -0.74511183 16.7351597 -0.5 19.125 C-0.4071875 20.03507812 -0.314375 20.94515625 -0.21875 21.8828125 C-0.1465625 22.58148438 -0.074375 23.28015625 0 24 C-1.99097846 21.01353231 -2.94124926 18.40312738 -4 15 C-4.33 16.98 -4.66 18.96 -5 21 C-5.33 21 -5.66 21 -6 21 C-6 16.05 -6 11.1 -6 6 C-4.02 5.01 -2.04 4.02 0 3 C0 2.01 0 1.02 0 0 Z " fill="#5856B2" transform="translate(198,128)"/>
<path d="M0 0 C2.22825644 2.22825644 2.69239369 3.65761628 3.625 6.625 C4.01558594 7.85089844 4.01558594 7.85089844 4.4140625 9.1015625 C4.60742188 9.72804688 4.80078125 10.35453125 5 11 C5.33 8.69 5.66 6.38 6 4 C6.33 4 6.66 4 7 4 C7.13559675 6.56428515 7.23433188 9.12135216 7.3125 11.6875 C7.35439453 12.40873047 7.39628906 13.12996094 7.43945312 13.87304688 C7.53324445 17.98110672 7.30617556 19.58016424 4.80078125 23.015625 C0.81241413 25.8414137 -1.33713365 25.31061207 -5.99609375 24.6640625 C-10.85252412 23.59046931 -15.41453136 21.90691636 -20 20 C-16.23331402 18.6194913 -13.55210827 19.40431841 -9.75 20.4375 C-8.13351563 20.86869141 -8.13351563 20.86869141 -6.484375 21.30859375 C-5.66453125 21.53675781 -4.8446875 21.76492187 -4 22 C-4.74636719 21.56042969 -5.49273437 21.12085937 -6.26171875 20.66796875 C-9.6449535 18.60713959 -12.79413329 16.32582487 -16 14 C-15.34 13.67 -14.68 13.34 -14 13 C-11.3984375 14.21484375 -11.3984375 14.21484375 -8.375 15.9375 C-6.87066406 16.78634766 -6.87066406 16.78634766 -5.3359375 17.65234375 C-4.56507813 18.09707031 -3.79421875 18.54179688 -3 19 C-2.8845156 17.54138936 -2.8845156 17.54138936 -5.40625 15.49609375 C-6.434992 14.4740319 -7.46637207 13.45462036 -8.5 12.4375 C-9.02464844 11.91736328 -9.54929688 11.39722656 -10.08984375 10.86132812 C-11.39101763 9.57198309 -12.69523051 8.2857063 -14 7 C-13.67 6.34 -13.34 5.68 -13 5 C-7.06 10.445 -7.06 10.445 -1 16 C-2.0209375 13.834375 -2.0209375 13.834375 -3.0625 11.625 C-4.22265625 9.1640625 -4.22265625 9.1640625 -5 7 C-4.67 6.34 -4.34 5.68 -4 5 C-2.35 7.31 -0.7 9.62 1 12 C0.67 8.04 0.34 4.08 0 0 Z " fill="#504DAE" transform="translate(184,101)"/>
<path d="M0 0 C1.03159626 3.09478879 0.97482862 4.52631393 0.5625 7.6875 C0.46066406 8.49574219 0.35882813 9.30398437 0.25390625 10.13671875 C0.17011719 10.75160156 0.08632812 11.36648437 0 12 C1.65 9.69 3.3 7.38 5 5 C5.33 5.66 5.66 6.32 6 7 C4.88378061 10.10746504 3.4097791 13.00955949 2 16 C5.96 12.37 9.92 8.74 14 5 C14 8 14 8 11.375 10.91796875 C10.25750594 12.01550756 9.13214357 13.10507895 8 14.1875 C7.42765625 14.74630859 6.8553125 15.30511719 6.265625 15.88085938 C4.85037212 17.26073093 3.42602845 18.63126734 2 20 C2.91523438 19.48308594 3.83046875 18.96617188 4.7734375 18.43359375 C5.9737254 17.76780906 7.17425906 17.10246729 8.375 16.4375 C8.97828125 16.09525391 9.5815625 15.75300781 10.203125 15.40039062 C11.76978241 14.53872905 13.38290862 13.76281817 15 13 C15.66 13.33 16.32 13.66 17 14 C15.37615858 15.14747465 13.75088944 16.2929291 12.125 17.4375 C11.22007812 18.07558594 10.31515625 18.71367188 9.3828125 19.37109375 C7 21 7 21 5 22 C5.80824219 21.7834375 6.61648437 21.566875 7.44921875 21.34375 C8.51785156 21.0653125 9.58648437 20.786875 10.6875 20.5 C11.74324219 20.2215625 12.79898438 19.943125 13.88671875 19.65625 C16.71142672 19.0608285 19.12836708 18.87213508 22 19 C18.65836994 21.22775337 15.45287175 22.12738864 11.625 23.125 C10.965 23.30675781 10.305 23.48851563 9.625 23.67578125 C0.76655194 26.0227406 0.76655194 26.0227406 -3.375 23.625 C-5.98124003 19.41491995 -5.04804721 15.69342879 -4 11 C-2.82662073 7.26309334 -1.48168265 3.62495384 0 0 Z " fill="#4E4BAD" transform="translate(198,101)"/>
<path d="M0 0 C0.67804688 0.13277344 1.35609375 0.26554688 2.0546875 0.40234375 C8.35792677 1.59838777 14.60635885 2.47297535 21 3 C21.33 4.32 21.66 5.64 22 7 C21.34 7 20.68 7 20 7 C20.04125 7.763125 20.0825 8.52625 20.125 9.3125 C20 12 20 12 18 15 C17.01 15 16.02 15 15 15 C14.67 16.65 14.34 18.3 14 20 C10.44314278 16.49441279 7.03716953 12.89446761 3.6875 9.1875 C2.80449219 8.21167969 1.92148438 7.23585937 1.01171875 6.23046875 C0.34785156 5.49441406 -0.31601563 4.75835937 -1 4 C-0.34 3.67 0.32 3.34 1 3 C3.3828125 3.99609375 3.3828125 3.99609375 6.125 5.4375 C7.03507813 5.91058594 7.94515625 6.38367188 8.8828125 6.87109375 C9.58148438 7.24363281 10.28015625 7.61617187 11 8 C10.2059375 7.50628906 9.411875 7.01257813 8.59375 6.50390625 C7.5728125 5.86324219 6.551875 5.22257813 5.5 4.5625 C4.4790625 3.92441406 3.458125 3.28632813 2.40625 2.62890625 C1.6121875 2.09136719 0.818125 1.55382812 0 1 C0 0.67 0 0.34 0 0 Z " fill="#F2F1F9" transform="translate(202,132)"/>
<path d="M0 0 C-0.66 6.6 -1.32 13.2 -2 20 C-4.91739927 17.08260073 -5.62414707 13.8774037 -7 10 C-6.67 13.3 -6.34 16.6 -6 20 C-10.13534955 16.21910898 -13.60980113 12.11604268 -16 7 C-16 5.68 -16 4.36 -16 3 C-15.01 3 -14.02 3 -13 3 C-12.67 2.34 -12.34 1.68 -12 1 C-9 0 -9 0 0 0 Z " fill="#EDECF6" transform="translate(192,94)"/>
<path d="M0 0 C3.95827235 -0.05785647 7.9164367 -0.09354717 11.875 -0.125 C13.00292969 -0.14175781 14.13085938 -0.15851563 15.29296875 -0.17578125 C16.36933594 -0.18222656 17.44570312 -0.18867187 18.5546875 -0.1953125 C19.54968262 -0.20578613 20.54467773 -0.21625977 21.56982422 -0.22705078 C24 0 24 0 26 2 C24.67017409 6.3588738 23.20963466 7.9292026 19.25 10.125 C18.35796875 10.62386719 17.4659375 11.12273437 16.546875 11.63671875 C15.70640625 12.08660156 14.8659375 12.53648437 14 13 C13.36578125 13.35707031 12.7315625 13.71414062 12.078125 14.08203125 C10.5 14.9375 10.5 14.9375 8 16 C7.34 15.67 6.68 15.34 6 15 C10.29 12.36 14.58 9.72 19 7 C13.32650709 7.62053829 7.66163857 8.27942782 2 9 C6.62054406 5.91963729 11.72324462 4.70217916 17 3 C11.39 2.34 5.78 1.68 0 1 C0 0.67 0 0.34 0 0 Z " fill="#3F3CA6" transform="translate(159,127)"/>
<path d="M0 0 C2.0078125 0.23046875 2.0078125 0.23046875 5.0078125 2.23046875 C4.0178125 2.23046875 3.0278125 2.23046875 2.0078125 2.23046875 C1.88277344 2.9471875 1.75773438 3.66390625 1.62890625 4.40234375 C1.00585798 7.23936857 0.11872546 9.77437644 -0.9296875 12.48046875 C-2.75092264 17.36137891 -3.98735465 22.12256844 -4.9921875 27.23046875 C-5.3221875 27.23046875 -5.6521875 27.23046875 -5.9921875 27.23046875 C-6.18801333 22.91830394 -6.37245824 18.60572785 -6.5546875 14.29296875 C-6.61076172 13.06126953 -6.66683594 11.82957031 -6.72460938 10.56054688 C-6.77294922 9.39072266 -6.82128906 8.22089844 -6.87109375 7.015625 C-6.9182251 5.931604 -6.96535645 4.84758301 -7.01391602 3.73071289 C-6.97200133 -1.09230158 -4.16732199 0.08457665 0 0 Z " fill="#DBDBEE" transform="translate(197.9921875,93.76953125)"/>
<path d="M0 0 C0.33 0 0.66 0 1 0 C0.85834107 2.39614575 0.71181159 4.79182897 0.5625 7.1875 C0.50352539 8.19780273 0.50352539 8.19780273 0.44335938 9.22851562 C0.21072435 12.89699102 -0.17207011 16.41694206 -1 20 C-2.32 19.67 -3.64 19.34 -5 19 C-5 18.34 -5 17.68 -5 17 C-6.65 17 -8.3 17 -10 17 C-8.5137853 12.80591769 -6.41721984 9.37332677 -3.9375 5.6875 C-3.22464844 4.61886719 -2.51179687 3.55023438 -1.77734375 2.44921875 C-1.19082031 1.64097656 -0.60429687 0.83273438 0 0 Z " fill="#E9E9F5" transform="translate(185,141)"/>
<path d="M0 0 C2.3431213 0.25561323 4.67843403 0.59270772 7 1 C7.33 1.66 7.66 2.32 8 3 C6.6350547 5.44268953 5.22979822 7.73629683 3.6875 10.0625 C3.06198242 11.03799805 3.06198242 11.03799805 2.42382812 12.03320312 C-0.72800434 16.86400217 -0.72800434 16.86400217 -3 18 C-2.51679152 11.7945858 -1.66681876 6.00054754 0 0 Z " fill="#F7F6FB" transform="translate(200,96)"/>
<path d="M0 0 C-0.66 6.27 -1.32 12.54 -2 19 C-4.5872505 16.4127495 -5.06556087 14.11722529 -6.125 10.625 C-6.47820312 9.48289062 -6.83140625 8.34078125 -7.1953125 7.1640625 C-8 4 -8 4 -8 0 C-4.63458162 -1.08174162 -3.70152678 -0.92538169 0 0 Z " fill="#F7F7FB" transform="translate(192,95)"/>
<path d="M0 0 C2.5872505 2.5872505 3.06556087 4.88277471 4.125 8.375 C4.47820312 9.51710937 4.83140625 10.65921875 5.1953125 11.8359375 C6 15 6 15 6 19 C3.69 19.33 1.38 19.66 -1 20 C-1.10152799 13.2314676 -1.03026944 6.69675136 0 0 Z " fill="#F7F7FB" transform="translate(193,141)"/>
<path d="M0 0 C4.95 0 9.9 0 15 0 C15 0.33 15 0.66 15 1 C12.69 1.33 10.38 1.66 8 2 C13.28 3.65 18.56 5.3 24 7 C20.2210321 7.94474198 19.0393461 8.02228663 15.453125 7.22265625 C14.18662109 6.94711914 14.18662109 6.94711914 12.89453125 6.66601562 C12.02183594 6.46685547 11.14914063 6.26769531 10.25 6.0625 C9.36183594 5.86720703 8.47367188 5.67191406 7.55859375 5.47070312 C5.37050678 4.98838288 3.1845827 4.49790968 1 4 C0.67 2.68 0.34 1.36 0 0 Z " fill="#5552B1" transform="translate(198,128)"/>
<path d="M0 0 C3.95827235 -0.05785647 7.9164367 -0.09354717 11.875 -0.125 C13.00292969 -0.14175781 14.13085938 -0.15851563 15.29296875 -0.17578125 C16.36933594 -0.18222656 17.44570312 -0.18867187 18.5546875 -0.1953125 C19.54968262 -0.20578613 20.54467773 -0.21625977 21.56982422 -0.22705078 C24 0 24 0 26 2 C25.67 2.99 25.34 3.98 25 5 C24.01 4.67 23.02 4.34 22 4 C22 3.67 22 3.34 22 3 C14.74 2.34 7.48 1.68 0 1 C0 0.67 0 0.34 0 0 Z " fill="#504DAE" transform="translate(159,127)"/>
<path d="M0 0 C5.72419935 0.45430154 10.58830988 1.33507608 15.95703125 3.37890625 C18.28195937 4.19391361 18.28195937 4.19391361 22 4 C22 4.66 22 5.32 22 6 C14.01790621 5.69121494 7.36897561 4.06446761 0 1 C0 0.67 0 0.34 0 0 Z " fill="#3431A1" transform="translate(164,120)"/>
<path d="M0 0 C-3.34163006 2.22775337 -6.54712825 3.12738864 -10.375 4.125 C-11.365 4.39763672 -11.365 4.39763672 -12.375 4.67578125 C-15.99530961 5.63494694 -19.25410979 6.21694345 -23 6 C-22.67 5.34 -22.34 4.68 -22 4 C-20.34766198 3.60166851 -18.67616824 3.28168939 -17 3 C-13.97459046 2.22353186 -10.95555425 1.42565158 -7.9375 0.62109375 C-5.18530118 0.03917937 -2.80060568 -0.11840796 0 0 Z " fill="#3330A1" transform="translate(220,120)"/>
<path d="M0 0 C4.95725232 0.52131717 8.28207993 2.85203212 12.3125 5.5625 C13.28026367 6.19961914 13.28026367 6.19961914 14.26757812 6.84960938 C15.84973954 7.89266393 17.42552501 8.94537872 19 10 C18.01 10.495 18.01 10.495 17 11 C14.4206469 9.8286424 11.98065179 8.60392584 9.5 7.25 C8.81035156 6.8890625 8.12070313 6.528125 7.41015625 6.15625 C4.07927845 4.36419878 2.12998211 3.19497316 0 0 Z " fill="#3633A2" transform="translate(199,132)"/>
<path d="M0 0 C6.28119035 4.25984984 11.14267865 9.18671647 16 15 C13 15 13 15 11.46606445 13.83837891 C10.937146 13.30647949 10.40822754 12.77458008 9.86328125 12.2265625 C9.28642578 11.6490625 8.70957031 11.0715625 8.11523438 10.4765625 C7.52033203 9.86554688 6.92542969 9.25453125 6.3125 8.625 C5.70599609 8.02171875 5.09949219 7.4184375 4.47460938 6.796875 C0 2.26689925 0 2.26689925 0 0 Z " fill="#191595" transform="translate(170,106)"/>
<path d="M0 0 C1.20959584 3.62878753 0.65839734 5.1543797 -0.3125 8.8125 C-0.73402344 10.40771484 -0.73402344 10.40771484 -1.1640625 12.03515625 C-2.01678297 15.05952463 -2.93256503 18.04402625 -4 21 C-5.31246762 17.32685238 -4.67633026 14.77881467 -3.6875 11.0625 C-3.42324219 10.04285156 -3.15898437 9.02320312 -2.88671875 7.97265625 C-2.06942121 5.23272927 -1.11035128 2.63284169 0 0 Z " fill="#2D299E" transform="translate(198,101)"/>
<path d="M0 0 C0.99 0.33 1.98 0.66 3 1 C-1.29 5.29 -5.58 9.58 -10 14 C-10.66 13.67 -11.32 13.34 -12 13 C-8.04 8.71 -4.08 4.42 0 0 Z " fill="#3E3BA6" transform="translate(181,136)"/>
<path d="M0 0 C0.66 0.33 1.32 0.66 2 1 C-3.48136179 5.12480746 -8.19603711 8.66878987 -15 10 C-10.8687271 5.18018162 -5.96000986 2.2152249 0 0 Z " fill="#29269D" transform="translate(213,114)"/>
<path d="M0 0 C5.89126992 1.55033419 11.02060001 4.54911639 16 8 C16.33 8.66 16.66 9.32 17 10 C10.26594038 8.6824666 5.31670278 5.26833885 0 1 C0 0.67 0 0.34 0 0 Z " fill="#29269C" transform="translate(168,114)"/>
<path d="M0 0 C4.17858365 3.71429658 7.17846829 7.64185802 9 13 C8.67 13.66 8.34 14.32 8 15 C6.84735447 13.25447936 5.70312673 11.50339804 4.5625 9.75 C3.92441406 8.77546875 3.28632813 7.8009375 2.62890625 6.796875 C1.2423864 4.41618385 0.453419 2.68219693 0 0 Z " fill="#27239B" transform="translate(196,136)"/>
<path d="M0 0 C0.33 0.66 0.66 1.32 1 2 C-0.36328125 4.78515625 -0.36328125 4.78515625 -2.3125 8.0625 C-2.94800781 9.14660156 -3.58351562 10.23070312 -4.23828125 11.34765625 C-6 14 -6 14 -8 15 C-6.5320383 9.66195747 -3.98519676 3.98519676 0 0 Z " fill="#26229B" transform="translate(186,136)"/>
<path d="M0 0 C3.68428193 3.28953744 5.8406504 6.60132489 8 11 C7.67 11.99 7.34 12.98 7 14 C3.98320986 9.46330032 1.46032495 5.31027254 0 0 Z " fill="#1F1C98" transform="translate(179,106)"/>
<path d="M0 0 C0.33 0.66 0.66 1.32 1 2 C-0.14453125 4.56640625 -0.14453125 4.56640625 -1.8125 7.5625 C-2.35519531 8.55378906 -2.89789063 9.54507813 -3.45703125 10.56640625 C-5 13 -5 13 -7 14 C-6.44010697 10.00987629 -5.24330232 7.4744948 -2.9375 4.1875 C-2.38964844 3.39730469 -1.84179688 2.60710937 -1.27734375 1.79296875 C-0.64505859 0.90544922 -0.64505859 0.90544922 0 0 Z " fill="#1F1B98" transform="translate(203,106)"/>
<path d="M0 0 C3.40858586 3.40858586 3.93008394 8.32201465 4.125 13 C4.08375 13.66 4.0425 14.32 4 15 C0.73154287 10.09731431 -0.27944109 5.86826297 0 0 Z " fill="#1C1997" transform="translate(194,137)"/>
<path d="M0 0 C0.33 0 0.66 0 1 0 C0.5547115 5.27315333 -0.08373163 10.01770224 -2 15 C-2.33 15 -2.66 15 -3 15 C-2.22095672 4.44191344 -2.22095672 4.44191344 0 0 Z " fill="#1D1997" transform="translate(188,137)"/>
<path d="M0 0 C0.66 0 1.32 0 2 0 C4.09230769 4.43076923 4.09230769 4.43076923 3.625 7.3125 C3.41875 7.869375 3.2125 8.42625 3 9 C1.68 9 0.36 9 -1 9 C-1 6 -1 6 0 4 C0 2.68 0 1.36 0 0 Z " fill="#9392CD" transform="translate(185,114)"/>
<path d="M0 0 C0.66 0.33 1.32 0.66 2 1 C2 1.99 2 2.98 2 4 C2.185625 4.680625 2.37125 5.36125 2.5625 6.0625 C3 8 3 8 2 10 C0.68 9.34 -0.64 8.68 -2 8 C-1.125 2.25 -1.125 2.25 0 0 Z " fill="#9392CD" transform="translate(196,114)"/>
<path d="M0 0 C0.99 0.33 1.98 0.66 3 1 C1.02 2.98 -0.96 4.96 -3 7 C-3.66 6.67 -4.32 6.34 -5 6 C-3.35 4.02 -1.7 2.04 0 0 Z " fill="#171394" transform="translate(202,115)"/>
<path d="M0 0 C1.34173403 0.92543709 2.67320159 1.86577405 4 2.8125 C5.11375 3.59560547 5.11375 3.59560547 6.25 4.39453125 C6.8275 4.92433594 7.405 5.45414062 8 6 C8 6.99 8 7.98 8 9 C6.84775972 8.07038578 5.70340824 7.1309875 4.5625 6.1875 C3.60537109 5.40439453 3.60537109 5.40439453 2.62890625 4.60546875 C1 3 1 3 0 0 Z " fill="#5552B0" transform="translate(170,106)"/>
</svg>
